<svg xmlns="http://www.w3.org/2000/svg" viewBox="0 0 24 24" fill="#FF7A59">
  <path d="M18.164 7.93V5.084a2.198 2.198 0 001.267-1.984v-.066A2.198 2.198 0 0017.235.838h-.066a2.198 2.198 0 00-2.196 2.196v.066c0 .907.55 1.685 1.334 2.022v2.808a5.849 5.849 0 00-2.529 1.106l-6.73-5.236a2.75 2.75 0 00.096-.678A2.751 2.751 0 104.5 5.873a2.75 2.75 0 00.678-.096l6.73 5.236a5.848 5.848 0 00-1.106 3.43 5.848 5.848 0 001.106 3.43l-2.084 1.622a2.198 2.198 0 00-1.985-1.267h-.066a2.198 2.198 0 00-2.196 2.196v.066a2.198 2.198 0 002.196 2.196h.066a2.198 2.198 0 002.157-1.752l2.121-1.65a5.848 5.848 0 003.43 1.106 5.878 5.878 0 100-11.756 5.848 5.848 0 00-2.383.508zm-.717 8.475a3.049 3.049 0 110-6.098 3.049 3.049 0 010 6.098z"/>
</svg>