<svg xmlns="http://www.w3.org/2000/svg" viewBox="0 0 100 100" fill="none">
  <path d="M50 85c-19.3 0-35-15.7-35-35S30.7 15 50 15c11.6 0 21.8 5.6 28.2 14.2C71.8 20.6 61.6 15 50 15c-19.3 0-35 15.7-35 35s15.7 35 35 35c11.6 0 21.8-5.6 28.2-14.2C71.8 79.4 61.6 85 50 85z" fill="#0668E1"/>
  <ellipse cx="35" cy="50" rx="12" ry="18" fill="#0668E1"/>
  <ellipse cx="65" cy="50" rx="12" ry="18" fill="#0668E1"/>
  <path d="M47 50c0-10 6-18 13.5-18S74 40 74 50s-6 18-13.5 18S47 60 47 50z" fill="#0668E1"/>
  <ellipse cx="35" cy="50" rx="5" ry="8" fill="white"/>
  <ellipse cx="65" cy="50" rx="5" ry="8" fill="white"/>
</svg>
