<svg xmlns="http://www.w3.org/2000/svg" viewBox="0 0 300 80" fill="none">
  <!-- Background -->
  <rect width="300" height="80" rx="12" fill="#1877F2" fill-opacity="0.1"/>
  <rect x="0.5" y="0.5" width="299" height="79" rx="11.5" stroke="#1877F2" stroke-opacity="0.3"/>

  <!-- Meta Logo (Infinity symbol style) -->
  <g transform="translate(20, 20)">
    <path d="M20 20c-5.5 0-10-4.5-10-10S14.5 0 20 0c3.3 0 6.2 1.6 8 4 1.8-2.4 4.7-4 8-4 5.5 0 10 4.5 10 10s-4.5 10-10 10c-3.3 0-6.2-1.6-8-4-1.8 2.4-4.7 4-8 4z" fill="#1877F2"/>
    <circle cx="20" cy="10" r="4" fill="white"/>
    <circle cx="36" cy="10" r="4" fill="white"/>
  </g>

  <!-- Text -->
  <text x="70" y="35" font-family="system-ui, -apple-system, sans-serif" font-size="16" font-weight="600" fill="#1877F2">Meta</text>
  <text x="70" y="55" font-family="system-ui, -apple-system, sans-serif" font-size="14" font-weight="500" fill="#666">Tech Provider</text>

  <!-- Verified Badge -->
  <g transform="translate(260, 25)">
    <circle cx="15" cy="15" r="15" fill="#1877F2"/>
    <path d="M10 15l4 4 8-8" stroke="white" stroke-width="2.5" stroke-linecap="round" stroke-linejoin="round" fill="none"/>
  </g>
</svg>
