<svg version="1.1" id="Layer_1" xmlns:x="ns_extend;" xmlns:i="ns_ai;" xmlns:graph="ns_graphs;" xmlns="http://www.w3.org/2000/svg" xmlns:xlink="http://www.w3.org/1999/xlink" x="0px" y="0px" viewBox="0 0 137.5 82" style="enable-background:new 0 0 137.5 82;" xml:space="preserve">
 <style type="text/css">
  .st0{fill-rule:evenodd;clip-rule:evenodd;fill:#38BDF8;}
 </style>
 <metadata>
  <sfw xmlns="ns_sfw;">
   <slices>
   </slices>
   <sliceSourceBounds bottomLeftOrigin="true" height="82" width="137.5" x="-373.1" y="188.2">
   </sliceSourceBounds>
  </sfw>
 </metadata>
 <g>
  <path class="st0" d="M68.7,0C50.4,0,39,9.1,34.4,27.3c6.9-9.1,14.9-12.5,24.1-10.3c5.2,1.3,9,5.1,13.1,9.2
		C78.3,33.1,86.1,41,103.1,41c18.3,0,29.8-9.1,34.4-27.3c-6.9,9.1-14.9,12.5-24,10.2c-5.2-1.3-9-5.1-13.1-9.2
		C93.6,7.9,85.8,0,68.7,0L68.7,0z M34.4,41C16,41,4.6,50.1,0,68.3c6.9-9.1,14.9-12.5,24.1-10.3c5.2,1.3,9,5.1,13.1,9.2
		C43.9,74.1,51.7,82,68.7,82c18.3,0,29.8-9.1,34.4-27.3c-6.9,9.1-14.9,12.5-24.1,10.2c-5.2-1.3-9-5.1-13.1-9.2
		C59.2,48.9,51.4,41,34.4,41L34.4,41z M34.4,41">
  </path>
 </g>
</svg>