<?xml version="1.0" encoding="UTF-8"?>
<svg id="Layer_1" data-name="Layer 1" xmlns="http://www.w3.org/2000/svg" viewBox="0 0 255.12 141.73">
  <defs>
    <style>
      .cls-1 {
        fill: #2e2e30;
      }

      .cls-2 {
        fill: #dde29e;
      }
    </style>
  </defs>
  <path class="cls-2" d="M34.54,78.94l41.08-36.59h19.35s2.96.42,2.19,3.93l-41.33,37.34h25.39l12.13,11.06s2.26,3.09-1.13,4.7h-19.5l-17.18-15.22h-19.8s-3.12-2.7-1.2-5.21Z"/>
  <g>
    <path class="cls-1" d="M86.39,62.55h12.55v3.24h-9.11v5.26h7.92v3.24h-7.92v8.21h-3.44v-19.95Z"/>
    <path class="cls-1" d="M106.84,62.55h4.08l7.87,19.95h-3.79l-1.62-4.25h-9.08l-1.62,4.25h-3.7l7.87-19.95ZM112.16,75.07l-3.33-8.76-3.33,8.76h6.65Z"/>
    <path class="cls-1" d="M121.58,62.55h7.75c5.81,0,10.15,4.28,10.15,9.98s-4.34,9.98-10.15,9.98h-7.75v-19.95ZM125.02,65.79v13.47h4.25c3.82,0,6.68-2.89,6.68-6.74s-2.86-6.74-6.68-6.74h-4.25Z"/>
    <path class="cls-1" d="M143.27,62.55h12.98v3.24h-9.54v5.06h8.59v3.24h-8.59v5.18h9.69v3.24h-13.13v-19.95Z"/>
    <path class="cls-1" d="M160.19,62.55h4.28l6.56,11.31,6.56-11.31h4.25v19.95h-3.44v-14.95l-6.42,11.1h-1.97l-6.39-11.1v14.95h-3.44v-19.95Z"/>
    <path class="cls-1" d="M186.67,62.55h12.98v3.24h-9.54v5.06h8.59v3.24h-8.59v5.18h9.69v3.24h-13.13v-19.95Z"/>
    <path class="cls-1" d="M209.2,72.5l-7.11-9.95h4.25l5.29,7.55,5.23-7.55h4.22l-7.14,9.95,7.26,10h-4.25l-5.38-7.63-5.38,7.63h-4.22l7.23-10Z"/>
  </g>
</svg>