<svg width="991" height="321" viewBox="0 0 991 321" fill="none" xmlns="http://www.w3.org/2000/svg">
<path d="M35.8621 65.2868C35.8621 71.7236 38.0077 77.8539 42.2989 83.6776C46.59 89.1949 52.1073 93.7926 58.8506 97.4707C65.5939 101.149 73.2567 104.367 81.8391 107.126C90.4215 109.885 99.4636 112.796 108.966 115.862C118.467 118.927 127.816 122.298 137.012 125.976C146.207 129.655 154.176 134.252 160.92 139.77C175.632 151.724 182.989 167.969 182.989 188.505C182.989 198.314 180.69 207.662 176.092 216.551C171.494 225.134 165.057 232.337 156.782 238.16C139.923 250.421 117.395 256.551 89.1954 256.551C62.5287 256.551 39.0805 249.808 18.8506 236.321C6.28354 228.352 1.11461e-05 221.609 1.11461e-05 216.091C1.11461e-05 211.187 2.45212 207.203 7.35633 204.137C8.58239 202.911 10.115 202.298 11.954 202.298C13.7931 202.298 15.7855 203.065 17.931 204.597C20.0766 206.13 22.5287 207.969 25.2874 210.114C28.3525 212.26 32.0307 214.712 36.3218 217.471C40.9196 219.923 45.6705 222.222 50.5747 224.367C62.8353 229.272 74.7893 231.57 86.4368 231.264C98.0843 230.957 107.433 230.038 114.483 228.505C121.533 226.973 127.816 224.367 133.333 220.689C144.981 212.72 150.958 202.605 151.264 190.344C151.264 175.019 143.755 163.218 128.736 154.942C121.992 151.264 114.33 148.045 105.747 145.287C97.4713 142.222 88.5824 139.31 79.0805 136.551C69.8851 133.793 60.6897 130.421 51.4943 126.436C42.2989 122.452 34.1763 117.701 27.1264 112.183C12.1073 100.229 4.59771 84.9037 4.59771 66.2064C4.59771 56.398 6.89656 47.2026 11.4943 38.6202C16.3985 30.0378 22.9885 22.988 31.2644 17.4707C47.2031 6.12975 67.1264 0.305994 91.0345 -0.000516891C125.671 -0.000516891 153.563 11.1872 174.713 33.5627C175.939 35.4018 176.552 37.5474 176.552 39.9995C176.552 42.1451 176.398 43.9842 176.092 45.5167C176.092 47.0493 175.326 48.5819 173.793 50.1144C171.648 52.873 168.736 54.2524 165.057 54.2524C161.686 54.2524 158.008 51.9535 154.023 47.3558C143.908 39.9995 135.785 35.2485 129.655 33.1029C117.395 28.1987 105.441 25.7466 93.7931 25.7466C78.774 25.7466 65.9004 28.8117 55.1724 34.942C42.2989 42.2983 35.8621 52.4133 35.8621 65.2868ZM279.529 251.494L211.943 97.011C211.024 95.1719 210.564 93.3328 210.564 91.4937C210.564 89.6547 211.024 87.9688 211.943 86.4363C212.863 84.5972 213.936 83.3711 215.162 82.7581C218.84 80.306 222.365 78.7734 225.736 78.1604C232.173 78.1604 236.771 81.2255 239.529 87.3558L294.242 219.77L348.495 87.3558C351.254 81.2255 354.779 78.1604 359.07 78.1604C363.667 78.1604 367.346 79.5397 370.104 82.2983C373.169 84.7504 374.702 87.3558 374.702 90.1144C374.702 92.873 374.242 95.1719 373.323 97.011L285.047 311.724C282.288 317.854 277.997 320.919 272.173 320.919C268.495 320.919 265.43 319.999 262.978 318.16C259.3 315.095 257.46 312.183 257.46 309.425C257.46 306.666 257.92 304.674 258.84 303.448L279.529 251.494ZM410.734 91.4937C410.734 87.5091 412.266 84.2907 415.331 81.8386C418.397 79.3865 421.462 78.1604 424.527 78.1604C430.964 78.1604 435.101 80.6125 436.941 85.5167C438.78 90.4209 439.239 97.7773 438.32 107.586C441.998 98.3903 449.967 90.4209 462.228 83.6776C472.956 77.8539 483.531 74.942 493.952 74.942C504.68 74.942 513.722 76.3213 521.078 79.0799C528.435 81.532 535.178 85.5167 541.308 91.034C553.569 102.681 559.699 119.846 559.699 142.528V239.999C559.699 244.291 558.013 247.509 554.642 249.655C551.577 251.8 548.358 252.873 544.987 252.873C541.308 252.873 538.09 251.8 535.331 249.655C532.573 247.203 531.193 243.984 531.193 239.999V140.689C531.193 126.283 527.209 115.249 519.239 107.586C511.883 100.229 502.688 96.5512 491.653 96.5512C476.941 96.5512 464.374 100.842 453.952 109.425C443.531 118.62 438.32 132.72 438.32 151.724V239.999C438.32 244.291 436.787 247.509 433.722 249.655C430.657 251.8 427.285 252.873 423.607 252.873C419.929 252.873 416.864 251.8 414.412 249.655C411.96 247.203 410.734 243.984 410.734 239.999V91.4937ZM705.422 242.758C705.422 251.954 694.541 256.551 672.778 256.551C656.533 256.551 645.039 252.107 638.296 243.218C630.939 233.716 626.955 218.084 626.342 196.321V99.7696H606.112C602.434 99.7696 599.522 98.6968 597.376 96.5512C595.23 94.0991 594.158 91.647 594.158 89.1949C594.158 86.7428 595.077 84.2907 596.916 81.8386C598.755 79.3865 601.821 78.1604 606.112 78.1604H628.181L630.02 28.5052C630.633 24.8271 632.319 22.0685 635.077 20.2294C637.836 18.0838 640.748 17.011 643.813 17.011C646.878 17.011 649.483 17.9305 651.629 19.7696C653.775 21.6087 654.847 24.5206 654.847 28.5052V78.1604H686.571C690.25 78.1604 693.008 79.3865 694.847 81.8386C696.993 84.2907 698.066 86.7428 698.066 89.1949C698.066 92.26 696.993 94.8654 694.847 97.011C693.008 98.8501 690.25 99.7696 686.571 99.7696H654.847V181.149C654.847 203.831 655.614 217.624 657.146 222.528C658.679 227.126 661.131 230.344 664.503 232.183C667.874 234.022 672.012 234.942 676.916 234.942L694.847 233.563C698.219 233.563 700.824 234.635 702.663 236.781C704.503 238.927 705.422 240.919 705.422 242.758ZM764.101 107.586C771.457 85.8232 787.549 74.942 812.377 74.942C816.975 74.942 820.346 76.3213 822.492 79.0799C824.944 81.532 826.17 84.2907 826.17 87.3558C826.17 90.1144 824.944 92.873 822.492 95.6317C820.346 98.0838 816.208 99.3098 810.078 99.3098C803.948 99.3098 797.818 100.536 791.687 102.988C785.557 105.44 780.5 108.965 776.515 113.563C768.239 123.678 764.101 137.011 764.101 153.563V239.999C764.101 244.291 762.569 247.509 759.503 249.655C756.438 251.8 753.68 252.873 751.228 252.873C748.775 252.873 746.783 252.72 745.251 252.413C743.718 251.8 742.185 250.727 740.653 249.195C737.894 247.356 736.515 244.291 736.515 239.999V91.9535C736.515 87.9688 737.894 84.7504 740.653 82.2983C743.411 79.5397 746.783 78.1604 750.768 78.1604C755.059 78.1604 758.277 79.5397 760.423 82.2983C762.875 84.7504 764.101 87.9688 764.101 91.9535V107.586ZM943.492 146.666C949.929 146.666 956.366 146.819 962.803 147.126V132.413C962.803 108.505 949.469 96.5512 922.803 96.5512C910.849 96.5512 902.113 97.624 896.596 99.7696C886.787 103.448 879.737 106.666 875.446 109.425C871.155 111.877 867.783 113.103 865.331 113.103C862.879 113.103 860.58 112.183 858.435 110.344C856.289 108.505 855.216 106.053 855.216 102.988C855.216 100.536 856.596 98.0838 859.354 95.6317C873.76 81.8386 895.063 74.942 923.262 74.942C955.753 74.942 976.596 85.8232 985.791 107.586C988.856 115.249 990.389 124.137 990.389 134.252L989.469 240.459C989.469 244.444 988.09 247.509 985.331 249.655C982.573 251.8 979.508 252.873 976.136 252.873C972.764 252.873 969.699 251.954 966.941 250.114C964.182 248.275 962.803 245.21 962.803 240.919V224.367C955.446 240.306 942.266 250.268 923.262 254.252C917.439 255.785 910.849 256.551 903.492 256.551C896.136 256.551 888.78 255.478 881.423 253.333C874.374 251.187 868.09 247.816 862.573 243.218C851.232 233.716 845.561 220.842 845.561 204.597C845.561 165.976 878.205 146.666 943.492 146.666ZM962.803 167.356C957.898 167.969 952.228 168.275 945.791 168.275C939.354 168.275 932.764 168.429 926.021 168.735C919.278 168.735 912.841 169.501 906.711 171.034C900.58 172.26 895.063 174.252 890.159 177.011C879.737 182.528 874.22 191.57 873.607 204.137C873.607 213.946 877.592 221.609 885.561 227.126C891.692 232.03 900.427 234.635 911.768 234.942C925.561 234.942 937.515 230.498 947.63 221.609C956.826 213.026 961.883 200.153 962.803 182.988V167.356Z" fill="black"/>
</svg>
