<svg width="120" height="35" viewBox="0 0 120 35" fill="none" xmlns="http://www.w3.org/2000/svg">
<rect x="0.660034" y="0.660156" width="118" height="33" rx="12" fill="#D0FECF"/>
<rect x="0.330034" y="0.330156" width="118.66" height="33.66" rx="12.33" stroke="black" stroke-opacity="0.06" stroke-width="0.66"/>
<path d="M12.0796 22.1602V11.0276H13.4682V15.8417H19.5784V11.0276H20.9671V22.1602H19.5784V17.0915H13.4682V22.1602H12.0796ZM26.8487 22.3067C24.4802 22.3067 23.0144 20.6712 23.0144 18.0096V17.9941C23.0144 15.3248 24.4802 13.697 26.8487 13.697C29.2171 13.697 30.683 15.3248 30.683 17.9941V18.0096C30.683 20.6712 29.2171 22.3067 26.8487 22.3067ZM26.8487 21.1187C28.4225 21.1187 29.3097 19.9691 29.3097 18.0096V17.9941C29.3097 16.0269 28.4225 14.8851 26.8487 14.8851C25.2748 14.8851 24.3876 16.0269 24.3876 17.9941V18.0096C24.3876 19.9691 25.2748 21.1187 26.8487 21.1187ZM32.6377 22.1602V10.5416H33.9801V22.1602H32.6377ZM38.635 22.3067C37.0535 22.3067 35.8577 21.3501 35.8577 19.838V19.8226C35.8577 18.3413 36.9532 17.485 38.8896 17.3692L41.2735 17.2227V16.4666C41.2735 15.4405 40.6486 14.8851 39.4065 14.8851C38.4113 14.8851 37.7556 15.2554 37.5395 15.9034L37.5318 15.9266H36.1894L36.1972 15.8803C36.4132 14.5765 37.6784 13.697 39.4528 13.697C41.4818 13.697 42.6159 14.7385 42.6159 16.4666V22.1602H41.2735V20.9335H41.1501C40.6255 21.8207 39.7537 22.3067 38.635 22.3067ZM37.2309 19.8071C37.2309 20.648 37.9484 21.1418 38.9128 21.1418C40.2783 21.1418 41.2735 20.2469 41.2735 19.0588V18.3027L39.0516 18.4416C37.7864 18.5187 37.2309 18.9662 37.2309 19.7917V19.8071ZM45.427 18.457L45.2959 11.0199H46.8388L46.7077 18.457H45.427ZM46.0751 22.299C45.4502 22.299 45.0027 21.8516 45.0027 21.2267C45.0027 20.594 45.4502 20.1466 46.0751 20.1466C46.7 20.1466 47.1397 20.594 47.1397 21.2267C47.1397 21.8516 46.7 22.299 46.0751 22.299Z" fill="#0A0A0A"/>
<path d="M64.7445 25.6602V18.9839H64.6585L62.6873 20.4126V19.3921L64.7498 17.9097H65.7113V25.6602H64.7445ZM71.2403 25.8428C69.8223 25.8428 68.3238 24.8438 68.3238 21.9272V21.9165C68.3238 19.2739 69.4248 17.7271 71.3047 17.7271C72.6045 17.7271 73.5713 18.4897 73.8345 19.6338L73.8506 19.7036H72.8784L72.857 19.6445C72.6206 18.9946 72.0781 18.5918 71.294 18.5918C69.8867 18.5918 69.312 19.9668 69.253 21.5835C69.2476 21.6426 69.2476 21.707 69.2476 21.7661H69.3496C69.6343 21.1323 70.3648 20.5684 71.4121 20.5684C72.8677 20.5684 73.9527 21.6748 73.9527 23.1626V23.1733C73.9527 24.7202 72.8032 25.8428 71.2403 25.8428ZM69.4785 23.1626C69.4785 24.1831 70.2466 24.9888 71.2295 24.9888C72.2017 24.9888 72.9805 24.1992 72.9805 23.1948V23.1841C72.9805 22.1528 72.25 21.4116 71.2456 21.4116C70.2412 21.4116 69.4785 22.1475 69.4785 23.1572V23.1626ZM76.823 20.4019C76.4416 20.4019 76.1247 20.085 76.1247 19.7036C76.1247 19.3169 76.4416 19.0054 76.823 19.0054C77.2097 19.0054 77.5212 19.3169 77.5212 19.7036C77.5212 20.085 77.2097 20.4019 76.823 20.4019ZM76.823 24.5591C76.4416 24.5591 76.1247 24.2422 76.1247 23.8608C76.1247 23.4741 76.4416 23.1626 76.823 23.1626C77.2097 23.1626 77.5212 23.4741 77.5212 23.8608C77.5212 24.2422 77.2097 24.5591 76.823 24.5591ZM81.7665 25.6602V18.9839H81.6806L79.7094 20.4126V19.3921L81.7719 17.9097H82.7333V25.6602H81.7665ZM88.1603 25.7891C86.5597 25.7891 85.5231 24.8975 85.421 23.6729L85.4156 23.6084H86.3448L86.3502 23.6621C86.4254 24.4248 87.129 24.9512 88.1603 24.9512C89.1754 24.9512 89.8683 24.3818 89.8683 23.5601V23.5493C89.8683 22.5986 89.1862 22.0669 88.1012 22.0669H87.129V21.2505H88.0582C88.9821 21.2505 89.6266 20.6812 89.6266 19.9077V19.897C89.6266 19.0859 89.0948 18.6187 88.1495 18.6187C87.2365 18.6187 86.5865 19.1021 86.506 19.8862L86.5006 19.9399H85.5714L85.5768 19.8862C85.7003 18.624 86.6993 17.7808 88.1495 17.7808C89.6266 17.7808 90.5988 18.6025 90.5988 19.7788V19.7896C90.5988 20.7456 89.922 21.4009 88.9552 21.605V21.6265C90.0831 21.7231 90.8512 22.4268 90.8512 23.5278V23.5386C90.8512 24.833 89.7125 25.7891 88.1603 25.7891Z" fill="black" fill-opacity="0.5"/>
<path fill-rule="evenodd" clip-rule="evenodd" d="M104.376 18.2821C104.529 17.9859 104.457 17.6134 104.187 17.3968C103.917 17.1805 103.539 17.191 103.282 17.4034L103.181 17.5076L97.4965 24.589L95.5604 22.6541C95.2809 22.3749 94.8278 22.3746 94.5484 22.6539C94.2688 22.9335 94.2694 23.3871 94.5489 23.6666L97.049 26.1665C97.1928 26.3101 97.391 26.386 97.594 26.3749C97.7969 26.3637 97.9857 26.2667 98.1129 26.1082L104.298 18.4029L104.376 18.2821ZM108.462 18.2818C108.614 17.9856 108.543 17.6137 108.273 17.3971C108.004 17.1807 107.625 17.1913 107.369 17.4037L107.267 17.5073L101.582 24.5887L101.147 24.1538C100.867 23.8745 100.414 23.8749 100.134 24.1544C99.89 24.3989 99.8597 24.7764 100.043 25.0542L100.135 25.167L101.135 26.1661C101.279 26.31 101.477 26.3856 101.68 26.3746C101.883 26.3634 102.071 26.2665 102.199 26.1079L108.384 18.4026L108.462 18.2818Z" fill="#007BFC"/>
</svg>
