<svg width="228" height="56" viewBox="0 0 228 56" fill="none" xmlns="http://www.w3.org/2000/svg">
<rect x="0.660034" y="0.660156" width="219" height="54" rx="12" fill="#D0FECF"/>
<rect x="0.330034" y="0.330156" width="219.66" height="54.66" rx="12.33" stroke="black" stroke-opacity="0.06" stroke-width="0.66"/>
<path d="M219.66 40.6602L219.66 36.6602H212.16V50.6602C215.819 53.9129 222.785 54.5206 225.26 54.6341C225.567 54.6482 225.725 54.2622 225.508 54.0442C223.86 52.3872 219.66 47.4929 219.66 40.6602Z" fill="#D0FECF"/>
<mask id="mask0_2002_4230" style="mask-type:alpha" maskUnits="userSpaceOnUse" x="213" y="38" width="15" height="19">
<path d="M227.16 56.6602H213.66V53.8047C215.926 52.5848 217.77 50.7042 218.94 48.4072C220.064 46.2014 220.27 43.4401 220.308 38.6602H227.16V56.6602Z" fill="#8B1A1A"/>
</mask>
<g mask="url(#mask0_2002_4230)">
<path d="M219.66 40.6602L219.66 36.6602H212.16V50.6602C215.819 53.9129 222.785 54.5206 225.26 54.6341C225.567 54.6482 225.725 54.2622 225.508 54.0442C223.86 52.3872 219.66 47.4929 219.66 40.6602Z" fill="#D0FECF"/>
<path d="M219.99 36.3301V40.6602C219.99 47.36 224.114 52.1737 225.742 53.8115C226.151 54.2228 225.881 54.9929 225.245 54.9639C223.997 54.9066 221.615 54.7252 219.081 54.1465C216.554 53.5696 213.832 52.589 211.94 50.9072L211.83 50.8086V36.3301H219.99Z" stroke="black" stroke-opacity="0.06" stroke-width="0.66"/>
</g>
<path d="M12.0796 22.1602V11.0276H13.692L17.5031 20.3163H17.6265L21.4377 11.0276H23.0501V22.1602H21.754V13.6584H21.6691L18.1511 22.1602H16.9785L13.4605 13.6584H13.3757V22.1602H12.0796ZM28.9085 22.3067C26.5324 22.3067 25.0974 20.6403 25.0974 18.0327V18.025C25.0974 15.456 26.5632 13.697 28.8237 13.697C31.0841 13.697 32.4574 15.3788 32.4574 17.863V18.3876H26.4706C26.5092 20.108 27.4581 21.1109 28.9394 21.1109C30.0658 21.1109 30.7601 20.5786 30.9838 20.0771L31.0147 20.0077H32.3571L32.3416 20.0694C32.0562 21.1958 30.8681 22.3067 28.9085 22.3067ZM28.816 14.8928C27.5816 14.8928 26.6404 15.7337 26.4938 17.3152H31.0918C30.953 15.672 30.0426 14.8928 28.816 14.8928ZM38.5733 24.9375V13.8436H39.9157V15.1705H40.0391C40.5483 14.2447 41.4741 13.697 42.6313 13.697C44.7375 13.697 46.1184 15.402 46.1184 17.9941V18.0096C46.1184 20.6172 44.7452 22.3067 42.6313 22.3067C41.4895 22.3067 40.4943 21.7358 40.0391 20.8486H39.9157V24.9375H38.5733ZM42.3227 21.1187C43.8426 21.1187 44.7452 19.946 44.7452 18.0096V17.9941C44.7452 16.0577 43.8426 14.8851 42.3227 14.8851C40.8106 14.8851 39.8848 16.0731 39.8848 17.9941V18.0096C39.8848 19.9306 40.8106 21.1187 42.3227 21.1187ZM50.2951 22.3067C48.7135 22.3067 47.5177 21.3501 47.5177 19.838V19.8226C47.5177 18.3413 48.6132 17.485 50.5497 17.3692L52.9336 17.2227V16.4666C52.9336 15.4405 52.3086 14.8851 51.0666 14.8851C50.0713 14.8851 49.4156 15.2554 49.1996 15.9034L49.1919 15.9266H47.8495L47.8572 15.8803C48.0732 14.5765 49.3384 13.697 51.1128 13.697C53.1419 13.697 54.2759 14.7385 54.2759 16.4666V22.1602H52.9336V20.9335H52.8101C52.2855 21.8207 51.4137 22.3067 50.2951 22.3067ZM48.891 19.8071C48.891 20.648 49.6085 21.1418 50.5728 21.1418C51.9383 21.1418 52.9336 20.2469 52.9336 19.0588V18.3027L50.7117 18.4416C49.4464 18.5187 48.891 18.9662 48.891 19.7917V19.8071ZM56.5239 22.1602V13.8436H57.8662V15.0779H57.9897C58.306 14.2062 59.0852 13.697 60.2115 13.697C60.4661 13.697 60.7516 13.7278 60.8827 13.751V15.0548C60.605 15.0085 60.3504 14.9776 60.0573 14.9776C58.7766 14.9776 57.8662 15.7877 57.8662 17.0066V22.1602H56.5239ZM65.4991 22.3067C63.1229 22.3067 61.688 20.6403 61.688 18.0327V18.025C61.688 15.456 63.1538 13.697 65.4143 13.697C67.6747 13.697 69.0479 15.3788 69.0479 17.863V18.3876H63.0612C63.0998 20.108 64.0487 21.1109 65.53 21.1109C66.6563 21.1109 67.3507 20.5786 67.5744 20.0771L67.6053 20.0077H68.9477L68.9322 20.0694C68.6468 21.1958 67.4587 22.3067 65.4991 22.3067ZM65.4065 14.8928C64.1722 14.8928 63.231 15.7337 63.0844 17.3152H67.6824C67.5436 15.672 66.6332 14.8928 65.4065 14.8928ZM74.3278 22.3067C71.9979 22.3067 70.509 20.6172 70.509 17.9787V17.9633C70.509 15.3788 71.9902 13.697 74.3201 13.697C76.3414 13.697 77.5526 14.8619 77.7995 16.3432L77.8072 16.3895H76.4725L76.4648 16.3663C76.2565 15.5485 75.5159 14.8851 74.3201 14.8851C72.8234 14.8851 71.8822 16.0886 71.8822 17.9633V17.9787C71.8822 19.892 72.8388 21.1187 74.3201 21.1187C75.4387 21.1187 76.1485 20.6249 76.4571 19.6991L76.4725 19.6528L77.7995 19.6451L77.7841 19.73C77.4446 21.2344 76.3259 22.3067 74.3278 22.3067ZM82.9559 22.3067C80.5797 22.3067 79.1448 20.6403 79.1448 18.0327V18.025C79.1448 15.456 80.6106 13.697 82.871 13.697C85.1315 13.697 86.5047 15.3788 86.5047 17.863V18.3876H80.518C80.5566 20.108 81.5055 21.1109 82.9868 21.1109C84.1131 21.1109 84.8075 20.5786 85.0312 20.0771L85.062 20.0077H86.4044L86.389 20.0694C86.1036 21.1958 84.9155 22.3067 82.9559 22.3067ZM82.8633 14.8928C81.6289 14.8928 80.6877 15.7337 80.5412 17.3152H85.1392C85.0003 15.672 84.09 14.8928 82.8633 14.8928ZM92.6207 24.9375V13.8436H93.9631V15.1705H94.0865C94.5957 14.2447 95.5215 13.697 96.6787 13.697C98.7848 13.697 100.166 15.402 100.166 17.9941V18.0096C100.166 20.6172 98.7926 22.3067 96.6787 22.3067C95.5369 22.3067 94.5417 21.7358 94.0865 20.8486H93.9631V24.9375H92.6207ZM96.3701 21.1187C97.8899 21.1187 98.7926 19.946 98.7926 18.0096V17.9941C98.7926 16.0577 97.8899 14.8851 96.3701 14.8851C94.858 14.8851 93.9322 16.0731 93.9322 17.9941V18.0096C93.9322 19.9306 94.858 21.1187 96.3701 21.1187ZM105.453 22.3067C103.077 22.3067 101.642 20.6403 101.642 18.0327V18.025C101.642 15.456 103.108 13.697 105.369 13.697C107.629 13.697 109.002 15.3788 109.002 17.863V18.3876H103.015C103.054 20.108 104.003 21.1109 105.484 21.1109C106.611 21.1109 107.305 20.5786 107.529 20.0771L107.56 20.0077H108.902L108.886 20.0694C108.601 21.1958 107.413 22.3067 105.453 22.3067ZM105.361 14.8928C104.126 14.8928 103.185 15.7337 103.039 17.3152H107.637C107.498 15.672 106.587 14.8928 105.361 14.8928ZM110.88 22.1602V13.8436H112.222V15.0779H112.346C112.662 14.2062 113.441 13.697 114.567 13.697C114.822 13.697 115.108 13.7278 115.239 13.751V15.0548C114.961 15.0085 114.706 14.9776 114.413 14.9776C113.133 14.9776 112.222 15.7877 112.222 17.0066V22.1602H110.88ZM117.71 22.1602V14.9545H116.329V13.8436H117.71V12.9178C117.71 11.2591 118.544 10.4645 120.125 10.4645C120.449 10.4645 120.742 10.4876 121.02 10.5416V11.614C120.858 11.5831 120.634 11.5754 120.395 11.5754C119.438 11.5754 119.053 12.046 119.053 12.9563V13.8436H120.943V14.9545H119.053V22.1602H117.71ZM125.714 22.3067C123.337 22.3067 121.902 20.6403 121.902 18.0327V18.025C121.902 15.456 123.368 13.697 125.629 13.697C127.889 13.697 129.262 15.3788 129.262 17.863V18.3876H123.276C123.314 20.108 124.263 21.1109 125.744 21.1109C126.871 21.1109 127.565 20.5786 127.789 20.0771L127.82 20.0077H129.162L129.147 20.0694C128.861 21.1958 127.673 22.3067 125.714 22.3067ZM125.621 14.8928C124.387 14.8928 123.445 15.7337 123.299 17.3152H127.897C127.758 15.672 126.848 14.8928 125.621 14.8928ZM134.542 22.3067C132.212 22.3067 130.723 20.6172 130.723 17.9787V17.9633C130.723 15.3788 132.205 13.697 134.535 13.697C136.556 13.697 137.767 14.8619 138.014 16.3432L138.022 16.3895H136.687L136.679 16.3663C136.471 15.5485 135.73 14.8851 134.535 14.8851C133.038 14.8851 132.097 16.0886 132.097 17.9633V17.9787C132.097 19.892 133.053 21.1187 134.535 21.1187C135.653 21.1187 136.363 20.6249 136.672 19.6991L136.687 19.6528L138.014 19.6451L137.998 19.73C137.659 21.2344 136.54 22.3067 134.542 22.3067ZM142.885 22.2219C141.172 22.2219 140.455 21.5893 140.455 20V14.9545H139.143V13.8436H140.455V11.6911H141.843V13.8436H143.664V14.9545H141.843V19.6605C141.843 20.6403 142.183 21.0338 143.047 21.0338C143.286 21.0338 143.417 21.0261 143.664 21.0029V22.1447C143.402 22.191 143.147 22.2219 142.885 22.2219ZM148.759 22.3067C146.39 22.3067 144.924 20.6712 144.924 18.0096V17.9941C144.924 15.3248 146.39 13.697 148.759 13.697C151.127 13.697 152.593 15.3248 152.593 17.9941V18.0096C152.593 20.6712 151.127 22.3067 148.759 22.3067ZM148.759 21.1187C150.333 21.1187 151.22 19.9691 151.22 18.0096V17.9941C151.22 16.0269 150.333 14.8851 148.759 14.8851C147.185 14.8851 146.298 16.0269 146.298 17.9941V18.0096C146.298 19.9691 147.185 21.1187 148.759 21.1187ZM160.993 22.3067C159.411 22.3067 158.215 21.3501 158.215 19.838V19.8226C158.215 18.3413 159.311 17.485 161.247 17.3692L163.631 17.2227V16.4666C163.631 15.4405 163.006 14.8851 161.764 14.8851C160.769 14.8851 160.113 15.2554 159.897 15.9034L159.889 15.9266H158.547L158.555 15.8803C158.771 14.5765 160.036 13.697 161.81 13.697C163.839 13.697 164.973 14.7385 164.973 16.4666V22.1602H163.631V20.9335H163.508C162.983 21.8207 162.111 22.3067 160.993 22.3067ZM159.588 19.8071C159.588 20.648 160.306 21.1418 161.27 21.1418C162.636 21.1418 163.631 20.2469 163.631 19.0588V18.3027L161.409 18.4416C160.144 18.5187 159.588 18.9662 159.588 19.7917V19.8071ZM171.537 22.1602V10.5416H172.879V22.1602H171.537ZM177.534 22.3067C175.953 22.3067 174.757 21.3501 174.757 19.838V19.8226C174.757 18.3413 175.852 17.485 177.789 17.3692L180.173 17.2227V16.4666C180.173 15.4405 179.548 14.8851 178.306 14.8851C177.31 14.8851 176.655 15.2554 176.439 15.9034L176.431 15.9266H175.089L175.096 15.8803C175.312 14.5765 176.578 13.697 178.352 13.697C180.381 13.697 181.515 14.7385 181.515 16.4666V22.1602H180.173V20.9335H180.049C179.525 21.8207 178.653 22.3067 177.534 22.3067ZM176.13 19.8071C176.13 20.648 176.848 21.1418 177.812 21.1418C179.177 21.1418 180.173 20.2469 180.173 19.0588V18.3027L177.951 18.4416C176.686 18.5187 176.13 18.9662 176.13 19.7917V19.8071ZM186.617 22.3067C184.766 22.3067 183.493 21.4118 183.339 20.0386H184.712C184.936 20.7329 185.599 21.1881 186.664 21.1881C187.782 21.1881 188.577 20.6558 188.577 19.8997V19.8843C188.577 19.3211 188.153 18.9276 187.127 18.6808L185.838 18.3722C184.28 18.0019 183.578 17.3229 183.578 16.1271V16.1194C183.578 14.7385 184.905 13.697 186.671 13.697C188.415 13.697 189.626 14.5687 189.811 15.9266H188.492C188.315 15.2708 187.667 14.8156 186.664 14.8156C185.676 14.8156 184.951 15.3248 184.951 16.0577V16.0731C184.951 16.6363 185.368 16.9912 186.347 17.2304L187.628 17.539C189.194 17.917 189.95 18.5959 189.95 19.784V19.7994C189.95 21.2807 188.508 22.3067 186.617 22.3067ZM199.715 22.4225C197.64 22.4225 196.159 21.0878 195.997 19.3057L195.989 19.2208H197.324L197.331 19.2825C197.463 20.3472 198.427 21.1958 199.731 21.1958C201.212 21.1958 202.23 20.1389 202.23 18.6345V18.619C202.23 17.1378 201.197 16.0809 199.754 16.0809C199.013 16.0809 198.381 16.3046 197.902 16.7598C197.71 16.9449 197.532 17.1609 197.393 17.4232H196.19L196.776 11.0276H202.971V12.2697H197.872L197.493 16.0346H197.617C198.111 15.2862 198.982 14.8773 199.993 14.8773C202.084 14.8773 203.588 16.4435 203.588 18.5959V18.6113C203.588 20.8563 201.976 22.4225 199.715 22.4225ZM206.191 18.457L206.06 11.0199H207.603L207.472 18.457H206.191ZM206.839 22.299C206.214 22.299 205.767 21.8516 205.767 21.2267C205.767 20.594 206.214 20.1466 206.839 20.1466C207.464 20.1466 207.904 20.594 207.904 21.2267C207.904 21.8516 207.464 22.299 206.839 22.299Z" fill="#0A0A0A"/>
<path d="M165.562 46.6602V39.9839H165.476L163.505 41.4126V40.3921L165.567 38.9097H166.529V46.6602H165.562ZM172.058 46.8428C170.64 46.8428 169.141 45.8438 169.141 42.9272V42.9165C169.141 40.2739 170.242 38.7271 172.122 38.7271C173.422 38.7271 174.389 39.4897 174.652 40.6338L174.668 40.7036H173.696L173.674 40.6445C173.438 39.9946 172.896 39.5918 172.111 39.5918C170.704 39.5918 170.129 40.9668 170.07 42.5835C170.065 42.6426 170.065 42.707 170.065 42.7661H170.167C170.452 42.1323 171.182 41.5684 172.23 41.5684C173.685 41.5684 174.77 42.6748 174.77 44.1626V44.1733C174.77 45.7202 173.621 46.8428 172.058 46.8428ZM170.296 44.1626C170.296 45.1831 171.064 45.9888 172.047 45.9888C173.019 45.9888 173.798 45.1992 173.798 44.1948V44.1841C173.798 43.1528 173.067 42.4116 172.063 42.4116C171.059 42.4116 170.296 43.1475 170.296 44.1572V44.1626ZM177.64 41.4019C177.259 41.4019 176.942 41.085 176.942 40.7036C176.942 40.3169 177.259 40.0054 177.64 40.0054C178.027 40.0054 178.339 40.3169 178.339 40.7036C178.339 41.085 178.027 41.4019 177.64 41.4019ZM177.64 45.5591C177.259 45.5591 176.942 45.2422 176.942 44.8608C176.942 44.4741 177.259 44.1626 177.64 44.1626C178.027 44.1626 178.339 44.4741 178.339 44.8608C178.339 45.2422 178.027 45.5591 177.64 45.5591ZM182.584 46.6602V39.9839H182.498L180.527 41.4126V40.3921L182.589 38.9097H183.551V46.6602H182.584ZM189.88 46.6602V45.0542H186.104V44.1733C187.151 42.417 188.339 40.5264 189.423 38.9097H190.825V44.1895H191.926V45.0542H190.825V46.6602H189.88ZM187.092 44.1948H189.885V39.8066H189.821C188.951 41.1064 187.936 42.707 187.092 44.1304V44.1948Z" fill="black" fill-opacity="0.5"/>
<path fill-rule="evenodd" clip-rule="evenodd" d="M205.376 39.2821C205.529 38.9859 205.457 38.6134 205.187 38.3968C204.917 38.1805 204.539 38.191 204.282 38.4034L204.181 38.5076L198.496 45.589L196.56 43.6541C196.281 43.3749 195.828 43.3746 195.548 43.6539C195.269 43.9335 195.269 44.3871 195.549 44.6666L198.049 47.1665C198.193 47.3101 198.391 47.386 198.594 47.3749C198.797 47.3637 198.986 47.2667 199.113 47.1082L205.298 39.4029L205.376 39.2821ZM209.462 39.2818C209.614 38.9856 209.543 38.6137 209.273 38.3971C209.004 38.1807 208.625 38.1913 208.369 38.4037L208.267 38.5073L202.582 45.5887L202.147 45.1538C201.867 44.8745 201.414 44.8749 201.134 45.1544C200.89 45.3989 200.86 45.7764 201.043 46.0542L201.135 46.167L202.135 47.1661C202.279 47.31 202.477 47.3856 202.68 47.3746C202.883 47.3634 203.071 47.2665 203.199 47.1079L209.384 39.4026L209.462 39.2818Z" fill="#007BFC"/>
</svg>
