<svg width="224" height="56" viewBox="0 0 224 56" fill="none" xmlns="http://www.w3.org/2000/svg">
<rect x="0.660034" y="0.660156" width="222" height="54" rx="12" fill="white"/>
<rect x="0.330034" y="0.330156" width="222.66" height="54.66" rx="12.33" stroke="black" stroke-opacity="0.06" stroke-width="0.66"/>
<path d="M12.0796 22.1602V11.0276H13.4682V15.8417H19.5784V11.0276H20.9671V22.1602H19.5784V17.0915H13.4682V22.1602H12.0796ZM26.8487 22.3067C24.4802 22.3067 23.0144 20.6712 23.0144 18.0096V17.9941C23.0144 15.3248 24.4802 13.697 26.8487 13.697C29.2171 13.697 30.683 15.3248 30.683 17.9941V18.0096C30.683 20.6712 29.2171 22.3067 26.8487 22.3067ZM26.8487 21.1187C28.4225 21.1187 29.3097 19.9691 29.3097 18.0096V17.9941C29.3097 16.0269 28.4225 14.8851 26.8487 14.8851C25.2748 14.8851 24.3876 16.0269 24.3876 17.9941V18.0096C24.3876 19.9691 25.2748 21.1187 26.8487 21.1187ZM32.6377 22.1602V10.5416H33.9801V22.1602H32.6377ZM38.635 22.3067C37.0535 22.3067 35.8577 21.3501 35.8577 19.838V19.8226C35.8577 18.3413 36.9532 17.485 38.8896 17.3692L41.2735 17.2227V16.4666C41.2735 15.4405 40.6486 14.8851 39.4065 14.8851C38.4113 14.8851 37.7556 15.2554 37.5395 15.9034L37.5318 15.9266H36.1894L36.1972 15.8803C36.4132 14.5765 37.6784 13.697 39.4528 13.697C41.4818 13.697 42.6159 14.7385 42.6159 16.4666V22.1602H41.2735V20.9335H41.1501C40.6255 21.8207 39.7537 22.3067 38.635 22.3067ZM37.2309 19.8071C37.2309 20.648 37.9484 21.1418 38.9128 21.1418C40.2783 21.1418 41.2735 20.2469 41.2735 19.0588V18.3027L39.0516 18.4416C37.7864 18.5187 37.2309 18.9662 37.2309 19.7917V19.8071ZM52.489 22.1602L48.3847 11.0276H49.8428L53.1139 20.3626H53.2373L56.5084 11.0276H57.9665L53.8622 22.1602H52.489ZM60.253 12.2389C59.7438 12.2389 59.3272 11.8223 59.3272 11.3131C59.3272 10.8039 59.7438 10.3873 60.253 10.3873C60.7622 10.3873 61.1788 10.8039 61.1788 11.3131C61.1788 11.8223 60.7622 12.2389 60.253 12.2389ZM59.5741 22.1602V13.8436H60.9165V22.1602H59.5741ZM66.6438 22.3067C64.3139 22.3067 62.825 20.6172 62.825 17.9787V17.9633C62.825 15.3788 64.3062 13.697 66.6361 13.697C68.6574 13.697 69.8686 14.8619 70.1155 16.3432L70.1232 16.3895H68.7885L68.7808 16.3663C68.5725 15.5485 67.8319 14.8851 66.6361 14.8851C65.1394 14.8851 64.1982 16.0886 64.1982 17.9633V17.9787C64.1982 19.892 65.1549 21.1187 66.6361 21.1187C67.7548 21.1187 68.4645 20.6249 68.7731 19.6991L68.7885 19.6528L70.1155 19.6451L70.1001 19.73C69.7606 21.2344 68.642 22.3067 66.6438 22.3067ZM74.9865 22.2219C73.2738 22.2219 72.5563 21.5893 72.5563 20V14.9545H71.2448V13.8436H72.5563V11.6911H73.945V13.8436H75.7657V14.9545H73.945V19.6605C73.945 20.6403 74.2844 21.0338 75.1485 21.0338C75.3876 21.0338 75.5188 21.0261 75.7657 21.0029V22.1447C75.5034 22.191 75.2488 22.2219 74.9865 22.2219ZM80.8604 22.3067C78.4919 22.3067 77.0261 20.6712 77.0261 18.0096V17.9941C77.0261 15.3248 78.4919 13.697 80.8604 13.697C83.2288 13.697 84.6946 15.3248 84.6946 17.9941V18.0096C84.6946 20.6712 83.2288 22.3067 80.8604 22.3067ZM80.8604 21.1187C82.4342 21.1187 83.3214 19.9691 83.3214 18.0096V17.9941C83.3214 16.0269 82.4342 14.8851 80.8604 14.8851C79.2865 14.8851 78.3993 16.0269 78.3993 17.9941V18.0096C78.3993 19.9691 79.2865 21.1187 80.8604 21.1187ZM86.5722 22.1602V13.8436H87.9146V15.0779H88.0381C88.3544 14.2062 89.1336 13.697 90.2599 13.697C90.5145 13.697 90.8 13.7278 90.9311 13.751V15.0548C90.6534 15.0085 90.3988 14.9776 90.1056 14.9776C88.825 14.9776 87.9146 15.7877 87.9146 17.0066V22.1602H86.5722ZM92.9476 18.457L92.8165 11.0199H94.3594L94.2283 18.457H92.9476ZM93.5957 22.299C92.9708 22.299 92.5233 21.8516 92.5233 21.2267C92.5233 20.594 92.9708 20.1466 93.5957 20.1466C94.2206 20.1466 94.6603 20.594 94.6603 21.2267C94.6603 21.8516 94.2206 22.299 93.5957 22.299ZM104.194 22.3067C102.342 22.3067 101.069 21.4118 100.915 20.0386H102.288C102.512 20.7329 103.176 21.1881 104.24 21.1881C105.359 21.1881 106.154 20.6558 106.154 19.8997V19.8843C106.154 19.3211 105.729 18.9276 104.703 18.6808L103.415 18.3722C101.856 18.0019 101.154 17.3229 101.154 16.1271V16.1194C101.154 14.7385 102.481 13.697 104.248 13.697C105.991 13.697 107.203 14.5687 107.388 15.9266H106.069C105.891 15.2708 105.243 14.8156 104.24 14.8156C103.253 14.8156 102.528 15.3248 102.528 16.0577V16.0731C102.528 16.6363 102.944 16.9912 103.924 17.2304L105.205 17.539C106.771 17.917 107.527 18.5959 107.527 19.784V19.7994C107.527 21.2807 106.084 22.3067 104.194 22.3067ZM112.822 22.3067C110.454 22.3067 108.988 20.6712 108.988 18.0096V17.9941C108.988 15.3248 110.454 13.697 112.822 13.697C115.19 13.697 116.656 15.3248 116.656 17.9941V18.0096C116.656 20.6712 115.19 22.3067 112.822 22.3067ZM112.822 21.1187C114.396 21.1187 115.283 19.9691 115.283 18.0096V17.9941C115.283 16.0269 114.396 14.8851 112.822 14.8851C111.248 14.8851 110.361 16.0269 110.361 17.9941V18.0096C110.361 19.9691 111.248 21.1187 112.822 21.1187ZM118.534 22.1602V13.8436H119.876V15.1088H120C120.37 14.2139 121.157 13.697 122.245 13.697C123.371 13.697 124.158 14.291 124.544 15.1551H124.667C125.115 14.2756 126.064 13.697 127.213 13.697C128.91 13.697 129.859 14.669 129.859 16.4126V22.1602H128.517V16.7212C128.517 15.4945 127.954 14.8851 126.781 14.8851C125.624 14.8851 124.86 15.7568 124.86 16.8138V22.1602H123.518V16.5129C123.518 15.5254 122.839 14.8851 121.79 14.8851C120.702 14.8851 119.876 15.834 119.876 17.0066V22.1602H118.534ZM135.494 22.3067C133.126 22.3067 131.66 20.6712 131.66 18.0096V17.9941C131.66 15.3248 133.126 13.697 135.494 13.697C137.862 13.697 139.328 15.3248 139.328 17.9941V18.0096C139.328 20.6712 137.862 22.3067 135.494 22.3067ZM135.494 21.1187C137.068 21.1187 137.955 19.9691 137.955 18.0096V17.9941C137.955 16.0269 137.068 14.8851 135.494 14.8851C133.92 14.8851 133.033 16.0269 133.033 17.9941V18.0096C133.033 19.9691 133.92 21.1187 135.494 21.1187ZM144.06 22.3067C142.209 22.3067 140.936 21.4118 140.782 20.0386H142.155C142.379 20.7329 143.042 21.1881 144.107 21.1881C145.225 21.1881 146.02 20.6558 146.02 19.8997V19.8843C146.02 19.3211 145.596 18.9276 144.57 18.6808L143.281 18.3722C141.723 18.0019 141.021 17.3229 141.021 16.1271V16.1194C141.021 14.7385 142.348 13.697 144.114 13.697C145.858 13.697 147.069 14.5687 147.254 15.9266H145.935C145.758 15.2708 145.11 14.8156 144.107 14.8156C143.119 14.8156 142.394 15.3248 142.394 16.0577V16.0731C142.394 16.6363 142.811 16.9912 143.79 17.2304L145.071 17.539C146.637 17.917 147.393 18.5959 147.393 19.784V19.7994C147.393 21.2807 145.951 22.3067 144.06 22.3067ZM152.792 22.1602L156.896 11.0276H158.269L162.374 22.1602H160.915L159.797 18.9739H155.368L154.25 22.1602H152.792ZM157.521 12.8252L155.777 17.7936H159.388L157.644 12.8252H157.521ZM163.95 22.1602V13.8436H165.293V15.0934H165.416C165.833 14.2139 166.612 13.697 167.839 13.697C169.706 13.697 170.747 14.8002 170.747 16.7752V22.1602H169.405V17.0992C169.405 15.6025 168.787 14.8851 167.461 14.8851C166.134 14.8851 165.293 15.78 165.293 17.2381V22.1602H163.95ZM175.927 22.2219C174.214 22.2219 173.496 21.5893 173.496 20V14.9545H172.185V13.8436H173.496V11.6911H174.885V13.8436H176.706V14.9545H174.885V19.6605C174.885 20.6403 175.225 21.0338 176.089 21.0338C176.328 21.0338 176.459 21.0261 176.706 21.0029V22.1447C176.444 22.191 176.189 22.2219 175.927 22.2219ZM178.583 22.1602V10.5416H179.926V15.0934H180.049C180.466 14.2139 181.245 13.697 182.472 13.697C184.339 13.697 185.38 14.8002 185.38 16.7752V22.1602H184.038V17.0992C184.038 15.6025 183.421 14.8851 182.094 14.8851C180.767 14.8851 179.926 15.78 179.926 17.2381V22.1602H178.583ZM189.889 22.3067C188.307 22.3067 187.111 21.3501 187.111 19.838V19.8226C187.111 18.3413 188.207 17.485 190.143 17.3692L192.527 17.2227V16.4666C192.527 15.4405 191.902 14.8851 190.66 14.8851C189.665 14.8851 189.009 15.2554 188.793 15.9034L188.785 15.9266H187.443L187.451 15.8803C187.667 14.5765 188.932 13.697 190.706 13.697C192.735 13.697 193.869 14.7385 193.869 16.4666V22.1602H192.527V20.9335H192.404C191.879 21.8207 191.007 22.3067 189.889 22.3067ZM188.484 19.8071C188.484 20.648 189.202 21.1418 190.166 21.1418C191.532 21.1418 192.527 20.2469 192.527 19.0588V18.3027L190.305 18.4416C189.04 18.5187 188.484 18.9662 188.484 19.7917V19.8071ZM196.117 22.1602V13.8436H197.46V15.0934H197.583C198 14.2139 198.779 13.697 200.006 13.697C201.873 13.697 202.914 14.8002 202.914 16.7752V22.1602H201.572V17.0992C201.572 15.6025 200.955 14.8851 199.628 14.8851C198.301 14.8851 197.46 15.78 197.46 17.2381V22.1602H196.117ZM207.422 22.3067C205.841 22.3067 204.645 21.3501 204.645 19.838V19.8226C204.645 18.3413 205.741 17.485 207.677 17.3692L210.061 17.2227V16.4666C210.061 15.4405 209.436 14.8851 208.194 14.8851C207.199 14.8851 206.543 15.2554 206.327 15.9034L206.319 15.9266H204.977L204.985 15.8803C205.201 14.5765 206.466 13.697 208.24 13.697C210.269 13.697 211.403 14.7385 211.403 16.4666V22.1602H210.061V20.9335H209.938C209.413 21.8207 208.541 22.3067 207.422 22.3067ZM206.018 19.8071C206.018 20.648 206.736 21.1418 207.7 21.1418C209.066 21.1418 210.061 20.2469 210.061 19.0588V18.3027L207.839 18.4416C206.574 18.5187 206.018 18.9662 206.018 19.7917V19.8071Z" fill="#0A0A0A"/>
<path d="M184.744 46.6602V39.9839H184.659L182.687 41.4126V40.3921L184.75 38.9097H185.711V46.6602H184.744ZM191.24 46.8428C189.822 46.8428 188.324 45.8438 188.324 42.9272V42.9165C188.324 40.2739 189.425 38.7271 191.305 38.7271C192.605 38.7271 193.571 39.4897 193.834 40.6338L193.851 40.7036H192.878L192.857 40.6445C192.621 39.9946 192.078 39.5918 191.294 39.5918C189.887 39.5918 189.312 40.9668 189.253 42.5835C189.248 42.6426 189.248 42.707 189.248 42.7661H189.35C189.634 42.1323 190.365 41.5684 191.412 41.5684C192.868 41.5684 193.953 42.6748 193.953 44.1626V44.1733C193.953 45.7202 192.803 46.8428 191.24 46.8428ZM189.479 44.1626C189.479 45.1831 190.247 45.9888 191.23 45.9888C192.202 45.9888 192.98 45.1992 192.98 44.1948V44.1841C192.98 43.1528 192.25 42.4116 191.246 42.4116C190.241 42.4116 189.479 43.1475 189.479 44.1572V44.1626ZM196.823 41.4019C196.442 41.4019 196.125 41.085 196.125 40.7036C196.125 40.3169 196.442 40.0054 196.823 40.0054C197.21 40.0054 197.521 40.3169 197.521 40.7036C197.521 41.085 197.21 41.4019 196.823 41.4019ZM196.823 45.5591C196.442 45.5591 196.125 45.2422 196.125 44.8608C196.125 44.4741 196.442 44.1626 196.823 44.1626C197.21 44.1626 197.521 44.4741 197.521 44.8608C197.521 45.2422 197.21 45.5591 196.823 45.5591ZM201.767 46.6602V39.9839H201.681L199.709 41.4126V40.3921L201.772 38.9097H202.733V46.6602H201.767ZM208.16 46.7891C206.56 46.7891 205.523 45.8975 205.421 44.6729L205.416 44.6084H206.345L206.35 44.6621C206.425 45.4248 207.129 45.9512 208.16 45.9512C209.175 45.9512 209.868 45.3818 209.868 44.5601V44.5493C209.868 43.5986 209.186 43.0669 208.101 43.0669H207.129V42.2505H208.058C208.982 42.2505 209.627 41.6812 209.627 40.9077V40.897C209.627 40.0859 209.095 39.6187 208.15 39.6187C207.236 39.6187 206.587 40.1021 206.506 40.8862L206.501 40.9399H205.571L205.577 40.8862C205.7 39.624 206.699 38.7808 208.15 38.7808C209.627 38.7808 210.599 39.6025 210.599 40.7788V40.7896C210.599 41.7456 209.922 42.4009 208.955 42.605V42.6265C210.083 42.7231 210.851 43.4268 210.851 44.5278V44.5386C210.851 45.833 209.713 46.7891 208.16 46.7891Z" fill="black" fill-opacity="0.5"/>
</svg>
