<svg width="244" height="56" viewBox="0 0 244 56" fill="none" xmlns="http://www.w3.org/2000/svg">
<rect x="0.660034" y="0.660156" width="242" height="54" rx="12" fill="white"/>
<rect x="0.330034" y="0.330156" width="242.66" height="54.66" rx="12.33" stroke="black" stroke-opacity="0.06" stroke-width="0.66"/>
<path d="M12.0796 22.1602V11.0276H13.4297L19.4704 19.6914H19.5938V11.0276H20.9671V22.1602H19.617L13.5762 13.5272H13.4528V22.1602H12.0796ZM26.8487 22.3067C24.4802 22.3067 23.0144 20.6712 23.0144 18.0096V17.9941C23.0144 15.3248 24.4802 13.697 26.8487 13.697C29.2171 13.697 30.683 15.3248 30.683 17.9941V18.0096C30.683 20.6712 29.2171 22.3067 26.8487 22.3067ZM26.8487 21.1187C28.4225 21.1187 29.3097 19.9691 29.3097 18.0096V17.9941C29.3097 16.0269 28.4225 14.8851 26.8487 14.8851C25.2748 14.8851 24.3876 16.0269 24.3876 17.9941V18.0096C24.3876 19.9691 25.2748 21.1187 26.8487 21.1187ZM35.5153 22.2219C33.8027 22.2219 33.0852 21.5893 33.0852 20V14.9545H31.7736V13.8436H33.0852V11.6911H34.4738V13.8436H36.2945V14.9545H34.4738V19.6605C34.4738 20.6403 34.8133 21.0338 35.6774 21.0338C35.9165 21.0338 36.0477 21.0261 36.2945 21.0029V22.1447C36.0322 22.191 35.7777 22.2219 35.5153 22.2219ZM40.3786 22.3067C38.7971 22.3067 37.6013 21.3501 37.6013 19.838V19.8226C37.6013 18.3413 38.6968 17.485 40.6332 17.3692L43.0171 17.2227V16.4666C43.0171 15.4405 42.3922 14.8851 41.1501 14.8851C40.1549 14.8851 39.4991 15.2554 39.2831 15.9034L39.2754 15.9266H37.933L37.9407 15.8803C38.1567 14.5765 39.422 13.697 41.1964 13.697C43.2254 13.697 44.3595 14.7385 44.3595 16.4666V22.1602H43.0171V20.9335H42.8936C42.369 21.8207 41.4973 22.3067 40.3786 22.3067ZM38.9745 19.8071C38.9745 20.648 39.692 21.1418 40.6563 21.1418C42.0219 21.1418 43.0171 20.2469 43.0171 19.0588V18.3027L40.7952 18.4416C39.53 18.5187 38.9745 18.9662 38.9745 19.7917V19.8071ZM46.6074 22.1602V13.8436H47.9498V15.1088H48.0732C48.4435 14.2139 49.2304 13.697 50.3182 13.697C51.4446 13.697 52.2315 14.291 52.6172 15.1551H52.7407C53.1881 14.2756 54.1371 13.697 55.2866 13.697C56.9838 13.697 57.9328 14.669 57.9328 16.4126V22.1602H56.5904V16.7212C56.5904 15.4945 56.0272 14.8851 54.8545 14.8851C53.6973 14.8851 52.9336 15.7568 52.9336 16.8138V22.1602H51.5912V16.5129C51.5912 15.5254 50.9123 14.8851 49.863 14.8851C48.7753 14.8851 47.9498 15.834 47.9498 17.0066V22.1602H46.6074ZM63.5675 22.3067C61.199 22.3067 59.7332 20.6712 59.7332 18.0096V17.9941C59.7332 15.3248 61.199 13.697 63.5675 13.697C65.936 13.697 67.4018 15.3248 67.4018 17.9941V18.0096C67.4018 20.6712 65.936 22.3067 63.5675 22.3067ZM63.5675 21.1187C65.1413 21.1187 66.0285 19.9691 66.0285 18.0096V17.9941C66.0285 16.0269 65.1413 14.8851 63.5675 14.8851C61.9937 14.8851 61.1065 16.0269 61.1065 17.9941V18.0096C61.1065 19.9691 61.9937 21.1187 63.5675 21.1187ZM72.1339 22.3067C70.2823 22.3067 69.0094 21.4118 68.8551 20.0386H70.2283C70.452 20.7329 71.1155 21.1881 72.1802 21.1881C73.2988 21.1881 74.0935 20.6558 74.0935 19.8997V19.8843C74.0935 19.3211 73.6691 18.9276 72.6431 18.6808L71.3547 18.3722C69.7963 18.0019 69.0942 17.3229 69.0942 16.1271V16.1194C69.0942 14.7385 70.4212 13.697 72.1879 13.697C73.9314 13.697 75.1427 14.5687 75.3278 15.9266H74.0086C73.8311 15.2708 73.1831 14.8156 72.1802 14.8156C71.1927 14.8156 70.4675 15.3248 70.4675 16.0577V16.0731C70.4675 16.6363 70.8841 16.9912 71.8639 17.2304L73.1445 17.539C74.7106 17.917 75.4667 18.5959 75.4667 19.784V19.7994C75.4667 21.2807 74.024 22.3067 72.1339 22.3067ZM87.3842 24.9375V20.9104H87.2608C86.8056 21.7898 85.849 22.3067 84.6609 22.3067C82.547 22.3067 81.1661 20.6018 81.1661 18.0096V17.9941C81.1661 15.3865 82.5393 13.697 84.6609 13.697C85.7795 13.697 86.7593 14.2833 87.2916 15.2322H87.3842V13.8436H88.7266V24.9375H87.3842ZM84.9772 21.1187C86.4739 21.1187 87.4228 19.9151 87.4228 18.0096V17.9941C87.4228 16.0809 86.4739 14.8851 84.9695 14.8851C83.4496 14.8851 82.5393 16.0577 82.5393 17.9941V18.0096C82.5393 19.946 83.4496 21.1187 84.9772 21.1187ZM93.7904 22.3067C91.9003 22.3067 90.9282 21.1958 90.9282 19.2285V13.8436H92.2706V18.9045C92.2706 20.4012 92.8107 21.1187 94.1376 21.1187C95.6034 21.1187 96.3826 20.2237 96.3826 18.7656V13.8436H97.725V22.1602H96.3826V20.9181H96.2592C95.8503 21.8053 95.0094 22.3067 93.7904 22.3067ZM103.421 22.3067C101.045 22.3067 99.6103 20.6403 99.6103 18.0327V18.025C99.6103 15.456 101.076 13.697 103.337 13.697C105.597 13.697 106.97 15.3788 106.97 17.863V18.3876H100.984C101.022 20.108 101.971 21.1109 103.452 21.1109C104.579 21.1109 105.273 20.5786 105.497 20.0771L105.528 20.0077H106.87L106.855 20.0694C106.569 21.1958 105.381 22.3067 103.421 22.3067ZM103.329 14.8928C102.095 14.8928 101.153 15.7337 101.007 17.3152H105.605C105.466 15.672 104.556 14.8928 103.329 14.8928ZM116.481 22.3067C114.105 22.3067 112.67 20.6403 112.67 18.0327V18.025C112.67 15.456 114.135 13.697 116.396 13.697C118.656 13.697 120.03 15.3788 120.03 17.863V18.3876H114.043C114.081 20.108 115.03 21.1109 116.512 21.1109C117.638 21.1109 118.332 20.5786 118.556 20.0771L118.587 20.0077H119.929L119.914 20.0694C119.628 21.1958 118.44 22.3067 116.481 22.3067ZM116.388 14.8928C115.154 14.8928 114.213 15.7337 114.066 17.3152H118.664C118.525 15.672 117.615 14.8928 116.388 14.8928ZM124.762 22.3067C122.91 22.3067 121.637 21.4118 121.483 20.0386H122.856C123.08 20.7329 123.743 21.1881 124.808 21.1881C125.927 21.1881 126.721 20.6558 126.721 19.8997V19.8843C126.721 19.3211 126.297 18.9276 125.271 18.6808L123.983 18.3722C122.424 18.0019 121.722 17.3229 121.722 16.1271V16.1194C121.722 14.7385 123.049 13.697 124.816 13.697C126.559 13.697 127.77 14.5687 127.956 15.9266H126.636C126.459 15.2708 125.811 14.8156 124.808 14.8156C123.82 14.8156 123.095 15.3248 123.095 16.0577V16.0731C123.095 16.6363 123.512 16.9912 124.492 17.2304L125.772 17.539C127.338 17.917 128.095 18.5959 128.095 19.784V19.7994C128.095 21.2807 126.652 22.3067 124.762 22.3067ZM132.85 22.2219C131.137 22.2219 130.42 21.5893 130.42 20V14.9545H129.108V13.8436H130.42V11.6911H131.808V13.8436H133.629V14.9545H131.808V19.6605C131.808 20.6403 132.148 21.0338 133.012 21.0338C133.251 21.0338 133.382 21.0261 133.629 21.0029V22.1447C133.367 22.191 133.112 22.2219 132.85 22.2219ZM137.713 22.3067C136.131 22.3067 134.936 21.3501 134.936 19.838V19.8226C134.936 18.3413 136.031 17.485 137.968 17.3692L140.351 17.2227V16.4666C140.351 15.4405 139.727 14.8851 138.485 14.8851C137.489 14.8851 136.834 15.2554 136.618 15.9034L136.61 15.9266H135.267L135.275 15.8803C135.491 14.5765 136.756 13.697 138.531 13.697C140.56 13.697 141.694 14.7385 141.694 16.4666V22.1602H140.351V20.9335H140.228C139.703 21.8207 138.832 22.3067 137.713 22.3067ZM136.309 19.8071C136.309 20.648 137.026 21.1418 137.991 21.1418C139.356 21.1418 140.351 20.2469 140.351 19.0588V18.3027L138.13 18.4416C136.864 18.5187 136.309 18.9662 136.309 19.7917V19.8071ZM146.796 22.3067C144.945 22.3067 143.672 21.4118 143.517 20.0386H144.891C145.114 20.7329 145.778 21.1881 146.843 21.1881C147.961 21.1881 148.756 20.6558 148.756 19.8997V19.8843C148.756 19.3211 148.332 18.9276 147.305 18.6808L146.017 18.3722C144.459 18.0019 143.757 17.3229 143.757 16.1271V16.1194C143.757 14.7385 145.084 13.697 146.85 13.697C148.594 13.697 149.805 14.5687 149.99 15.9266H148.671C148.494 15.2708 147.846 14.8156 146.843 14.8156C145.855 14.8156 145.13 15.3248 145.13 16.0577V16.0731C145.13 16.6363 145.546 16.9912 146.526 17.2304L147.807 17.539C149.373 17.917 150.129 18.5959 150.129 19.784V19.7994C150.129 21.2807 148.686 22.3067 146.796 22.3067ZM156.955 12.2389C156.446 12.2389 156.029 11.8223 156.029 11.3131C156.029 10.8039 156.446 10.3873 156.955 10.3873C157.464 10.3873 157.881 10.8039 157.881 11.3131C157.881 11.8223 157.464 12.2389 156.955 12.2389ZM156.276 22.1602V13.8436H157.618V22.1602H156.276ZM159.943 22.1602V13.8436H161.286V15.0934H161.409C161.826 14.2139 162.605 13.697 163.832 13.697C165.699 13.697 166.74 14.8002 166.74 16.7752V22.1602H165.398V17.0992C165.398 15.6025 164.781 14.8851 163.454 14.8851C162.127 14.8851 161.286 15.78 161.286 17.2381V22.1602H159.943ZM171.92 22.2219C170.207 22.2219 169.49 21.5893 169.49 20V14.9545H168.178V13.8436H169.49V11.6911H170.878V13.8436H172.699V14.9545H170.878V19.6605C170.878 20.6403 171.218 21.0338 172.082 21.0338C172.321 21.0338 172.452 21.0261 172.699 21.0029V22.1447C172.437 22.191 172.182 22.2219 171.92 22.2219ZM177.77 22.3067C175.394 22.3067 173.959 20.6403 173.959 18.0327V18.025C173.959 15.456 175.425 13.697 177.686 13.697C179.946 13.697 181.319 15.3788 181.319 17.863V18.3876H175.333C175.371 20.108 176.32 21.1109 177.801 21.1109C178.928 21.1109 179.622 20.5786 179.846 20.0771L179.877 20.0077H181.219L181.204 20.0694C180.918 21.1958 179.73 22.3067 177.77 22.3067ZM177.678 14.8928C176.444 14.8928 175.502 15.7337 175.356 17.3152H179.954C179.815 15.672 178.905 14.8928 177.678 14.8928ZM183.197 22.1602V13.8436H184.539V15.0779H184.663C184.979 14.2062 185.758 13.697 186.885 13.697C187.139 13.697 187.425 13.7278 187.556 13.751V15.0548C187.278 15.0085 187.023 14.9776 186.73 14.9776C185.45 14.9776 184.539 15.7877 184.539 17.0066V22.1602H183.197ZM192.172 22.3067C189.796 22.3067 188.361 20.6403 188.361 18.0327V18.025C188.361 15.456 189.827 13.697 192.087 13.697C194.348 13.697 195.721 15.3788 195.721 17.863V18.3876H189.734C189.773 20.108 190.722 21.1109 192.203 21.1109C193.329 21.1109 194.024 20.5786 194.247 20.0771L194.278 20.0077H195.621L195.605 20.0694C195.32 21.1958 194.132 22.3067 192.172 22.3067ZM192.08 14.8928C190.845 14.8928 189.904 15.7337 189.757 17.3152H194.355C194.217 15.672 193.306 14.8928 192.08 14.8928ZM200.453 22.3067C198.602 22.3067 197.329 21.4118 197.174 20.0386H198.548C198.771 20.7329 199.435 21.1881 200.499 21.1881C201.618 21.1881 202.413 20.6558 202.413 19.8997V19.8843C202.413 19.3211 201.988 18.9276 200.962 18.6808L199.674 18.3722C198.115 18.0019 197.413 17.3229 197.413 16.1271V16.1194C197.413 14.7385 198.74 13.697 200.507 13.697C202.251 13.697 203.462 14.5687 203.647 15.9266H202.328C202.15 15.2708 201.502 14.8156 200.499 14.8156C199.512 14.8156 198.787 15.3248 198.787 16.0577V16.0731C198.787 16.6363 199.203 16.9912 200.183 17.2304L201.464 17.539C203.03 17.917 203.786 18.5959 203.786 19.784V19.7994C203.786 21.2807 202.343 22.3067 200.453 22.3067ZM207.947 22.3067C206.366 22.3067 205.17 21.3501 205.17 19.838V19.8226C205.17 18.3413 206.265 17.485 208.202 17.3692L210.586 17.2227V16.4666C210.586 15.4405 209.961 14.8851 208.719 14.8851C207.723 14.8851 207.068 15.2554 206.852 15.9034L206.844 15.9266H205.502L205.509 15.8803C205.725 14.5765 206.99 13.697 208.765 13.697C210.794 13.697 211.928 14.7385 211.928 16.4666V22.1602H210.586V20.9335H210.462C209.938 21.8207 209.066 22.3067 207.947 22.3067ZM206.543 19.8071C206.543 20.648 207.26 21.1418 208.225 21.1418C209.59 21.1418 210.586 20.2469 210.586 19.0588V18.3027L208.364 18.4416C207.098 18.5187 206.543 18.9662 206.543 19.7917V19.8071ZM217.246 22.3067C215.14 22.3067 213.759 20.6018 213.759 18.0096V17.9941C213.759 15.3865 215.133 13.697 217.246 13.697C218.388 13.697 219.383 14.2679 219.839 15.1551H219.962V10.5416H221.304V22.1602H219.962V20.8332H219.839C219.329 21.759 218.404 22.3067 217.246 22.3067ZM217.555 21.1187C219.067 21.1187 219.993 19.9306 219.993 18.0096V17.9941C219.993 16.0731 219.067 14.8851 217.555 14.8851C216.035 14.8851 215.133 16.0577 215.133 17.9941V18.0096C215.133 19.946 216.035 21.1187 217.555 21.1187ZM227.093 22.3067C224.725 22.3067 223.259 20.6712 223.259 18.0096V17.9941C223.259 15.3248 224.725 13.697 227.093 13.697C229.462 13.697 230.928 15.3248 230.928 17.9941V18.0096C230.928 20.6712 229.462 22.3067 227.093 22.3067ZM227.093 21.1187C228.667 21.1187 229.554 19.9691 229.554 18.0096V17.9941C229.554 16.0269 228.667 14.8851 227.093 14.8851C225.52 14.8851 224.632 16.0269 224.632 17.9941V18.0096C224.632 19.9691 225.52 21.1187 227.093 21.1187ZM15.3044 43.3067C12.9282 43.3067 11.4932 41.6403 11.4932 39.0327V39.025C11.4932 36.456 12.9591 34.697 15.2195 34.697C17.48 34.697 18.8532 36.3788 18.8532 38.863V39.3876H12.8665C12.9051 41.108 13.854 42.1109 15.3352 42.1109C16.4616 42.1109 17.1559 41.5786 17.3797 41.0771L17.4105 41.0077H18.7529L18.7375 41.0694C18.452 42.1958 17.2639 43.3067 15.3044 43.3067ZM15.2118 35.8928C13.9774 35.8928 13.0362 36.7337 12.8896 38.3152H17.4877C17.3488 36.672 16.4385 35.8928 15.2118 35.8928ZM20.7308 43.1602V34.8436H22.0732V36.0934H22.1966C22.6132 35.2139 23.3924 34.697 24.6191 34.697C26.4861 34.697 27.5276 35.8002 27.5276 37.7752V43.1602H26.1852V38.0992C26.1852 36.6025 25.568 35.8851 24.2411 35.8851C22.9141 35.8851 22.0732 36.78 22.0732 38.2381V43.1602H20.7308ZM33.9907 43.1602V34.8436H35.3331V36.0934H35.4565C35.8731 35.2139 36.6523 34.697 37.879 34.697C39.746 34.697 40.7875 35.8002 40.7875 37.7752V43.1602H39.4451V38.0992C39.4451 36.6025 38.8279 35.8851 37.501 35.8851C36.174 35.8851 35.3331 36.78 35.3331 38.2381V43.1602H33.9907ZM45.7973 43.3067C43.9072 43.3067 42.9351 42.1958 42.9351 40.2285V34.8436H44.2775V39.9045C44.2775 41.4012 44.8175 42.1187 46.1445 42.1187C47.6103 42.1187 48.3895 41.2237 48.3895 39.7656V34.8436H49.7319V43.1602H48.3895V41.9181H48.2661C47.8572 42.8053 47.0163 43.3067 45.7973 43.3067ZM55.4283 43.3067C53.0522 43.3067 51.6172 41.6403 51.6172 39.0327V39.025C51.6172 36.456 53.083 34.697 55.3435 34.697C57.6039 34.697 58.9772 36.3788 58.9772 38.863V39.3876H52.9905C53.029 41.108 53.978 42.1109 55.4592 42.1109C56.5856 42.1109 57.2799 41.5786 57.5036 41.0771L57.5345 41.0077H58.8769L58.8615 41.0694C58.576 42.1958 57.3879 43.3067 55.4283 43.3067ZM55.3358 35.8928C54.1014 35.8928 53.1602 36.7337 53.0136 38.3152H57.6116C57.4728 36.672 56.5624 35.8928 55.3358 35.8928ZM63.7093 43.3067C61.8577 43.3067 60.5848 42.4118 60.4305 41.0386H61.8037C62.0274 41.7329 62.6909 42.1881 63.7556 42.1881C64.8742 42.1881 65.6688 41.6558 65.6688 40.8997V40.8843C65.6688 40.3211 65.2445 39.9276 64.2185 39.6808L62.9301 39.3722C61.3717 39.0019 60.6696 38.3229 60.6696 37.1271V37.1194C60.6696 35.7385 61.9966 34.697 63.7633 34.697C65.5068 34.697 66.7181 35.5687 66.9032 36.9266H65.584C65.4065 36.2708 64.7585 35.8156 63.7556 35.8156C62.7681 35.8156 62.0429 36.3248 62.0429 37.0577V37.0731C62.0429 37.6363 62.4595 37.9912 63.4393 38.2304L64.7199 38.539C66.286 38.917 67.0421 39.5959 67.0421 40.784V40.7994C67.0421 42.2807 65.5994 43.3067 63.7093 43.3067ZM71.7973 43.2219C70.0846 43.2219 69.3672 42.5893 69.3672 41V35.9545H68.0556V34.8436H69.3672V32.6911H70.7558V34.8436H72.5765V35.9545H70.7558V40.6605C70.7558 41.6403 71.0953 42.0338 71.9593 42.0338C72.1985 42.0338 72.3297 42.0261 72.5765 42.0029V43.1447C72.3142 43.191 72.0596 43.2219 71.7973 43.2219ZM74.377 43.1602V34.8436H75.7194V36.0779H75.8428C76.1591 35.2062 76.9383 34.697 78.0647 34.697C78.3193 34.697 78.6047 34.7278 78.7359 34.751V36.0548C78.4581 36.0085 78.2036 35.9776 77.9104 35.9776C76.6297 35.9776 75.7194 36.7877 75.7194 38.0066V43.1602H74.377ZM83.3754 43.3067C81.0069 43.3067 79.5411 41.6712 79.5411 39.0096V38.9941C79.5411 36.3248 81.0069 34.697 83.3754 34.697C85.7439 34.697 87.2097 36.3248 87.2097 38.9941V39.0096C87.2097 41.6712 85.7439 43.3067 83.3754 43.3067ZM83.3754 42.1187C84.9492 42.1187 85.8364 40.9691 85.8364 39.0096V38.9941C85.8364 37.0269 84.9492 35.8851 83.3754 35.8851C81.8016 35.8851 80.9144 37.0269 80.9144 38.9941V39.0096C80.9144 40.9691 81.8016 42.1187 83.3754 42.1187ZM91.9418 43.3067C90.0902 43.3067 88.8173 42.4118 88.663 41.0386H90.0362C90.2599 41.7329 90.9234 42.1881 91.9881 42.1881C93.1067 42.1881 93.9013 41.6558 93.9013 40.8997V40.8843C93.9013 40.3211 93.477 39.9276 92.451 39.6808L91.1626 39.3722C89.6042 39.0019 88.9021 38.3229 88.9021 37.1271V37.1194C88.9021 35.7385 90.2291 34.697 91.9958 34.697C93.7393 34.697 94.9506 35.5687 95.1357 36.9266H93.8165C93.639 36.2708 92.991 35.8156 91.9881 35.8156C91.0006 35.8156 90.2754 36.3248 90.2754 37.0577V37.0731C90.2754 37.6363 90.692 37.9912 91.6718 38.2304L92.9524 38.539C94.5185 38.917 95.2746 39.5959 95.2746 40.784V40.7994C95.2746 42.2807 93.8319 43.3067 91.9418 43.3067ZM104.245 43.3067C102.393 43.3067 101.121 42.4118 100.966 41.0386H102.339C102.563 41.7329 103.227 42.1881 104.291 42.1881C105.41 42.1881 106.205 41.6558 106.205 40.8997V40.8843C106.205 40.3211 105.78 39.9276 104.754 39.6808L103.466 39.3722C101.907 39.0019 101.205 38.3229 101.205 37.1271V37.1194C101.205 35.7385 102.532 34.697 104.299 34.697C106.043 34.697 107.254 35.5687 107.439 36.9266H106.12C105.942 36.2708 105.294 35.8156 104.291 35.8156C103.304 35.8156 102.579 36.3248 102.579 37.0577V37.0731C102.579 37.6363 102.995 37.9912 103.975 38.2304L105.256 38.539C106.822 38.917 107.578 39.5959 107.578 40.784V40.7994C107.578 42.2807 106.135 43.3067 104.245 43.3067ZM112.85 43.3067C110.474 43.3067 109.039 41.6403 109.039 39.0327V39.025C109.039 36.456 110.505 34.697 112.765 34.697C115.026 34.697 116.399 36.3788 116.399 38.863V39.3876H110.412C110.451 41.108 111.4 42.1109 112.881 42.1109C114.007 42.1109 114.702 41.5786 114.925 41.0771L114.956 41.0077H116.299L116.283 41.0694C115.998 42.1958 114.81 43.3067 112.85 43.3067ZM112.757 35.8928C111.523 35.8928 110.582 36.7337 110.435 38.3152H115.033C114.894 36.672 113.984 35.8928 112.757 35.8928ZM118.276 43.1602V34.8436H119.619V36.0779H119.742C120.059 35.2062 120.838 34.697 121.964 34.697C122.219 34.697 122.504 34.7278 122.635 34.751V36.0548C122.358 36.0085 122.103 35.9776 121.81 35.9776C120.529 35.9776 119.619 36.7877 119.619 38.0066V43.1602H118.276ZM126.519 43.1602L123.441 34.8436H124.86L127.136 41.6943H127.259L129.535 34.8436H130.955L127.877 43.1602H126.519ZM133.234 33.2389C132.724 33.2389 132.308 32.8223 132.308 32.3131C132.308 31.8039 132.724 31.3873 133.234 31.3873C133.743 31.3873 134.159 31.8039 134.159 32.3131C134.159 32.8223 133.743 33.2389 133.234 33.2389ZM132.555 43.1602V34.8436H133.897V43.1602H132.555ZM139.624 43.3067C137.295 43.3067 135.806 41.6172 135.806 38.9787V38.9633C135.806 36.3788 137.287 34.697 139.617 34.697C141.638 34.697 142.849 35.8619 143.096 37.3432L143.104 37.3895H141.769L141.761 37.3663C141.553 36.5485 140.812 35.8851 139.617 35.8851C138.12 35.8851 137.179 37.0886 137.179 38.9633V38.9787C137.179 40.892 138.135 42.1187 139.617 42.1187C140.735 42.1187 141.445 41.6249 141.754 40.6991L141.769 40.6528L143.096 40.6451L143.081 40.73C142.741 42.2344 141.623 43.3067 139.624 43.3067ZM145.568 33.2389C145.059 33.2389 144.642 32.8223 144.642 32.3131C144.642 31.8039 145.059 31.3873 145.568 31.3873C146.077 31.3873 146.494 31.8039 146.494 32.3131C146.494 32.8223 146.077 33.2389 145.568 33.2389ZM144.889 43.1602V34.8436H146.231V43.1602H144.889ZM151.974 43.3067C149.605 43.3067 148.14 41.6712 148.14 39.0096V38.9941C148.14 36.3248 149.605 34.697 151.974 34.697C154.342 34.697 155.808 36.3248 155.808 38.9941V39.0096C155.808 41.6712 154.342 43.3067 151.974 43.3067ZM151.974 42.1187C153.548 42.1187 154.435 40.9691 154.435 39.0096V38.9941C154.435 37.0269 153.548 35.8851 151.974 35.8851C150.4 35.8851 149.513 37.0269 149.513 38.9941V39.0096C149.513 40.9691 150.4 42.1187 151.974 42.1187ZM160.54 43.3067C158.689 43.3067 157.416 42.4118 157.262 41.0386H158.635C158.858 41.7329 159.522 42.1881 160.587 42.1881C161.705 42.1881 162.5 41.6558 162.5 40.8997V40.8843C162.5 40.3211 162.076 39.9276 161.049 39.6808L159.761 39.3722C158.203 39.0019 157.501 38.3229 157.501 37.1271V37.1194C157.501 35.7385 158.828 34.697 160.594 34.697C162.338 34.697 163.549 35.5687 163.734 36.9266H162.415C162.238 36.2708 161.59 35.8156 160.587 35.8156C159.599 35.8156 158.874 36.3248 158.874 37.0577V37.0731C158.874 37.6363 159.291 37.9912 160.27 38.2304L161.551 38.539C163.117 38.917 163.873 39.5959 163.873 40.784V40.7994C163.873 42.2807 162.43 43.3067 160.54 43.3067Z" fill="#0A0A0A"/>
<path d="M204.744 46.6602V39.9839H204.659L202.687 41.4126V40.3921L204.75 38.9097H205.711V46.6602H204.744ZM211.24 46.8428C209.822 46.8428 208.324 45.8438 208.324 42.9272V42.9165C208.324 40.2739 209.425 38.7271 211.305 38.7271C212.605 38.7271 213.571 39.4897 213.834 40.6338L213.851 40.7036H212.878L212.857 40.6445C212.621 39.9946 212.078 39.5918 211.294 39.5918C209.887 39.5918 209.312 40.9668 209.253 42.5835C209.248 42.6426 209.248 42.707 209.248 42.7661H209.35C209.634 42.1323 210.365 41.5684 211.412 41.5684C212.868 41.5684 213.953 42.6748 213.953 44.1626V44.1733C213.953 45.7202 212.803 46.8428 211.24 46.8428ZM209.479 44.1626C209.479 45.1831 210.247 45.9888 211.23 45.9888C212.202 45.9888 212.98 45.1992 212.98 44.1948V44.1841C212.98 43.1528 212.25 42.4116 211.246 42.4116C210.241 42.4116 209.479 43.1475 209.479 44.1572V44.1626ZM216.823 41.4019C216.442 41.4019 216.125 41.085 216.125 40.7036C216.125 40.3169 216.442 40.0054 216.823 40.0054C217.21 40.0054 217.521 40.3169 217.521 40.7036C217.521 41.085 217.21 41.4019 216.823 41.4019ZM216.823 45.5591C216.442 45.5591 216.125 45.2422 216.125 44.8608C216.125 44.4741 216.442 44.1626 216.823 44.1626C217.21 44.1626 217.521 44.4741 217.521 44.8608C217.521 45.2422 217.21 45.5591 216.823 45.5591ZM221.767 46.6602V39.9839H221.681L219.709 41.4126V40.3921L221.772 38.9097H222.733V46.6602H221.767ZM228.16 46.7891C226.56 46.7891 225.523 45.8975 225.421 44.6729L225.416 44.6084H226.345L226.35 44.6621C226.425 45.4248 227.129 45.9512 228.16 45.9512C229.175 45.9512 229.868 45.3818 229.868 44.5601V44.5493C229.868 43.5986 229.186 43.0669 228.101 43.0669H227.129V42.2505H228.058C228.982 42.2505 229.627 41.6812 229.627 40.9077V40.897C229.627 40.0859 229.095 39.6187 228.15 39.6187C227.236 39.6187 226.587 40.1021 226.506 40.8862L226.501 40.9399H225.571L225.577 40.8862C225.7 39.624 226.699 38.7808 228.15 38.7808C229.627 38.7808 230.599 39.6025 230.599 40.7788V40.7896C230.599 41.7456 229.922 42.4009 228.955 42.605V42.6265C230.083 42.7231 230.851 43.4268 230.851 44.5278V44.5386C230.851 45.833 229.713 46.7891 228.16 46.7891Z" fill="black" fill-opacity="0.5"/>
</svg>
