<svg width="296" height="56" viewBox="0 0 296 56" fill="none" xmlns="http://www.w3.org/2000/svg">
<rect x="8" y="0.660156" width="287" height="54" rx="12" fill="white"/>
<rect x="7.67" y="0.330156" width="287.66" height="54.66" rx="12.33" stroke="black" stroke-opacity="0.06" stroke-width="0.66"/>
<path d="M8 40.6602L8 36.6602H15.5V50.6602C11.8406 53.9129 4.87479 54.5206 2.40001 54.6341C2.09291 54.6482 1.93536 54.2622 2.15211 54.0442C3.7998 52.3872 8 47.4929 8 40.6602Z" fill="white"/>
<mask id="mask0_2002_5486" style="mask-type:alpha" maskUnits="userSpaceOnUse" x="0" y="38" width="14" height="19">
<path d="M0.5 56.6602H14V53.8047C11.7341 52.5848 9.89007 50.7042 8.71973 48.4072C7.59594 46.2014 7.39021 43.4401 7.35156 38.6602H0.5V56.6602Z" fill="#8B1A1A"/>
</mask>
<g mask="url(#mask0_2002_5486)">
<path d="M8 40.6602L8 36.6602H15.5V50.6602C11.8406 53.9129 4.87479 54.5206 2.40001 54.6341C2.09291 54.6482 1.93536 54.2622 2.15211 54.0442C3.7998 52.3872 8 47.4929 8 40.6602Z" fill="white"/>
<path d="M7.66992 36.3301V40.6602C7.66992 47.36 3.54651 52.1737 1.91797 53.8115C1.50912 54.2228 1.77945 54.9929 2.41504 54.9639C3.6629 54.9066 6.04456 54.7252 8.5791 54.1465C11.1056 53.5696 13.8277 52.589 15.7197 50.9072L15.8301 50.8086V36.3301H7.66992Z" stroke="black" stroke-opacity="0.06" stroke-width="0.66"/>
</g>
<path d="M19.4195 22.1602V11.0276H23.6164C25.7071 11.0276 27.1884 12.4703 27.1884 14.5842V14.5996C27.1884 16.7135 25.7071 18.187 23.6164 18.187H20.8082V22.1602H19.4195ZM23.2615 12.262H20.8082V16.9526H23.2615C24.8508 16.9526 25.7688 16.0809 25.7688 14.615V14.5996C25.7688 13.1338 24.8508 12.262 23.2615 12.262ZM32.2522 22.3067C29.876 22.3067 28.4411 20.6403 28.4411 18.0327V18.025C28.4411 15.456 29.9069 13.697 32.1674 13.697C34.4278 13.697 35.801 15.3788 35.801 17.863V18.3876H29.8143C29.8529 20.108 30.8018 21.1109 32.2831 21.1109C33.4094 21.1109 34.1038 20.5786 34.3275 20.0771L34.3584 20.0077H35.7008L35.6853 20.0694C35.3999 21.1958 34.2118 22.3067 32.2522 22.3067ZM32.1596 14.8928C30.9253 14.8928 29.9841 15.7337 29.8375 17.3152H34.4355C34.2967 15.672 33.3863 14.8928 32.1596 14.8928ZM37.6787 22.1602V13.8436H39.021V15.0779H39.1445C39.4608 14.2062 40.24 13.697 41.3663 13.697C41.6209 13.697 41.9064 13.7278 42.0375 13.751V15.0548C41.7598 15.0085 41.5052 14.9776 41.2121 14.9776C39.9314 14.9776 39.021 15.7877 39.021 17.0066V22.1602H37.6787ZM44.5092 22.1602V14.9545H43.1282V13.8436H44.5092V12.9178C44.5092 11.2591 45.3424 10.4645 46.9239 10.4645C47.248 10.4645 47.5411 10.4876 47.8189 10.5416V11.614C47.6568 11.5831 47.4331 11.5754 47.194 11.5754C46.2373 11.5754 45.8516 12.046 45.8516 12.9563V13.8436H47.7417V14.9545H45.8516V22.1602H44.5092ZM52.5124 22.3067C50.1362 22.3067 48.7013 20.6403 48.7013 18.0327V18.025C48.7013 15.456 50.1671 13.697 52.4275 13.697C54.688 13.697 56.0612 15.3788 56.0612 17.863V18.3876H50.0745C50.1131 20.108 51.062 21.1109 52.5432 21.1109C53.6696 21.1109 54.3639 20.5786 54.5877 20.0771L54.6185 20.0077H55.9609L55.9455 20.0694C55.66 21.1958 54.472 22.3067 52.5124 22.3067ZM52.4198 14.8928C51.1854 14.8928 50.2442 15.7337 50.0976 17.3152H54.6957C54.5568 15.672 53.6465 14.8928 52.4198 14.8928ZM61.3411 22.3067C59.0112 22.3067 57.5222 20.6172 57.5222 17.9787V17.9633C57.5222 15.3788 59.0035 13.697 61.3334 13.697C63.3546 13.697 64.5659 14.8619 64.8127 16.3432L64.8205 16.3895H63.4858L63.4781 16.3663C63.2698 15.5485 62.5292 14.8851 61.3334 14.8851C59.8367 14.8851 58.8955 16.0886 58.8955 17.9633V17.9787C58.8955 19.892 59.8521 21.1187 61.3334 21.1187C62.452 21.1187 63.1618 20.6249 63.4704 19.6991L63.4858 19.6528L64.8127 19.6451L64.7973 19.73C64.4579 21.2344 63.3392 22.3067 61.3411 22.3067ZM69.6837 22.2219C67.971 22.2219 67.2535 21.5893 67.2535 20V14.9545H65.942V13.8436H67.2535V11.6911H68.6422V13.8436H70.4629V14.9545H68.6422V19.6605C68.6422 20.6403 68.9817 21.0338 69.8457 21.0338C70.0849 21.0338 70.216 21.0261 70.4629 21.0029V22.1447C70.2006 22.191 69.946 22.2219 69.6837 22.2219ZM75.5576 22.3067C73.1892 22.3067 71.7233 20.6712 71.7233 18.0096V17.9941C71.7233 15.3248 73.1892 13.697 75.5576 13.697C77.9261 13.697 79.3919 15.3248 79.3919 17.9941V18.0096C79.3919 20.6712 77.9261 22.3067 75.5576 22.3067ZM75.5576 21.1187C77.1314 21.1187 78.0186 19.9691 78.0186 18.0096V17.9941C78.0186 16.0269 77.1314 14.8851 75.5576 14.8851C73.9838 14.8851 73.0966 16.0269 73.0966 17.9941V18.0096C73.0966 19.9691 73.9838 21.1187 75.5576 21.1187ZM80.7757 24.9915L81.4469 20.6018H82.9822L81.771 24.9915H80.7757ZM92.7936 22.2219C91.0809 22.2219 90.3634 21.5893 90.3634 20V14.9545H89.0519V13.8436H90.3634V11.6911H91.7521V13.8436H93.5728V14.9545H91.7521V19.6605C91.7521 20.6403 92.0915 21.0338 92.9556 21.0338C93.1947 21.0338 93.3259 21.0261 93.5728 21.0029V22.1447C93.3105 22.191 93.0559 22.2219 92.7936 22.2219ZM98.6443 22.3067C96.2681 22.3067 94.8332 20.6403 94.8332 18.0327V18.025C94.8332 15.456 96.299 13.697 98.5594 13.697C100.82 13.697 102.193 15.3788 102.193 17.863V18.3876H96.2064C96.245 20.108 97.1939 21.1109 98.6752 21.1109C99.8015 21.1109 100.496 20.5786 100.72 20.0771L100.75 20.0077H102.093L102.077 20.0694C101.792 21.1958 100.604 22.3067 98.6443 22.3067ZM98.5517 14.8928C97.3174 14.8928 96.3761 15.7337 96.2296 17.3152H100.828C100.689 15.672 99.7784 14.8928 98.5517 14.8928ZM108.386 22.1602V10.5416H109.729V15.0934H109.852C110.269 14.2139 111.048 13.697 112.275 13.697C114.142 13.697 115.183 14.8002 115.183 16.7752V22.1602H113.841V17.0992C113.841 15.6025 113.223 14.8851 111.897 14.8851C110.57 14.8851 109.729 15.78 109.729 17.2381V22.1602H108.386ZM119.691 22.3067C118.11 22.3067 116.914 21.3501 116.914 19.838V19.8226C116.914 18.3413 118.01 17.485 119.946 17.3692L122.33 17.2227V16.4666C122.33 15.4405 121.705 14.8851 120.463 14.8851C119.468 14.8851 118.812 15.2554 118.596 15.9034L118.588 15.9266H117.246L117.254 15.8803C117.47 14.5765 118.735 13.697 120.509 13.697C122.538 13.697 123.672 14.7385 123.672 16.4666V22.1602H122.33V20.9335H122.206C121.682 21.8207 120.81 22.3067 119.691 22.3067ZM118.287 19.8071C118.287 20.648 119.005 21.1418 119.969 21.1418C121.335 21.1418 122.33 20.2469 122.33 19.0588V18.3027L120.108 18.4416C118.843 18.5187 118.287 18.9662 118.287 19.7917V19.8071ZM129.346 25.0918C127.34 25.0918 126.059 24.1892 125.851 22.8236L125.866 22.8159H127.255L127.263 22.8236C127.409 23.4563 128.15 23.9037 129.346 23.9037C130.835 23.9037 131.722 23.2017 131.722 21.975V20.2932H131.598C131.074 21.2112 130.132 21.7281 128.991 21.7281C126.838 21.7281 125.504 20.0617 125.504 17.7318V17.7164C125.504 15.3865 126.846 13.697 129.022 13.697C130.194 13.697 131.105 14.2756 131.614 15.2168H131.706V13.8436H133.049V22.0444C133.049 23.9037 131.614 25.0918 129.346 25.0918ZM129.284 20.54C130.827 20.54 131.753 19.3828 131.753 17.7318V17.7164C131.753 16.0654 130.819 14.8851 129.284 14.8851C127.741 14.8851 126.877 16.0654 126.877 17.7164V17.7318C126.877 19.3828 127.741 20.54 129.284 20.54ZM138.761 22.3067C136.392 22.3067 134.926 20.6712 134.926 18.0096V17.9941C134.926 15.3248 136.392 13.697 138.761 13.697C141.129 13.697 142.595 15.3248 142.595 17.9941V18.0096C142.595 20.6712 141.129 22.3067 138.761 22.3067ZM138.761 21.1187C140.334 21.1187 141.222 19.9691 141.222 18.0096V17.9941C141.222 16.0269 140.334 14.8851 138.761 14.8851C137.187 14.8851 136.3 16.0269 136.3 17.9941V18.0096C136.3 19.9691 137.187 21.1187 138.761 21.1187ZM148.788 22.1602V10.5416H150.13V22.1602H148.788ZM152.579 22.1602V10.5416H153.921V22.1602H152.579ZM159.687 22.3067C157.311 22.3067 155.876 20.6403 155.876 18.0327V18.025C155.876 15.456 157.342 13.697 159.602 13.697C161.863 13.697 163.236 15.3788 163.236 17.863V18.3876H157.249C157.288 20.108 158.237 21.1109 159.718 21.1109C160.844 21.1109 161.539 20.5786 161.762 20.0771L161.793 20.0077H163.136L163.12 20.0694C162.835 21.1958 161.647 22.3067 159.687 22.3067ZM159.595 14.8928C158.36 14.8928 157.419 15.7337 157.272 17.3152H161.87C161.732 15.672 160.821 14.8928 159.595 14.8928ZM168.539 25.0918C166.533 25.0918 165.252 24.1892 165.044 22.8236L165.06 22.8159H166.448L166.456 22.8236C166.603 23.4563 167.343 23.9037 168.539 23.9037C170.028 23.9037 170.915 23.2017 170.915 21.975V20.2932H170.792C170.267 21.2112 169.326 21.7281 168.184 21.7281C166.032 21.7281 164.697 20.0617 164.697 17.7318V17.7164C164.697 15.3865 166.039 13.697 168.215 13.697C169.388 13.697 170.298 14.2756 170.807 15.2168H170.9V13.8436H172.242V22.0444C172.242 23.9037 170.807 25.0918 168.539 25.0918ZM168.477 20.54C170.02 20.54 170.946 19.3828 170.946 17.7318V17.7164C170.946 16.0654 170.012 14.8851 168.477 14.8851C166.934 14.8851 166.07 16.0654 166.07 17.7164V17.7318C166.07 19.3828 166.934 20.54 168.477 20.54ZM176.82 22.3067C175.238 22.3067 174.043 21.3501 174.043 19.838V19.8226C174.043 18.3413 175.138 17.485 177.074 17.3692L179.458 17.2227V16.4666C179.458 15.4405 178.833 14.8851 177.591 14.8851C176.596 14.8851 175.94 15.2554 175.724 15.9034L175.717 15.9266H174.374L174.382 15.8803C174.598 14.5765 175.863 13.697 177.638 13.697C179.667 13.697 180.801 14.7385 180.801 16.4666V22.1602H179.458V20.9335H179.335C178.81 21.8207 177.939 22.3067 176.82 22.3067ZM175.416 19.8071C175.416 20.648 176.133 21.1418 177.098 21.1418C178.463 21.1418 179.458 20.2469 179.458 19.0588V18.3027L177.236 18.4416C175.971 18.5187 175.416 18.9662 175.416 19.7917V19.8071ZM183.049 22.1602V13.8436H184.391V15.0779H184.514C184.831 14.2062 185.61 13.697 186.736 13.697C186.991 13.697 187.276 13.7278 187.408 13.751V15.0548C187.13 15.0085 186.875 14.9776 186.582 14.9776C185.301 14.9776 184.391 15.7877 184.391 17.0066V22.1602H183.049ZM196.494 22.3067C194.118 22.3067 192.683 20.6403 192.683 18.0327V18.025C192.683 15.456 194.148 13.697 196.409 13.697C198.669 13.697 200.043 15.3788 200.043 17.863V18.3876H194.056C194.094 20.108 195.043 21.1109 196.525 21.1109C197.651 21.1109 198.345 20.5786 198.569 20.0771L198.6 20.0077H199.942L199.927 20.0694C199.641 21.1958 198.453 22.3067 196.494 22.3067ZM196.401 14.8928C195.167 14.8928 194.226 15.7337 194.079 17.3152H198.677C198.538 15.672 197.628 14.8928 196.401 14.8928ZM201.997 22.1602V10.5416H203.34V22.1602H201.997ZM210.659 12.2389C210.15 12.2389 209.733 11.8223 209.733 11.3131C209.733 10.8039 210.15 10.3873 210.659 10.3873C211.168 10.3873 211.585 10.8039 211.585 11.3131C211.585 11.8223 211.168 12.2389 210.659 12.2389ZM209.98 22.1602V13.8436H211.323V22.1602H209.98ZM213.648 22.1602V13.8436H214.99V15.0934H215.114C215.53 14.2139 216.309 13.697 217.536 13.697C219.403 13.697 220.444 14.8002 220.444 16.7752V22.1602H219.102V17.0992C219.102 15.6025 218.485 14.8851 217.158 14.8851C215.831 14.8851 214.99 15.78 214.99 17.2381V22.1602H213.648ZM224.714 22.1602L221.635 13.8436H223.055L225.331 20.6943H225.454L227.73 13.8436H229.15L226.071 22.1602H224.714ZM231.429 12.2389C230.919 12.2389 230.503 11.8223 230.503 11.3131C230.503 10.8039 230.919 10.3873 231.429 10.3873C231.938 10.3873 232.354 10.8039 232.354 11.3131C232.354 11.8223 231.938 12.2389 231.429 12.2389ZM230.75 22.1602V13.8436H232.092V22.1602H230.75ZM237.372 22.2219C235.659 22.2219 234.942 21.5893 234.942 20V14.9545H233.63V13.8436H234.942V11.6911H236.33V13.8436H238.151V14.9545H236.33V19.6605C236.33 20.6403 236.67 21.0338 237.534 21.0338C237.773 21.0338 237.904 21.0261 238.151 21.0029V22.1447C237.889 22.191 237.634 22.2219 237.372 22.2219ZM243.223 22.3067C240.846 22.3067 239.411 20.6403 239.411 18.0327V18.025C239.411 15.456 240.877 13.697 243.138 13.697C245.398 13.697 246.771 15.3788 246.771 17.863V18.3876H240.785C240.823 20.108 241.772 21.1109 243.253 21.1109C244.38 21.1109 245.074 20.5786 245.298 20.0771L245.329 20.0077H246.671L246.656 20.0694C246.37 21.1958 245.182 22.3067 243.223 22.3067ZM243.13 14.8928C241.896 14.8928 240.954 15.7337 240.808 17.3152H245.406C245.267 15.672 244.357 14.8928 243.13 14.8928ZM22.6443 43.3067C20.2682 43.3067 18.8332 41.6403 18.8332 39.0327V39.025C18.8332 36.456 20.299 34.697 22.5595 34.697C24.8199 34.697 26.1932 36.3788 26.1932 38.863V39.3876H20.2064C20.245 41.108 21.1939 42.1109 22.6752 42.1109C23.8016 42.1109 24.4959 41.5786 24.7196 41.0771L24.7505 41.0077H26.0929L26.0774 41.0694C25.792 42.1958 24.6039 43.3067 22.6443 43.3067ZM22.5518 35.8928C21.3174 35.8928 20.3762 36.7337 20.2296 38.3152H24.8276C24.6888 36.672 23.7784 35.8928 22.5518 35.8928ZM28.0708 43.1602V34.8436H29.4132V36.0934H29.5366C29.9532 35.2139 30.7324 34.697 31.9591 34.697C33.826 34.697 34.8675 35.8002 34.8675 37.7752V43.1602H33.5252V38.0992C33.5252 36.6025 32.908 35.8851 31.581 35.8851C30.2541 35.8851 29.4132 36.78 29.4132 38.2381V43.1602H28.0708ZM44.1157 43.3067C42.2256 43.3067 41.2535 42.1958 41.2535 40.2285V34.8436H42.5959V39.9045C42.5959 41.4012 43.1359 42.1187 44.4629 42.1187C45.9287 42.1187 46.7079 41.2237 46.7079 39.7656V34.8436H48.0503V43.1602H46.7079V41.9181H46.5845C46.1756 42.8053 45.3347 43.3067 44.1157 43.3067ZM50.3522 43.1602V34.8436H51.6946V36.0934H51.818C52.2347 35.2139 53.0139 34.697 54.2405 34.697C56.1075 34.697 57.149 35.8002 57.149 37.7752V43.1602H55.8066V38.0992C55.8066 36.6025 55.1894 35.8851 53.8625 35.8851C52.5355 35.8851 51.6946 36.78 51.6946 38.2381V43.1602H50.3522ZM64.3219 33.2389C63.8127 33.2389 63.3961 32.8223 63.3961 32.3131C63.3961 31.8039 63.8127 31.3873 64.3219 31.3873C64.8311 31.3873 65.2477 31.8039 65.2477 32.3131C65.2477 32.8223 64.8311 33.2389 64.3219 33.2389ZM63.643 43.1602V34.8436H64.9854V43.1602H63.643ZM67.3104 43.1602V34.8436H68.6528V36.0934H68.7763C69.1929 35.2139 69.9721 34.697 71.1987 34.697C73.0657 34.697 74.1072 35.8002 74.1072 37.7752V43.1602H72.7648V38.0992C72.7648 36.6025 72.1477 35.8851 70.8207 35.8851C69.4937 35.8851 68.6528 36.78 68.6528 38.2381V43.1602H67.3104ZM79.1865 43.3067C77.3349 43.3067 76.062 42.4118 75.9077 41.0386H77.2809C77.5047 41.7329 78.1681 42.1881 79.2328 42.1881C80.3514 42.1881 81.1461 41.6558 81.1461 40.8997V40.8843C81.1461 40.3211 80.7217 39.9276 79.6957 39.6808L78.4073 39.3722C76.8489 39.0019 76.1468 38.3229 76.1468 37.1271V37.1194C76.1468 35.7385 77.4738 34.697 79.2405 34.697C80.984 34.697 82.1953 35.5687 82.3804 36.9266H81.0612C80.8838 36.2708 80.2357 35.8156 79.2328 35.8156C78.2453 35.8156 77.5201 36.3248 77.5201 37.0577V37.0731C77.5201 37.6363 77.9367 37.9912 78.9165 38.2304L80.1971 38.539C81.7632 38.917 82.5193 39.5959 82.5193 40.784V40.7994C82.5193 42.2807 81.0766 43.3067 79.1865 43.3067ZM87.2745 43.2219C85.5618 43.2219 84.8444 42.5893 84.8444 41V35.9545H83.5328V34.8436H84.8444V32.6911H86.233V34.8436H88.0537V35.9545H86.233V40.6605C86.233 41.6403 86.5725 42.0338 87.4366 42.0338C87.6757 42.0338 87.8069 42.0261 88.0537 42.0029V43.1447C87.7914 43.191 87.5368 43.2219 87.2745 43.2219ZM92.1378 43.3067C90.5563 43.3067 89.3605 42.3501 89.3605 40.838V40.8226C89.3605 39.3413 90.456 38.485 92.3924 38.3692L94.7763 38.2227V37.4666C94.7763 36.4405 94.1514 35.8851 92.9093 35.8851C91.9141 35.8851 91.2583 36.2554 91.0423 36.9034L91.0346 36.9266H89.6922L89.6999 36.8803C89.9159 35.5765 91.1812 34.697 92.9556 34.697C94.9846 34.697 96.1187 35.7385 96.1187 37.4666V43.1602H94.7763V41.9335H94.6528C94.1282 42.8207 93.2565 43.3067 92.1378 43.3067ZM90.7337 40.8071C90.7337 41.648 91.4512 42.1418 92.4155 42.1418C93.7811 42.1418 94.7763 41.2469 94.7763 40.0588V39.3027L92.5544 39.4416C91.2892 39.5187 90.7337 39.9662 90.7337 40.7917V40.8071ZM98.3666 43.1602V34.8436H99.709V36.0934H99.8324C100.249 35.2139 101.028 34.697 102.255 34.697C104.122 34.697 105.163 35.8002 105.163 37.7752V43.1602H103.821V38.0992C103.821 36.6025 103.204 35.8851 101.877 35.8851C100.55 35.8851 99.709 36.78 99.709 38.2381V43.1602H98.3666ZM110.343 43.2219C108.63 43.2219 107.913 42.5893 107.913 41V35.9545H106.601V34.8436H107.913V32.6911H109.301V34.8436H111.122V35.9545H109.301V40.6605C109.301 41.6403 109.641 42.0338 110.505 42.0338C110.744 42.0338 110.875 42.0261 111.122 42.0029V43.1447C110.86 43.191 110.605 43.2219 110.343 43.2219ZM116.194 43.3067C113.817 43.3067 112.383 41.6403 112.383 39.0327V39.025C112.383 36.456 113.848 34.697 116.109 34.697C118.369 34.697 119.742 36.3788 119.742 38.863V39.3876H113.756C113.794 41.108 114.743 42.1109 116.225 42.1109C117.351 42.1109 118.045 41.5786 118.269 41.0771L118.3 41.0077H119.642L119.627 41.0694C119.341 42.1958 118.153 43.3067 116.194 43.3067ZM116.101 35.8928C114.867 35.8928 113.926 36.7337 113.779 38.3152H118.377C118.238 36.672 117.328 35.8928 116.101 35.8928Z" fill="#0A0A0A"/>
<path d="M256.902 46.6602V39.9839H256.816L254.845 41.4126V40.3921L256.907 38.9097H257.869V46.6602H256.902ZM263.398 46.8428C261.98 46.8428 260.481 45.8438 260.481 42.9272V42.9165C260.481 40.2739 261.582 38.7271 263.462 38.7271C264.762 38.7271 265.729 39.4897 265.992 40.6338L266.008 40.7036H265.036L265.014 40.6445C264.778 39.9946 264.235 39.5918 263.451 39.5918C262.044 39.5918 261.469 40.9668 261.41 42.5835C261.405 42.6426 261.405 42.707 261.405 42.7661H261.507C261.792 42.1323 262.522 41.5684 263.569 41.5684C265.025 41.5684 266.11 42.6748 266.11 44.1626V44.1733C266.11 45.7202 264.961 46.8428 263.398 46.8428ZM261.636 44.1626C261.636 45.1831 262.404 45.9888 263.387 45.9888C264.359 45.9888 265.138 45.1992 265.138 44.1948V44.1841C265.138 43.1528 264.407 42.4116 263.403 42.4116C262.399 42.4116 261.636 43.1475 261.636 44.1572V44.1626ZM268.98 41.4019C268.599 41.4019 268.282 41.085 268.282 40.7036C268.282 40.3169 268.599 40.0054 268.98 40.0054C269.367 40.0054 269.679 40.3169 269.679 40.7036C269.679 41.085 269.367 41.4019 268.98 41.4019ZM268.98 45.5591C268.599 45.5591 268.282 45.2422 268.282 44.8608C268.282 44.4741 268.599 44.1626 268.98 44.1626C269.367 44.1626 269.679 44.4741 269.679 44.8608C269.679 45.2422 269.367 45.5591 268.98 45.5591ZM273.924 46.6602V39.9839H273.838L271.867 41.4126V40.3921L273.929 38.9097H274.891V46.6602H273.924ZM281.22 46.6602V45.0542H277.444V44.1733C278.491 42.417 279.678 40.5264 280.763 38.9097H282.165V44.1895H283.266V45.0542H282.165V46.6602H281.22ZM278.432 44.1948H281.225V39.8066H281.161C280.291 41.1064 279.276 42.707 278.432 44.1304V44.1948Z" fill="black" fill-opacity="0.5"/>
</svg>
