<svg width="328" height="77" viewBox="0 0 328 77" fill="none" xmlns="http://www.w3.org/2000/svg">
<rect x="8" y="0.660156" width="287" height="75" rx="12" fill="white"/>
<rect x="7.67" y="0.330156" width="287.66" height="75.66" rx="12.33" stroke="black" stroke-opacity="0.06" stroke-width="0.66"/>
<path d="M8 61.6602L8 57.6602H15.5V71.6602C11.8406 74.9129 4.87479 75.5206 2.40001 75.6341C2.09291 75.6482 1.93536 75.2622 2.15211 75.0442C3.7998 73.3872 8 68.4929 8 61.6602Z" fill="white"/>
<mask id="mask0_2002_4282" style="mask-type:alpha" maskUnits="userSpaceOnUse" x="0" y="59" width="14" height="19">
<path d="M0.5 77.6602H14V74.8047C11.7341 73.5848 9.89007 71.7042 8.71973 69.4072C7.59594 67.2014 7.39021 64.4401 7.35156 59.6602H0.5V77.6602Z" fill="#8B1A1A"/>
</mask>
<g mask="url(#mask0_2002_4282)">
<path d="M8 61.6602L8 57.6602H15.5V71.6602C11.8406 74.9129 4.87479 75.5206 2.40001 75.6341C2.09291 75.6482 1.93536 75.2622 2.15211 75.0442C3.7998 73.3872 8 68.4929 8 61.6602Z" fill="white"/>
<path d="M7.66992 57.3301V61.6602C7.66992 68.36 3.54651 73.1737 1.91797 74.8115C1.50912 75.2228 1.77945 75.9929 2.41504 75.9639C3.6629 75.9066 6.04456 75.7252 8.5791 75.1465C11.1056 74.5696 13.8277 73.589 15.7197 71.9072L15.8301 71.8086V57.3301H7.66992Z" stroke="black" stroke-opacity="0.06" stroke-width="0.66"/>
</g>
<path d="M22.3126 22.1602V12.2774H18.7252V11.0276H27.2887V12.2774H23.7013V22.1602H22.3126ZM30.9098 22.3067C28.5337 22.3067 27.0987 20.6403 27.0987 18.0327V18.025C27.0987 15.456 28.5645 13.697 30.825 13.697C33.0854 13.697 34.4587 15.3788 34.4587 17.863V18.3876H28.4719C28.5105 20.108 29.4594 21.1109 30.9407 21.1109C32.0671 21.1109 32.7614 20.5786 32.9851 20.0771L33.016 20.0077H34.3584L34.3429 20.0694C34.0575 21.1958 32.8694 22.3067 30.9098 22.3067ZM30.8173 14.8928C29.5829 14.8928 28.6417 15.7337 28.4951 17.3152H33.0931C32.9543 15.672 32.0439 14.8928 30.8173 14.8928ZM40.5746 24.9375V13.8436H41.917V15.1705H42.0404C42.5496 14.2447 43.4754 13.697 44.6326 13.697C46.7388 13.697 48.1197 15.402 48.1197 17.9941V18.0096C48.1197 20.6172 46.7465 22.3067 44.6326 22.3067C43.4908 22.3067 42.4956 21.7358 42.0404 20.8486H41.917V24.9375H40.5746ZM44.324 21.1187C45.8439 21.1187 46.7465 19.946 46.7465 18.0096V17.9941C46.7465 16.0577 45.8439 14.8851 44.324 14.8851C42.8119 14.8851 41.8861 16.0731 41.8861 17.9941V18.0096C41.8861 19.9306 42.8119 21.1187 44.324 21.1187ZM52.2964 22.3067C50.7148 22.3067 49.519 21.3501 49.519 19.838V19.8226C49.519 18.3413 50.6145 17.485 52.551 17.3692L54.9348 17.2227V16.4666C54.9348 15.4405 54.3099 14.8851 53.0679 14.8851C52.0726 14.8851 51.4169 15.2554 51.2009 15.9034L51.1931 15.9266H49.8508L49.8585 15.8803C50.0745 14.5765 51.3397 13.697 53.1141 13.697C55.1431 13.697 56.2772 14.7385 56.2772 16.4666V22.1602H54.9348V20.9335H54.8114C54.2868 21.8207 53.415 22.3067 52.2964 22.3067ZM50.8923 19.8071C50.8923 20.648 51.6097 21.1418 52.5741 21.1418C53.9396 21.1418 54.9348 20.2469 54.9348 19.0588V18.3027L52.713 18.4416C51.4477 18.5187 50.8923 18.9662 50.8923 19.7917V19.8071ZM58.5251 22.1602V13.8436H59.8675V15.0779H59.991C60.3073 14.2062 61.0865 13.697 62.2128 13.697C62.4674 13.697 62.7529 13.7278 62.884 13.751V15.0548C62.6063 15.0085 62.3517 14.9776 62.0585 14.9776C60.7779 14.9776 59.8675 15.7877 59.8675 17.0066V22.1602H58.5251ZM67.5004 22.3067C65.1242 22.3067 63.6893 20.6403 63.6893 18.0327V18.025C63.6893 15.456 65.1551 13.697 67.4155 13.697C69.676 13.697 71.0492 15.3788 71.0492 17.863V18.3876H65.0625C65.1011 20.108 66.05 21.1109 67.5313 21.1109C68.6576 21.1109 69.352 20.5786 69.5757 20.0771L69.6066 20.0077H70.9489L70.9335 20.0694C70.6481 21.1958 69.46 22.3067 67.5004 22.3067ZM67.4078 14.8928C66.1735 14.8928 65.2322 15.7337 65.0857 17.3152H69.6837C69.5448 15.672 68.6345 14.8928 67.4078 14.8928ZM76.3291 22.3067C73.9992 22.3067 72.5102 20.6172 72.5102 17.9787V17.9633C72.5102 15.3788 73.9915 13.697 76.3214 13.697C78.3427 13.697 79.5539 14.8619 79.8008 16.3432L79.8085 16.3895H78.4738L78.4661 16.3663C78.2578 15.5485 77.5172 14.8851 76.3214 14.8851C74.8247 14.8851 73.8835 16.0886 73.8835 17.9633V17.9787C73.8835 19.892 74.8401 21.1187 76.3214 21.1187C77.44 21.1187 78.1498 20.6249 78.4584 19.6991L78.4738 19.6528L79.8008 19.6451L79.7853 19.73C79.4459 21.2344 78.3272 22.3067 76.3291 22.3067ZM84.9572 22.3067C82.581 22.3067 81.1461 20.6403 81.1461 18.0327V18.025C81.1461 15.456 82.6119 13.697 84.8723 13.697C87.1328 13.697 88.506 15.3788 88.506 17.863V18.3876H82.5193C82.5579 20.108 83.5068 21.1109 84.9881 21.1109C86.1144 21.1109 86.8088 20.5786 87.0325 20.0771L87.0633 20.0077H88.4057L88.3903 20.0694C88.1048 21.1958 86.9168 22.3067 84.9572 22.3067ZM84.8646 14.8928C83.6302 14.8928 82.689 15.7337 82.5424 17.3152H87.1405C87.0016 15.672 86.0913 14.8928 84.8646 14.8928ZM98.7571 22.3067C97.5999 22.3067 96.6741 21.759 96.1649 20.8332H96.0415V22.1602H94.6991V10.5416H96.0415V15.1551H96.1649C96.6201 14.2679 97.6153 13.697 98.7571 13.697C100.871 13.697 102.244 15.3865 102.244 17.9941V18.0096C102.244 20.6018 100.863 22.3067 98.7571 22.3067ZM98.4485 21.1187C99.9684 21.1187 100.871 19.946 100.871 18.0096V17.9941C100.871 16.0577 99.9684 14.8851 98.4485 14.8851C96.9364 14.8851 96.0106 16.0731 96.0106 17.9941V18.0096C96.0106 19.9306 96.9364 21.1187 98.4485 21.1187ZM104.832 12.2389C104.322 12.2389 103.906 11.8223 103.906 11.3131C103.906 10.8039 104.322 10.3873 104.832 10.3873C105.341 10.3873 105.757 10.8039 105.757 11.3131C105.757 11.8223 105.341 12.2389 104.832 12.2389ZM104.153 22.1602V13.8436H105.495V22.1602H104.153ZM111.215 22.3067C108.839 22.3067 107.404 20.6403 107.404 18.0327V18.025C107.404 15.456 108.869 13.697 111.13 13.697C113.39 13.697 114.764 15.3788 114.764 17.863V18.3876H108.777C108.815 20.108 109.764 21.1109 111.246 21.1109C112.372 21.1109 113.066 20.5786 113.29 20.0771L113.321 20.0077H114.663L114.648 20.0694C114.362 21.1958 113.174 22.3067 111.215 22.3067ZM111.122 14.8928C109.888 14.8928 108.947 15.7337 108.8 17.3152H113.398C113.259 15.672 112.349 14.8928 111.122 14.8928ZM116.641 22.1602V13.8436H117.984V15.0934H118.107C118.524 14.2139 119.303 13.697 120.529 13.697C122.396 13.697 123.438 14.8002 123.438 16.7752V22.1602H122.096V17.0992C122.096 15.6025 121.478 14.8851 120.151 14.8851C118.824 14.8851 117.984 15.78 117.984 17.2381V22.1602H116.641ZM132.756 22.3067C130.904 22.3067 129.631 21.4118 129.477 20.0386H130.85C131.074 20.7329 131.737 21.1881 132.802 21.1881C133.92 21.1881 134.715 20.6558 134.715 19.8997V19.8843C134.715 19.3211 134.291 18.9276 133.265 18.6808L131.976 18.3722C130.418 18.0019 129.716 17.3229 129.716 16.1271V16.1194C129.716 14.7385 131.043 13.697 132.81 13.697C134.553 13.697 135.764 14.5687 135.949 15.9266H134.63C134.453 15.2708 133.805 14.8156 132.802 14.8156C131.814 14.8156 131.089 15.3248 131.089 16.0577V16.0731C131.089 16.6363 131.506 16.9912 132.486 17.2304L133.766 17.539C135.332 17.917 136.088 18.5959 136.088 19.784V19.7994C136.088 21.2807 134.646 22.3067 132.756 22.3067ZM138.676 12.2389C138.167 12.2389 137.75 11.8223 137.75 11.3131C137.75 10.8039 138.167 10.3873 138.676 10.3873C139.185 10.3873 139.601 10.8039 139.601 11.3131C139.601 11.8223 139.185 12.2389 138.676 12.2389ZM137.997 22.1602V13.8436H139.339V22.1602H137.997ZM145.903 24.9375V13.8436H147.245V15.1705H147.368C147.878 14.2447 148.803 13.697 149.961 13.697C152.067 13.697 153.448 15.402 153.448 17.9941V18.0096C153.448 20.6172 152.074 22.3067 149.961 22.3067C148.819 22.3067 147.824 21.7358 147.368 20.8486H147.245V24.9375H145.903ZM149.652 21.1187C151.172 21.1187 152.074 19.946 152.074 18.0096V17.9941C152.074 16.0577 151.172 14.8851 149.652 14.8851C148.14 14.8851 147.214 16.0731 147.214 17.9941V18.0096C147.214 19.9306 148.14 21.1187 149.652 21.1187ZM155.341 22.1602V13.8436H156.683V15.0779H156.807C157.123 14.2062 157.902 13.697 159.028 13.697C159.283 13.697 159.568 13.7278 159.7 13.751V15.0548C159.422 15.0085 159.167 14.9776 158.874 14.9776C157.593 14.9776 156.683 15.7877 156.683 17.0066V22.1602H155.341ZM164.339 22.3067C161.971 22.3067 160.505 20.6712 160.505 18.0096V17.9941C160.505 15.3248 161.971 13.697 164.339 13.697C166.708 13.697 168.173 15.3248 168.173 17.9941V18.0096C168.173 20.6712 166.708 22.3067 164.339 22.3067ZM164.339 21.1187C165.913 21.1187 166.8 19.9691 166.8 18.0096V17.9941C166.8 16.0269 165.913 14.8851 164.339 14.8851C162.765 14.8851 161.878 16.0269 161.878 17.9941V18.0096C161.878 19.9691 162.765 21.1187 164.339 21.1187ZM173.476 25.0918C171.471 25.0918 170.19 24.1892 169.982 22.8236L169.997 22.8159H171.386L171.393 22.8236C171.54 23.4563 172.281 23.9037 173.476 23.9037C174.965 23.9037 175.853 23.2017 175.853 21.975V20.2932H175.729C175.205 21.2112 174.263 21.7281 173.122 21.7281C170.969 21.7281 169.634 20.0617 169.634 17.7318V17.7164C169.634 15.3865 170.977 13.697 173.152 13.697C174.325 13.697 175.235 14.2756 175.745 15.2168H175.837V13.8436H177.18V22.0444C177.18 23.9037 175.745 25.0918 173.476 25.0918ZM173.415 20.54C174.958 20.54 175.883 19.3828 175.883 17.7318V17.7164C175.883 16.0654 174.95 14.8851 173.415 14.8851C171.872 14.8851 171.008 16.0654 171.008 17.7164V17.7318C171.008 19.3828 171.872 20.54 173.415 20.54ZM179.474 22.1602V13.8436H180.816V15.0779H180.94C181.256 14.2062 182.035 13.697 183.161 13.697C183.416 13.697 183.702 13.7278 183.833 13.751V15.0548C183.555 15.0085 183.3 14.9776 183.007 14.9776C181.727 14.9776 180.816 15.7877 180.816 17.0066V22.1602H179.474ZM187.57 22.3067C185.988 22.3067 184.792 21.3501 184.792 19.838V19.8226C184.792 18.3413 185.888 17.485 187.824 17.3692L190.208 17.2227V16.4666C190.208 15.4405 189.583 14.8851 188.341 14.8851C187.346 14.8851 186.69 15.2554 186.474 15.9034L186.466 15.9266H185.124L185.132 15.8803C185.348 14.5765 186.613 13.697 188.387 13.697C190.416 13.697 191.55 14.7385 191.55 16.4666V22.1602H190.208V20.9335H190.085C189.56 21.8207 188.688 22.3067 187.57 22.3067ZM186.165 19.8071C186.165 20.648 186.883 21.1418 187.847 21.1418C189.213 21.1418 190.208 20.2469 190.208 19.0588V18.3027L187.986 18.4416C186.721 18.5187 186.165 18.9662 186.165 19.7917V19.8071ZM193.798 22.1602V13.8436H195.141V15.1088H195.264C195.634 14.2139 196.421 13.697 197.509 13.697C198.636 13.697 199.422 14.291 199.808 15.1551H199.932C200.379 14.2756 201.328 13.697 202.478 13.697C204.175 13.697 205.124 14.669 205.124 16.4126V22.1602H203.781V16.7212C203.781 15.4945 203.218 14.8851 202.045 14.8851C200.888 14.8851 200.124 15.7568 200.124 16.8138V22.1602H198.782V16.5129C198.782 15.5254 198.103 14.8851 197.054 14.8851C195.966 14.8851 195.141 15.834 195.141 17.0066V22.1602H193.798ZM209.624 22.3067C208.043 22.3067 206.847 21.3501 206.847 19.838V19.8226C206.847 18.3413 207.943 17.485 209.879 17.3692L212.263 17.2227V16.4666C212.263 15.4405 211.638 14.8851 210.396 14.8851C209.401 14.8851 208.745 15.2554 208.529 15.9034L208.521 15.9266H207.179L207.186 15.8803C207.402 14.5765 208.668 13.697 210.442 13.697C212.471 13.697 213.605 14.7385 213.605 16.4666V22.1602H212.263V20.9335H212.139C211.615 21.8207 210.743 22.3067 209.624 22.3067ZM208.22 19.8071C208.22 20.648 208.938 21.1418 209.902 21.1418C211.268 21.1418 212.263 20.2469 212.263 19.0588V18.3027L210.041 18.4416C208.776 18.5187 208.22 18.9662 208.22 19.7917V19.8071ZM215.853 22.1602V13.8436H217.196V15.1088H217.319C217.689 14.2139 218.476 13.697 219.564 13.697C220.69 13.697 221.477 14.291 221.863 15.1551H221.986C222.434 14.2756 223.383 13.697 224.532 13.697C226.23 13.697 227.179 14.669 227.179 16.4126V22.1602H225.836V16.7212C225.836 15.4945 225.273 14.8851 224.1 14.8851C222.943 14.8851 222.179 15.7568 222.179 16.8138V22.1602H220.837V16.5129C220.837 15.5254 220.158 14.8851 219.109 14.8851C218.021 14.8851 217.196 15.834 217.196 17.0066V22.1602H215.853ZM232.813 22.3067C230.445 22.3067 228.979 20.6712 228.979 18.0096V17.9941C228.979 15.3248 230.445 13.697 232.813 13.697C235.182 13.697 236.648 15.3248 236.648 17.9941V18.0096C236.648 20.6712 235.182 22.3067 232.813 22.3067ZM232.813 21.1187C234.387 21.1187 235.274 19.9691 235.274 18.0096V17.9941C235.274 16.0269 234.387 14.8851 232.813 14.8851C231.239 14.8851 230.352 16.0269 230.352 17.9941V18.0096C230.352 19.9691 231.239 21.1187 232.813 21.1187ZM241.38 22.3067C239.528 22.3067 238.255 21.4118 238.101 20.0386H239.474C239.698 20.7329 240.361 21.1881 241.426 21.1881C242.545 21.1881 243.339 20.6558 243.339 19.8997V19.8843C243.339 19.3211 242.915 18.9276 241.889 18.6808L240.6 18.3722C239.042 18.0019 238.34 17.3229 238.34 16.1271V16.1194C238.34 14.7385 239.667 13.697 241.434 13.697C243.177 13.697 244.388 14.5687 244.574 15.9266H243.254C243.077 15.2708 242.429 14.8156 241.426 14.8156C240.438 14.8156 239.713 15.3248 239.713 16.0577V16.0731C239.713 16.6363 240.13 16.9912 241.11 17.2304L242.39 17.539C243.956 17.917 244.712 18.5959 244.712 19.784V19.7994C244.712 21.2807 243.27 22.3067 241.38 22.3067ZM253.613 22.3067C251.723 22.3067 250.751 21.1958 250.751 19.2285V13.8436H252.094V18.9045C252.094 20.4012 252.634 21.1187 253.961 21.1187C255.426 21.1187 256.206 20.2237 256.206 18.7656V13.8436H257.548V22.1602H256.206V20.9181H256.082C255.673 21.8053 254.832 22.3067 253.613 22.3067ZM259.85 22.1602V13.8436H261.192V15.0934H261.316C261.732 14.2139 262.512 13.697 263.738 13.697C265.605 13.697 266.647 14.8002 266.647 16.7752V22.1602H265.304V17.0992C265.304 15.6025 264.687 14.8851 263.36 14.8851C262.033 14.8851 261.192 15.78 261.192 17.2381V22.1602H259.85ZM271.155 22.3067C269.574 22.3067 268.378 21.3501 268.378 19.838V19.8226C268.378 18.3413 269.473 17.485 271.41 17.3692L273.794 17.2227V16.4666C273.794 15.4405 273.169 14.8851 271.927 14.8851C270.931 14.8851 270.276 15.2554 270.06 15.9034L270.052 15.9266H268.71L268.717 15.8803C268.933 14.5765 270.198 13.697 271.973 13.697C274.002 13.697 275.136 14.7385 275.136 16.4666V22.1602H273.794V20.9335H273.67C273.146 21.8207 272.274 22.3067 271.155 22.3067ZM269.751 19.8071C269.751 20.648 270.469 21.1418 271.433 21.1418C272.798 21.1418 273.794 20.2469 273.794 19.0588V18.3027L271.572 18.4416C270.307 18.5187 269.751 18.9662 269.751 19.7917V19.8071ZM19.327 43.1602V31.5416H20.6693V43.1602H19.327ZM23.1178 43.1602V31.5416H24.4602V43.1602H23.1178ZM29.1152 43.3067C27.5336 43.3067 26.3378 42.3501 26.3378 40.838V40.8226C26.3378 39.3413 27.4333 38.485 29.3698 38.3692L31.7537 38.2227V37.4666C31.7537 36.4405 31.1288 35.8851 29.8867 35.8851C28.8914 35.8851 28.2357 36.2554 28.0197 36.9034L28.012 36.9266H26.6696L26.6773 36.8803C26.8933 35.5765 28.1585 34.697 29.9329 34.697C31.962 34.697 33.096 35.7385 33.096 37.4666V43.1602H31.7537V41.9335H31.6302C31.1056 42.8207 30.2338 43.3067 29.1152 43.3067ZM27.7111 40.8071C27.7111 41.648 28.4286 42.1418 29.3929 42.1418C30.7584 42.1418 31.7537 41.2469 31.7537 40.0588V39.3027L29.5318 39.4416C28.2665 39.5187 27.7111 39.9662 27.7111 40.7917V40.8071ZM35.344 43.1602V34.8436H36.6863V36.1088H36.8098C37.1801 35.2139 37.967 34.697 39.0548 34.697C40.1812 34.697 40.9681 35.291 41.3538 36.1551H41.4773C41.9247 35.2756 42.8736 34.697 44.0232 34.697C45.7204 34.697 46.6693 35.669 46.6693 37.4126V43.1602H45.327V37.7212C45.327 36.4945 44.7638 35.8851 43.5911 35.8851C42.4339 35.8851 41.6701 36.7568 41.6701 37.8138V43.1602H40.3277V37.5129C40.3277 36.5254 39.6488 35.8851 38.5996 35.8851C37.5118 35.8851 36.6863 36.834 36.6863 38.0066V43.1602H35.344ZM51.17 43.3067C49.5885 43.3067 48.3927 42.3501 48.3927 40.838V40.8226C48.3927 39.3413 49.4882 38.485 51.4246 38.3692L53.8085 38.2227V37.4666C53.8085 36.4405 53.1836 35.8851 51.9415 35.8851C50.9463 35.8851 50.2905 36.2554 50.0745 36.9034L50.0668 36.9266H48.7244L48.7321 36.8803C48.9481 35.5765 50.2134 34.697 51.9878 34.697C54.0168 34.697 55.1509 35.7385 55.1509 37.4666V43.1602H53.8085V41.9335H53.685C53.1604 42.8207 52.2887 43.3067 51.17 43.3067ZM49.7659 40.8071C49.7659 41.648 50.4834 42.1418 51.4477 42.1418C52.8133 42.1418 53.8085 41.2469 53.8085 40.0588V39.3027L51.5866 39.4416C50.3214 39.5187 49.7659 39.9662 49.7659 40.7917V40.8071ZM60.4693 43.3067C58.3631 43.3067 56.9822 41.6018 56.9822 39.0096V38.9941C56.9822 36.3865 58.3554 34.697 60.4693 34.697C61.6111 34.697 62.6063 35.2679 63.0615 36.1551H63.1849V31.5416H64.5273V43.1602H63.1849V41.8332H63.0615C62.5523 42.759 61.6265 43.3067 60.4693 43.3067ZM60.7779 42.1187C62.29 42.1187 63.2158 40.9306 63.2158 39.0096V38.9941C63.2158 37.0731 62.29 35.8851 60.7779 35.8851C59.2581 35.8851 58.3554 37.0577 58.3554 38.9941V39.0096C58.3554 40.946 59.2581 42.1187 60.7779 42.1187ZM69.1822 43.3067C67.6007 43.3067 66.4049 42.3501 66.4049 40.838V40.8226C66.4049 39.3413 67.5004 38.485 69.4368 38.3692L71.8207 38.2227V37.4666C71.8207 36.4405 71.1958 35.8851 69.9537 35.8851C68.9585 35.8851 68.3028 36.2554 68.0867 36.9034L68.079 36.9266H66.7366L66.7444 36.8803C66.9604 35.5765 68.2256 34.697 70 34.697C72.029 34.697 73.1631 35.7385 73.1631 37.4666V43.1602H71.8207V41.9335H71.6973C71.1727 42.8207 70.3009 43.3067 69.1822 43.3067ZM67.7781 40.8071C67.7781 41.648 68.4956 42.1418 69.46 42.1418C70.8255 42.1418 71.8207 41.2469 71.8207 40.0588V39.3027L69.5988 39.4416C68.3336 39.5187 67.7781 39.9662 67.7781 40.7917V40.8071ZM79.6494 45.9375V34.8436H80.9918V36.1705H81.1152C81.6244 35.2447 82.5502 34.697 83.7074 34.697C85.8135 34.697 87.1945 36.402 87.1945 38.9941V39.0096C87.1945 41.6172 85.8213 43.3067 83.7074 43.3067C82.5656 43.3067 81.5704 42.7358 81.1152 41.8486H80.9918V45.9375H79.6494ZM83.3988 42.1187C84.9186 42.1187 85.8213 40.946 85.8213 39.0096V38.9941C85.8213 37.0577 84.9186 35.8851 83.3988 35.8851C81.8867 35.8851 80.9609 37.0731 80.9609 38.9941V39.0096C80.9609 40.9306 81.8867 42.1187 83.3988 42.1187ZM91.3711 43.3067C89.7896 43.3067 88.5938 42.3501 88.5938 40.838V40.8226C88.5938 39.3413 89.6893 38.485 91.6257 38.3692L94.0096 38.2227V37.4666C94.0096 36.4405 93.3847 35.8851 92.1426 35.8851C91.1474 35.8851 90.4916 36.2554 90.2756 36.9034L90.2679 36.9266H88.9255L88.9332 36.8803C89.1493 35.5765 90.4145 34.697 92.1889 34.697C94.2179 34.697 95.352 35.7385 95.352 37.4666V43.1602H94.0096V41.9335H93.8862C93.3616 42.8207 92.4898 43.3067 91.3711 43.3067ZM89.967 40.8071C89.967 41.648 90.6845 42.1418 91.6489 42.1418C93.0144 42.1418 94.0096 41.2469 94.0096 40.0588V39.3027L91.7877 39.4416C90.5225 39.5187 89.967 39.9662 89.967 40.7917V40.8071ZM97.5999 43.1602V34.8436H98.9423V36.0779H99.0657C99.382 35.2062 100.161 34.697 101.288 34.697C101.542 34.697 101.828 34.7278 101.959 34.751V36.0548C101.681 36.0085 101.426 35.9776 101.133 35.9776C99.8526 35.9776 98.9423 36.7877 98.9423 38.0066V43.1602H97.5999ZM105.696 43.3067C104.114 43.3067 102.918 42.3501 102.918 40.838V40.8226C102.918 39.3413 104.014 38.485 105.95 38.3692L108.334 38.2227V37.4666C108.334 36.4405 107.709 35.8851 106.467 35.8851C105.472 35.8851 104.816 36.2554 104.6 36.9034L104.592 36.9266H103.25L103.258 36.8803C103.474 35.5765 104.739 34.697 106.513 34.697C108.542 34.697 109.677 35.7385 109.677 37.4666V43.1602H108.334V41.9335H108.211C107.686 42.8207 106.814 43.3067 105.696 43.3067ZM104.292 40.8071C104.292 41.648 105.009 42.1418 105.973 42.1418C107.339 42.1418 108.334 41.2469 108.334 40.0588V39.3027L106.112 39.4416C104.847 39.5187 104.292 39.9662 104.292 40.7917V40.8071ZM119.557 43.3067C117.181 43.3067 115.746 41.6403 115.746 39.0327V39.025C115.746 36.456 117.212 34.697 119.472 34.697C121.733 34.697 123.106 36.3788 123.106 38.863V39.3876H117.119C117.158 41.108 118.107 42.1109 119.588 42.1109C120.715 42.1109 121.409 41.5786 121.633 41.0771L121.663 41.0077H123.006L122.99 41.0694C122.705 42.1958 121.517 43.3067 119.557 43.3067ZM119.465 35.8928C118.23 35.8928 117.289 36.7337 117.143 38.3152H121.741C121.602 36.672 120.691 35.8928 119.465 35.8928ZM125.061 43.1602V31.5416H126.403V43.1602H125.061ZM136.084 43.3067C133.977 43.3067 132.596 41.6018 132.596 39.0096V38.9941C132.596 36.3865 133.97 34.697 136.084 34.697C137.225 34.697 138.221 35.2679 138.676 36.1551H138.799V31.5416H140.142V43.1602H138.799V41.8332H138.676C138.167 42.759 137.241 43.3067 136.084 43.3067ZM136.392 42.1187C137.904 42.1187 138.83 40.9306 138.83 39.0096V38.9941C138.83 37.0731 137.904 35.8851 136.392 35.8851C134.872 35.8851 133.97 37.0577 133.97 38.9941V39.0096C133.97 40.946 134.872 42.1187 136.392 42.1187ZM143.223 33.2389C142.713 33.2389 142.297 32.8223 142.297 32.3131C142.297 31.8039 142.713 31.3873 143.223 31.3873C143.732 31.3873 144.148 31.8039 144.148 32.3131C144.148 32.8223 143.732 33.2389 143.223 33.2389ZM142.544 43.1602V34.8436H143.886V43.1602H142.544ZM148.495 43.3067C146.913 43.3067 145.717 42.3501 145.717 40.838V40.8226C145.717 39.3413 146.813 38.485 148.749 38.3692L151.133 38.2227V37.4666C151.133 36.4405 150.508 35.8851 149.266 35.8851C148.271 35.8851 147.615 36.2554 147.399 36.9034L147.392 36.9266H146.049L146.057 36.8803C146.273 35.5765 147.538 34.697 149.313 34.697C151.342 34.697 152.476 35.7385 152.476 37.4666V43.1602H151.133V41.9335H151.01C150.485 42.8207 149.613 43.3067 148.495 43.3067ZM147.091 40.8071C147.091 41.648 147.808 42.1418 148.773 42.1418C150.138 42.1418 151.133 41.2469 151.133 40.0588V39.3027L148.911 39.4416C147.646 39.5187 147.091 39.9662 147.091 40.7917V40.8071ZM162.032 43.3067C159.926 43.3067 158.545 41.6018 158.545 39.0096V38.9941C158.545 36.3865 159.919 34.697 162.032 34.697C163.174 34.697 164.169 35.2679 164.625 36.1551H164.748V31.5416H166.09V43.1602H164.748V41.8332H164.625C164.115 42.759 163.19 43.3067 162.032 43.3067ZM162.341 42.1187C163.853 42.1187 164.779 40.9306 164.779 39.0096V38.9941C164.779 37.0731 163.853 35.8851 162.341 35.8851C160.821 35.8851 159.919 37.0577 159.919 38.9941V39.0096C159.919 40.946 160.821 42.1187 162.341 42.1187ZM171.856 43.3067C169.48 43.3067 168.045 41.6403 168.045 39.0327V39.025C168.045 36.456 169.511 34.697 171.771 34.697C174.032 34.697 175.405 36.3788 175.405 38.863V39.3876H169.418C169.457 41.108 170.406 42.1109 171.887 42.1109C173.014 42.1109 173.708 41.5786 173.932 41.0771L173.962 41.0077H175.305L175.289 41.0694C175.004 42.1958 173.816 43.3067 171.856 43.3067ZM171.764 35.8928C170.529 35.8928 169.588 36.7337 169.442 38.3152H174.04C173.901 36.672 172.99 35.8928 171.764 35.8928ZM181.598 43.1602V31.5416H182.941V36.0934H183.064C183.481 35.2139 184.26 34.697 185.487 34.697C187.354 34.697 188.395 35.8002 188.395 37.7752V43.1602H187.053V38.0992C187.053 36.6025 186.435 35.8851 185.109 35.8851C183.782 35.8851 182.941 36.78 182.941 38.2381V43.1602H181.598ZM194.037 43.3067C191.669 43.3067 190.203 41.6712 190.203 39.0096V38.9941C190.203 36.3248 191.669 34.697 194.037 34.697C196.406 34.697 197.872 36.3248 197.872 38.9941V39.0096C197.872 41.6712 196.406 43.3067 194.037 43.3067ZM194.037 42.1187C195.611 42.1187 196.499 40.9691 196.499 39.0096V38.9941C196.499 37.0269 195.611 35.8851 194.037 35.8851C192.464 35.8851 191.576 37.0269 191.576 38.9941V39.0096C191.576 40.9691 192.464 42.1187 194.037 42.1187ZM200.151 46.0764C199.973 46.0764 199.742 46.0609 199.557 46.0301V44.9269C199.719 44.9577 199.927 44.9654 200.112 44.9654C200.876 44.9654 201.339 44.6183 201.64 43.6616L201.794 43.1679L198.716 34.8436H200.151L202.434 41.6866H202.558L204.833 34.8436H206.245L202.997 43.6693C202.311 45.5363 201.624 46.0764 200.151 46.0764ZM214.336 43.3067C212.755 43.3067 211.559 42.3501 211.559 40.838V40.8226C211.559 39.3413 212.654 38.485 214.591 38.3692L216.975 38.2227V37.4666C216.975 36.4405 216.35 35.8851 215.108 35.8851C214.112 35.8851 213.457 36.2554 213.241 36.9034L213.233 36.9266H211.891L211.898 36.8803C212.114 35.5765 213.38 34.697 215.154 34.697C217.183 34.697 218.317 35.7385 218.317 37.4666V43.1602H216.975V41.9335H216.851C216.327 42.8207 215.455 43.3067 214.336 43.3067ZM212.932 40.8071C212.932 41.648 213.65 42.1418 214.614 42.1418C215.979 42.1418 216.975 41.2469 216.975 40.0588V39.3027L214.753 39.4416C213.488 39.5187 212.932 39.9662 212.932 40.7917V40.8071ZM224.881 43.1602V31.5416H226.223V43.1602H224.881ZM230.878 43.3067C229.296 43.3067 228.101 42.3501 228.101 40.838V40.8226C228.101 39.3413 229.196 38.485 231.132 38.3692L233.516 38.2227V37.4666C233.516 36.4405 232.891 35.8851 231.649 35.8851C230.654 35.8851 229.998 36.2554 229.782 36.9034L229.775 36.9266H228.432L228.44 36.8803C228.656 35.5765 229.921 34.697 231.696 34.697C233.725 34.697 234.859 35.7385 234.859 37.4666V43.1602H233.516V41.9335H233.393C232.868 42.8207 231.997 43.3067 230.878 43.3067ZM229.474 40.8071C229.474 41.648 230.191 42.1418 231.156 42.1418C232.521 42.1418 233.516 41.2469 233.516 40.0588V39.3027L231.294 39.4416C230.029 39.5187 229.474 39.9662 229.474 40.7917V40.8071ZM239.961 43.3067C238.11 43.3067 236.837 42.4118 236.682 41.0386H238.056C238.279 41.7329 238.943 42.1881 240.007 42.1881C241.126 42.1881 241.921 41.6558 241.921 40.8997V40.8843C241.921 40.3211 241.496 39.9276 240.47 39.6808L239.182 39.3722C237.624 39.0019 236.921 38.3229 236.921 37.1271V37.1194C236.921 35.7385 238.248 34.697 240.015 34.697C241.759 34.697 242.97 35.5687 243.155 36.9266H241.836C241.658 36.2708 241.01 35.8156 240.007 35.8156C239.02 35.8156 238.295 36.3248 238.295 37.0577V37.0731C238.295 37.6363 238.711 37.9912 239.691 38.2304L240.972 38.539C242.538 38.917 243.294 39.5959 243.294 40.784V40.7994C243.294 42.2807 241.851 43.3067 239.961 43.3067ZM21.9654 64.1602V54.5706H21.842L19.0106 56.6228V55.1569L21.9731 53.0276H23.3541V64.1602H21.9654ZM26.8287 64.1602L31.8279 54.3777V54.2697H25.872V53.0276H33.2397V54.316L28.2868 64.1602H26.8287ZM36.1048 56.6073C35.5571 56.6073 35.1019 56.1521 35.1019 55.6044C35.1019 55.0489 35.5571 54.6015 36.1048 54.6015C36.6603 54.6015 37.1078 55.0489 37.1078 55.6044C37.1078 56.1521 36.6603 56.6073 36.1048 56.6073ZM36.1048 62.5786C35.5571 62.5786 35.1019 62.1234 35.1019 61.5757C35.1019 61.0202 35.5571 60.5728 36.1048 60.5728C36.6603 60.5728 37.1078 61.0202 37.1078 61.5757C37.1078 62.1234 36.6603 62.5786 36.1048 62.5786ZM43.2131 64.4225C40.7521 64.4225 39.2862 62.1774 39.2862 58.5978V58.5823C39.2862 55.0026 40.7521 52.7653 43.2131 52.7653C45.6741 52.7653 47.1554 55.0026 47.1554 58.5823V58.5978C47.1554 62.1774 45.6741 64.4225 43.2131 64.4225ZM43.2131 63.2112C44.8101 63.2112 45.759 61.4368 45.759 58.5978V58.5823C45.759 55.7433 44.8101 53.9843 43.2131 53.9843C41.6161 53.9843 40.6826 55.7433 40.6826 58.5823V58.5978C40.6826 61.4368 41.6161 63.2112 43.2131 63.2112ZM52.9598 64.4225C50.4988 64.4225 49.033 62.1774 49.033 58.5978V58.5823C49.033 55.0026 50.4988 52.7653 52.9598 52.7653C55.4209 52.7653 56.9021 55.0026 56.9021 58.5823V58.5978C56.9021 62.1774 55.4209 64.4225 52.9598 64.4225ZM52.9598 63.2112C54.5568 63.2112 55.5057 61.4368 55.5057 58.5978V58.5823C55.5057 55.7433 54.5568 53.9843 52.9598 53.9843C51.3629 53.9843 50.4294 55.7433 50.4294 58.5823V58.5978C50.4294 61.4368 51.3629 63.2112 52.9598 63.2112ZM63.3035 64.1602V52.5416H64.6459V57.0934H64.7694C65.186 56.2139 65.9652 55.697 67.1918 55.697C69.0588 55.697 70.1003 56.8002 70.1003 58.7752V64.1602H68.7579V59.0992C68.7579 57.6025 68.1407 56.8851 66.8138 56.8851C65.4868 56.8851 64.6459 57.78 64.6459 59.2381V64.1602H63.3035ZM72.3251 64.1602V55.8436H73.6675V57.0779H73.7909C74.1072 56.2062 74.8864 55.697 76.0128 55.697C76.2674 55.697 76.5528 55.7278 76.684 55.751V57.0548C76.4062 57.0085 76.1517 56.9776 75.8585 56.9776C74.5778 56.9776 73.6675 57.7877 73.6675 59.0066V64.1602H72.3251ZM80.8375 64.3067C78.9859 64.3067 77.713 63.4118 77.5587 62.0386H78.9319C79.1556 62.7329 79.8191 63.1881 80.8838 63.1881C82.0024 63.1881 82.797 62.6558 82.797 61.8997V61.8843C82.797 61.3211 82.3727 60.9276 81.3466 60.6808L80.0583 60.3722C78.4999 60.0019 77.7978 59.3229 77.7978 58.1271V58.1194C77.7978 56.7385 79.1248 55.697 80.8915 55.697C82.635 55.697 83.8463 56.5687 84.0314 57.9266H82.7122C82.5347 57.2708 81.8867 56.8156 80.8838 56.8156C79.8963 56.8156 79.1711 57.3248 79.1711 58.0577V58.0731C79.1711 58.6363 79.5877 58.9912 80.5674 59.2304L81.8481 59.539C83.4142 59.917 84.1703 60.5959 84.1703 61.784V61.7994C84.1703 63.2807 82.7276 64.3067 80.8375 64.3067ZM90.2862 66.9375V55.8436H91.6286V57.1705H91.7521C92.2612 56.2447 93.187 55.697 94.3442 55.697C96.4504 55.697 97.8314 57.402 97.8314 59.9941V60.0096C97.8314 62.6172 96.4581 64.3067 94.3442 64.3067C93.2024 64.3067 92.2072 63.7358 91.7521 62.8486H91.6286V66.9375H90.2862ZM94.0356 63.1187C95.5555 63.1187 96.4581 61.946 96.4581 60.0096V59.9941C96.4581 58.0577 95.5555 56.8851 94.0356 56.8851C92.5235 56.8851 91.5978 58.0731 91.5978 59.9941V60.0096C91.5978 61.9306 92.5235 63.1187 94.0356 63.1187ZM102.008 64.3067C100.426 64.3067 99.2306 63.3501 99.2306 61.838V61.8226C99.2306 60.3413 100.326 59.485 102.263 59.3692L104.646 59.2227V58.4666C104.646 57.4405 104.022 56.8851 102.779 56.8851C101.784 56.8851 101.128 57.2554 100.912 57.9034L100.905 57.9266H99.5624L99.5701 57.8803C99.7861 56.5765 101.051 55.697 102.826 55.697C104.855 55.697 105.989 56.7385 105.989 58.4666V64.1602H104.646V62.9335H104.523C103.998 63.8207 103.127 64.3067 102.008 64.3067ZM100.604 61.8071C100.604 62.648 101.321 63.1418 102.286 63.1418C103.651 63.1418 104.646 62.2469 104.646 61.0588V60.3027L102.425 60.4416C101.159 60.5187 100.604 60.9662 100.604 61.7917V61.8071ZM108.237 64.1602V55.8436H109.579V57.0779H109.703C110.019 56.2062 110.798 55.697 111.924 55.697C112.179 55.697 112.465 55.7278 112.596 55.751V57.0548C112.318 57.0085 112.063 56.9776 111.77 56.9776C110.49 56.9776 109.579 57.7877 109.579 59.0066V64.1602H108.237ZM116.333 64.3067C114.751 64.3067 113.555 63.3501 113.555 61.838V61.8226C113.555 60.3413 114.651 59.485 116.587 59.3692L118.971 59.2227V58.4666C118.971 57.4405 118.346 56.8851 117.104 56.8851C116.109 56.8851 115.453 57.2554 115.237 57.9034L115.229 57.9266H113.887L113.895 57.8803C114.111 56.5765 115.376 55.697 117.15 55.697C119.179 55.697 120.313 56.7385 120.313 58.4666V64.1602H118.971V62.9335H118.848C118.323 63.8207 117.451 64.3067 116.333 64.3067ZM114.928 61.8071C114.928 62.648 115.646 63.1418 116.61 63.1418C117.976 63.1418 118.971 62.2469 118.971 61.0588V60.3027L116.749 60.4416C115.484 60.5187 114.928 60.9662 114.928 61.7917V61.8071ZM126.8 66.9375V55.8436H128.142V57.1705H128.265C128.775 56.2447 129.7 55.697 130.858 55.697C132.964 55.697 134.345 57.402 134.345 59.9941V60.0096C134.345 62.6172 132.972 64.3067 130.858 64.3067C129.716 64.3067 128.721 63.7358 128.265 62.8486H128.142V66.9375H126.8ZM130.549 63.1187C132.069 63.1187 132.972 61.946 132.972 60.0096V59.9941C132.972 58.0577 132.069 56.8851 130.549 56.8851C129.037 56.8851 128.111 58.0731 128.111 59.9941V60.0096C128.111 61.9306 129.037 63.1187 130.549 63.1187ZM139.655 64.3067C137.287 64.3067 135.821 62.6712 135.821 60.0096V59.9941C135.821 57.3248 137.287 55.697 139.655 55.697C142.024 55.697 143.49 57.3248 143.49 59.9941V60.0096C143.49 62.6712 142.024 64.3067 139.655 64.3067ZM139.655 63.1187C141.229 63.1187 142.117 61.9691 142.117 60.0096V59.9941C142.117 58.0269 141.229 56.8851 139.655 56.8851C138.082 56.8851 137.194 58.0269 137.194 59.9941V60.0096C137.194 61.9691 138.082 63.1187 139.655 63.1187ZM148.438 64.3067C146.332 64.3067 144.951 62.6018 144.951 60.0096V59.9941C144.951 57.3865 146.324 55.697 148.438 55.697C149.58 55.697 150.575 56.2679 151.03 57.1551H151.154V52.5416H152.496V64.1602H151.154V62.8332H151.03C150.521 63.759 149.595 64.3067 148.438 64.3067ZM148.746 63.1187C150.259 63.1187 151.184 61.9306 151.184 60.0096V59.9941C151.184 58.0731 150.259 56.8851 148.746 56.8851C147.227 56.8851 146.324 58.0577 146.324 59.9941V60.0096C146.324 61.946 147.227 63.1187 148.746 63.1187ZM158.262 64.3067C155.886 64.3067 154.451 62.6403 154.451 60.0327V60.025C154.451 57.456 155.916 55.697 158.177 55.697C160.437 55.697 161.811 57.3788 161.811 59.863V60.3876H155.824C155.862 62.108 156.811 63.1109 158.293 63.1109C159.419 63.1109 160.113 62.5786 160.337 62.0771L160.368 62.0077H161.71L161.695 62.0694C161.409 63.1958 160.221 64.3067 158.262 64.3067ZM158.169 56.8928C156.935 56.8928 155.994 57.7337 155.847 59.3152H160.445C160.306 57.672 159.396 56.8928 158.169 56.8928ZM163.688 64.1602V55.8436H165.031V57.0779H165.154C165.47 56.2062 166.25 55.697 167.376 55.697C167.631 55.697 167.916 55.7278 168.047 55.751V57.0548C167.769 57.0085 167.515 56.9776 167.222 56.9776C165.941 56.9776 165.031 57.7877 165.031 59.0066V64.1602H163.688ZM176.022 64.3067C174.441 64.3067 173.245 63.3501 173.245 61.838V61.8226C173.245 60.3413 174.34 59.485 176.277 59.3692L178.661 59.2227V58.4666C178.661 57.4405 178.036 56.8851 176.794 56.8851C175.799 56.8851 175.143 57.2554 174.927 57.9034L174.919 57.9266H173.577L173.584 57.8803C173.8 56.5765 175.066 55.697 176.84 55.697C178.869 55.697 180.003 56.7385 180.003 58.4666V64.1602H178.661V62.9335H178.537C178.013 63.8207 177.141 64.3067 176.022 64.3067ZM174.618 61.8071C174.618 62.648 175.336 63.1418 176.3 63.1418C177.666 63.1418 178.661 62.2469 178.661 61.0588V60.3027L176.439 60.4416C175.174 60.5187 174.618 60.9662 174.618 61.7917V61.8071ZM185.206 64.2219C183.493 64.2219 182.776 63.5893 182.776 62V56.9545H181.464V55.8436H182.776V53.6911H184.164V55.8436H185.985V56.9545H184.164V61.6605C184.164 62.6403 184.504 63.0338 185.368 63.0338C185.607 63.0338 185.738 63.0261 185.985 63.0029V64.1447C185.723 64.191 185.468 64.2219 185.206 64.2219ZM191.057 64.3067C188.68 64.3067 187.246 62.6403 187.246 60.0327V60.025C187.246 57.456 188.711 55.697 190.972 55.697C193.232 55.697 194.605 57.3788 194.605 59.863V60.3876H188.619C188.657 62.108 189.606 63.1109 191.088 63.1109C192.214 63.1109 192.908 62.5786 193.132 62.0771L193.163 62.0077H194.505L194.49 62.0694C194.204 63.1958 193.016 64.3067 191.057 64.3067ZM190.964 56.8928C189.73 56.8928 188.788 57.7337 188.642 59.3152H193.24C193.101 57.672 192.191 56.8928 190.964 56.8928ZM196.483 64.1602V55.8436H197.825V57.0779H197.949C198.265 56.2062 199.044 55.697 200.171 55.697C200.425 55.697 200.711 55.7278 200.842 55.751V57.0548C200.564 57.0085 200.31 56.9776 200.016 56.9776C198.736 56.9776 197.825 57.7877 197.825 59.0066V64.1602H196.483ZM202.45 64.1602V55.8436H203.792V57.0779H203.915C204.232 56.2062 205.011 55.697 206.137 55.697C206.392 55.697 206.677 55.7278 206.808 55.751V57.0548C206.531 57.0085 206.276 56.9776 205.983 56.9776C204.702 56.9776 203.792 57.7877 203.792 59.0066V64.1602H202.45ZM208.972 54.2389C208.462 54.2389 208.046 53.8223 208.046 53.3131C208.046 52.8039 208.462 52.3873 208.972 52.3873C209.481 52.3873 209.897 52.8039 209.897 53.3131C209.897 53.8223 209.481 54.2389 208.972 54.2389ZM208.293 64.1602V55.8436H209.635V64.1602H208.293ZM211.767 64.1602V63.1881L216.566 57.0779V56.9545H211.775V55.8436H218.147V56.8388L213.372 62.9258V63.0492H218.171V64.1602H211.767ZM222.555 64.3067C220.974 64.3067 219.778 63.3501 219.778 61.838V61.8226C219.778 60.3413 220.874 59.485 222.81 59.3692L225.194 59.2227V58.4666C225.194 57.4405 224.569 56.8851 223.327 56.8851C222.332 56.8851 221.676 57.2554 221.46 57.9034L221.452 57.9266H220.11L220.118 57.8803C220.334 56.5765 221.599 55.697 223.373 55.697C225.402 55.697 226.536 56.7385 226.536 58.4666V64.1602H225.194V62.9335H225.07C224.546 63.8207 223.674 64.3067 222.555 64.3067ZM221.151 61.8071C221.151 62.648 221.869 63.1418 222.833 63.1418C224.199 63.1418 225.194 62.2469 225.194 61.0588V60.3027L222.972 60.4416C221.707 60.5187 221.151 60.9662 221.151 61.7917V61.8071ZM228.784 64.1602V55.8436H230.127V57.0779H230.25C230.566 56.2062 231.346 55.697 232.472 55.697C232.727 55.697 233.012 55.7278 233.143 55.751V57.0548C232.865 57.0085 232.611 56.9776 232.318 56.9776C231.037 56.9776 230.127 57.7877 230.127 59.0066V64.1602H228.784Z" fill="#0A0A0A"/>
<path d="M257.084 67.6602V60.9839H256.998L255.027 62.4126V61.3921L257.09 59.9097H258.051V67.6602H257.084ZM263.58 67.8428C262.162 67.8428 260.664 66.8438 260.664 63.9272V63.9165C260.664 61.2739 261.765 59.7271 263.645 59.7271C264.944 59.7271 265.911 60.4897 266.174 61.6338L266.191 61.7036H265.218L265.197 61.6445C264.961 60.9946 264.418 60.5918 263.634 60.5918C262.227 60.5918 261.652 61.9668 261.593 63.5835C261.588 63.6426 261.588 63.707 261.588 63.7661H261.69C261.974 63.1323 262.705 62.5684 263.752 62.5684C265.208 62.5684 266.293 63.6748 266.293 65.1626V65.1733C266.293 66.7202 265.143 67.8428 263.58 67.8428ZM261.819 65.1626C261.819 66.1831 262.587 66.9888 263.569 66.9888C264.542 66.9888 265.32 66.1992 265.32 65.1948V65.1841C265.32 64.1528 264.59 63.4116 263.586 63.4116C262.581 63.4116 261.819 64.1475 261.819 65.1572V65.1626ZM269.163 62.4019C268.782 62.4019 268.465 62.085 268.465 61.7036C268.465 61.3169 268.782 61.0054 269.163 61.0054C269.55 61.0054 269.861 61.3169 269.861 61.7036C269.861 62.085 269.55 62.4019 269.163 62.4019ZM269.163 66.5591C268.782 66.5591 268.465 66.2422 268.465 65.8608C268.465 65.4741 268.782 65.1626 269.163 65.1626C269.55 65.1626 269.861 65.4741 269.861 65.8608C269.861 66.2422 269.55 66.5591 269.163 66.5591ZM274.106 67.6602V60.9839H274.021L272.049 62.4126V61.3921L274.112 59.9097H275.073V67.6602H274.106ZM280.5 67.7891C278.9 67.7891 277.863 66.8975 277.761 65.6729L277.756 65.6084H278.685L278.69 65.6621C278.765 66.4248 279.469 66.9512 280.5 66.9512C281.515 66.9512 282.208 66.3818 282.208 65.5601V65.5493C282.208 64.5986 281.526 64.0669 280.441 64.0669H279.469V63.2505H280.398C281.322 63.2505 281.967 62.6812 281.967 61.9077V61.897C281.967 61.0859 281.435 60.6187 280.49 60.6187C279.576 60.6187 278.927 61.1021 278.846 61.8862L278.841 61.9399H277.911L277.917 61.8862C278.04 60.624 279.039 59.7808 280.49 59.7808C281.967 59.7808 282.939 60.6025 282.939 61.7788V61.7896C282.939 62.7456 282.262 63.4009 281.295 63.605V63.6265C282.423 63.7231 283.191 64.4268 283.191 65.5278V65.5386C283.191 66.833 282.052 67.7891 280.5 67.7891Z" fill="black" fill-opacity="0.5"/>
</svg>
