<svg width="44" height="43" viewBox="0 0 44 43" fill="none" xmlns="http://www.w3.org/2000/svg">
<g filter="url(#filter0_d_2002_881)">
<path d="M0 7.36C0 4.78376 0 3.49564 0.50137 2.51164C0.942388 1.6461 1.6461 0.942388 2.51164 0.50137C3.49564 0 4.78376 0 7.36 0H36.64C39.2162 0 40.5044 0 41.4884 0.50137C42.3539 0.942388 43.0576 1.6461 43.4986 2.51164C44 3.49564 44 4.78376 44 7.36V34.64C44 37.2162 44 38.5044 43.4986 39.4884C43.0576 40.3539 42.3539 41.0576 41.4884 41.4986C40.5044 42 39.2162 42 36.64 42H7.36C4.78376 42 3.49564 42 2.51164 41.4986C1.6461 41.0576 0.942388 40.3539 0.50137 39.4884C0 38.5044 0 37.2162 0 34.64V7.36Z" fill="#ABB0BA" shape-rendering="crispEdges"/>
<path d="M29.2656 29.9531L20.7891 29.9434C20.4049 29.9434 20.0404 29.901 19.6953 29.8164C19.3568 29.7383 19.0312 29.6113 18.7188 29.4355C18.4128 29.2598 18.1263 29.0319 17.8594 28.752L12.0977 22.8047C11.7786 22.4727 11.5443 22.1569 11.3945 21.8574C11.2448 21.5514 11.1699 21.2487 11.1699 20.9492C11.1699 20.7409 11.2025 20.5391 11.2676 20.3438C11.3327 20.1419 11.4336 19.9368 11.5703 19.7285C11.707 19.5202 11.8828 19.3086 12.0977 19.0938L17.8496 13.1172C18.1165 12.8372 18.403 12.6126 18.709 12.4434C19.0215 12.2741 19.347 12.1536 19.6855 12.082C20.0306 12.0104 20.3952 11.9746 20.7793 11.9746H29.2656C30.2878 11.9746 31.0527 12.2285 31.5605 12.7363C32.0749 13.2376 32.332 13.9928 32.332 15.002V26.9258C32.332 27.9349 32.0749 28.6901 31.5605 29.1914C31.0527 29.6992 30.2878 29.9531 29.2656 29.9531ZM29.2461 28.3809C29.7344 28.3809 30.1087 28.2539 30.3691 28C30.6296 27.7396 30.7598 27.3555 30.7598 26.8477V15.0801C30.7598 14.5723 30.6296 14.1914 30.3691 13.9375C30.1087 13.6771 29.7344 13.5469 29.2461 13.5469H20.75C20.3854 13.5469 20.0697 13.5892 19.8027 13.6738C19.5423 13.7585 19.2852 13.931 19.0312 14.1914L13.3184 20.1191C13.0319 20.4316 12.8887 20.7083 12.8887 20.9492C12.8887 21.0729 12.918 21.1999 12.9766 21.3301C13.0417 21.4538 13.1556 21.6003 13.3184 21.7695L19.041 27.6777C19.2949 27.9382 19.5521 28.1204 19.8125 28.2246C20.0729 28.3288 20.3887 28.3809 20.7598 28.3809H29.2461ZM20.2129 25.0898C19.998 25.0898 19.8125 25.0117 19.6562 24.8555C19.5065 24.6992 19.4316 24.5137 19.4316 24.2988C19.4316 24.084 19.5098 23.9017 19.666 23.752L22.4395 20.9688L19.666 18.1855C19.5098 18.0358 19.4316 17.8535 19.4316 17.6387C19.4316 17.4238 19.5065 17.2415 19.6562 17.0918C19.8125 16.9421 19.998 16.8672 20.2129 16.8672C20.4342 16.8672 20.6165 16.9453 20.7598 17.1016L23.543 19.875L26.3555 17.0918C26.5117 16.929 26.6908 16.8477 26.8926 16.8477C27.1074 16.8477 27.2897 16.9258 27.4395 17.082C27.5957 17.2318 27.6738 17.4141 27.6738 17.6289C27.6738 17.8372 27.5957 18.0195 27.4395 18.1758L24.6562 20.9688L27.4297 23.7422C27.5859 23.8984 27.6641 24.084 27.6641 24.2988C27.6641 24.5137 27.5859 24.6992 27.4297 24.8555C27.2799 25.0117 27.0977 25.0898 26.8828 25.0898C26.668 25.0898 26.4824 25.0085 26.3262 24.8457L23.543 22.0723L20.7793 24.8457C20.6296 25.0085 20.4408 25.0898 20.2129 25.0898Z" fill="black"/>
</g>
<defs>
<filter id="filter0_d_2002_881" x="0" y="0" width="44" height="43" filterUnits="userSpaceOnUse" color-interpolation-filters="sRGB">
<feFlood flood-opacity="0" result="BackgroundImageFix"/>
<feColorMatrix in="SourceAlpha" type="matrix" values="0 0 0 0 0 0 0 0 0 0 0 0 0 0 0 0 0 0 127 0" result="hardAlpha"/>
<feOffset dy="1"/>
<feComposite in2="hardAlpha" operator="out"/>
<feColorMatrix type="matrix" values="0 0 0 0 0.537255 0 0 0 0 0.541176 0 0 0 0 0.552941 0 0 0 1 0"/>
<feBlend mode="normal" in2="BackgroundImageFix" result="effect1_dropShadow_2002_881"/>
<feBlend mode="normal" in="SourceGraphic" in2="effect1_dropShadow_2002_881" result="shape"/>
</filter>
</defs>
</svg>
