<svg width="34" height="43" viewBox="0 0 34 43" fill="none" xmlns="http://www.w3.org/2000/svg">
<g filter="url(#filter0_d_2002_896)">
<path d="M0 7.36C0 4.78376 0 3.49564 0.50137 2.51164C0.942388 1.6461 1.6461 0.942388 2.51164 0.50137C3.49564 0 4.78376 0 7.36 0H25.8622C28.4385 0 29.7266 0 30.7106 0.50137C31.5761 0.942388 32.2798 1.6461 32.7209 2.51164C33.2222 3.49564 33.2222 4.78376 33.2222 7.36V34.64C33.2222 37.2162 33.2222 38.5044 32.7209 39.4884C32.2798 40.3539 31.5761 41.0576 30.7106 41.4986C29.7266 42 28.4385 42 25.8622 42H7.36C4.78376 42 3.49564 42 2.51164 41.4986C1.6461 41.0576 0.942388 40.3539 0.50137 39.4884C0 38.5044 0 37.2162 0 34.64V7.36Z" fill="#FCFCFE" shape-rendering="crispEdges"/>
<path d="M11.251 27V9.27539H13.375V16.2578H13.436C13.7778 15.5498 14.2824 14.9964 14.9497 14.5977C15.6252 14.1989 16.4349 13.9995 17.3789 13.9995C18.2904 13.9995 19.0879 14.2152 19.7715 14.6465C20.4551 15.0697 20.984 15.6637 21.3584 16.4287C21.7409 17.1937 21.9321 18.0929 21.9321 19.1265V27H19.8081V19.5049C19.8081 18.3574 19.5355 17.4663 18.9902 16.8315C18.445 16.1968 17.6719 15.8794 16.6709 15.8794C16.0117 15.8794 15.4339 16.034 14.9375 16.3433C14.4411 16.6525 14.0545 17.0798 13.7778 17.625C13.5093 18.1702 13.375 18.8091 13.375 19.5415V27H11.251Z" fill="black"/>
</g>
<defs>
<filter id="filter0_d_2002_896" x="0" y="0" width="33.2222" height="43" filterUnits="userSpaceOnUse" color-interpolation-filters="sRGB">
<feFlood flood-opacity="0" result="BackgroundImageFix"/>
<feColorMatrix in="SourceAlpha" type="matrix" values="0 0 0 0 0 0 0 0 0 0 0 0 0 0 0 0 0 0 127 0" result="hardAlpha"/>
<feOffset dy="1"/>
<feComposite in2="hardAlpha" operator="out"/>
<feColorMatrix type="matrix" values="0 0 0 0 0.537255 0 0 0 0 0.541176 0 0 0 0 0.552941 0 0 0 1 0"/>
<feBlend mode="normal" in2="BackgroundImageFix" result="effect1_dropShadow_2002_896"/>
<feBlend mode="normal" in="SourceGraphic" in2="effect1_dropShadow_2002_896" result="shape"/>
</filter>
</defs>
</svg>
