<svg width="34" height="43" viewBox="0 0 34 43" fill="none" xmlns="http://www.w3.org/2000/svg">
<g filter="url(#filter0_d_2002_890)">
<path d="M0 7.36C0 4.78376 0 3.49564 0.50137 2.51164C0.942388 1.6461 1.6461 0.942388 2.51164 0.50137C3.49564 0 4.78376 0 7.36 0H25.8622C28.4385 0 29.7266 0 30.7106 0.50137C31.5761 0.942388 32.2798 1.6461 32.7209 2.51164C33.2222 3.49564 33.2222 4.78376 33.2222 7.36V34.64C33.2222 37.2162 33.2222 38.5044 32.7209 39.4884C32.2798 40.3539 31.5761 41.0576 30.7106 41.4986C29.7266 42 28.4385 42 25.8622 42H7.36C4.78376 42 3.49564 42 2.51164 41.4986C1.6461 41.0576 0.942388 40.3539 0.50137 39.4884C0 38.5044 0 37.2162 0 34.64V7.36Z" fill="#FCFCFE" shape-rendering="crispEdges"/>
<path d="M15.7188 27.2441C14.6283 27.2441 13.6761 26.9715 12.8623 26.4263C12.0566 25.881 11.4259 25.112 10.9702 24.1191C10.5226 23.1263 10.2988 21.9626 10.2988 20.6279V20.6035C10.2988 19.2689 10.5226 18.1092 10.9702 17.1245C11.4259 16.1317 12.0566 15.3626 12.8623 14.8174C13.6761 14.2721 14.616 13.9995 15.6821 13.9995C16.2843 13.9995 16.8459 14.0972 17.3667 14.2925C17.8875 14.4797 18.3514 14.7523 18.7583 15.1104C19.1652 15.4603 19.4948 15.8753 19.7471 16.3555H19.8203V9.27539H21.9443V27H19.8203V24.8638H19.7471C19.4867 25.3521 19.1571 25.7752 18.7583 26.1333C18.3595 26.4832 17.9038 26.7559 17.3911 26.9512C16.8866 27.1465 16.3291 27.2441 15.7188 27.2441ZM16.1338 25.3643C16.8662 25.3643 17.5091 25.1689 18.0625 24.7783C18.624 24.3877 19.0594 23.8384 19.3687 23.1304C19.6779 22.4142 19.8325 21.5801 19.8325 20.6279V20.6035C19.8325 19.6514 19.6738 18.8213 19.3564 18.1133C19.0472 17.4053 18.6159 16.856 18.0625 16.4653C17.5091 16.0747 16.8662 15.8794 16.1338 15.8794C15.3851 15.8794 14.734 16.0706 14.1807 16.4531C13.6354 16.8356 13.2122 17.3809 12.9111 18.0889C12.6182 18.7887 12.4717 19.627 12.4717 20.6035V20.6279C12.4717 21.5964 12.6182 22.4386 12.9111 23.1548C13.2122 23.8628 13.6354 24.408 14.1807 24.7905C14.734 25.173 15.3851 25.3643 16.1338 25.3643Z" fill="black"/>
</g>
<defs>
<filter id="filter0_d_2002_890" x="0" y="0" width="33.2222" height="43" filterUnits="userSpaceOnUse" color-interpolation-filters="sRGB">
<feFlood flood-opacity="0" result="BackgroundImageFix"/>
<feColorMatrix in="SourceAlpha" type="matrix" values="0 0 0 0 0 0 0 0 0 0 0 0 0 0 0 0 0 0 127 0" result="hardAlpha"/>
<feOffset dy="1"/>
<feComposite in2="hardAlpha" operator="out"/>
<feColorMatrix type="matrix" values="0 0 0 0 0.537255 0 0 0 0 0.541176 0 0 0 0 0.552941 0 0 0 1 0"/>
<feBlend mode="normal" in2="BackgroundImageFix" result="effect1_dropShadow_2002_890"/>
<feBlend mode="normal" in="SourceGraphic" in2="effect1_dropShadow_2002_890" result="shape"/>
</filter>
</defs>
</svg>
