<svg width="34" height="43" viewBox="0 0 34 43" fill="none" xmlns="http://www.w3.org/2000/svg">
<g filter="url(#filter0_d_2002_923)">
<path d="M0 7.36C0 4.78376 0 3.49564 0.50137 2.51164C0.942388 1.6461 1.6461 0.942388 2.51164 0.50137C3.49564 0 4.78376 0 7.36 0H25.94C28.5162 0 29.8044 0 30.7884 0.50137C31.6539 0.942388 32.3576 1.6461 32.7986 2.51164C33.3 3.49564 33.3 4.78376 33.3 7.36V34.64C33.3 37.2162 33.3 38.5044 32.7986 39.4884C32.3576 40.3539 31.6539 41.0576 30.7884 41.4986C29.8044 42 28.5162 42 25.94 42H7.36C4.78376 42 3.49564 42 2.51164 41.4986C1.6461 41.0576 0.942388 40.3539 0.50137 39.4884C0 38.5044 0 37.2162 0 34.64V7.36Z" fill="#FCFCFE" shape-rendering="crispEdges"/>
<path d="M10.9946 31.2847V14.2437H13.1187V16.3799H13.1797C13.4482 15.8835 13.7819 15.4603 14.1807 15.1104C14.5794 14.7604 15.0352 14.4878 15.5479 14.2925C16.0605 14.0972 16.618 13.9995 17.2202 13.9995C18.3107 13.9995 19.2588 14.2721 20.0645 14.8174C20.8783 15.3626 21.509 16.1317 21.9565 17.1245C22.4041 18.1174 22.6279 19.2811 22.6279 20.6157V20.6279C22.6279 21.9707 22.4001 23.1385 21.9443 24.1313C21.4967 25.116 20.8701 25.881 20.0645 26.4263C19.2669 26.9715 18.3311 27.2441 17.2568 27.2441C16.6628 27.2441 16.1012 27.1506 15.5723 26.9634C15.0514 26.7681 14.5876 26.4954 14.1807 26.1455C13.7819 25.7874 13.4482 25.3683 13.1797 24.8882H13.1187V31.2847H10.9946ZM16.793 25.3643C17.5498 25.3643 18.2008 25.173 18.7461 24.7905C19.2995 24.3999 19.7227 23.8506 20.0156 23.1426C20.3086 22.4346 20.4551 21.5964 20.4551 20.6279V20.6157C20.4551 19.631 20.3086 18.7887 20.0156 18.0889C19.7227 17.3809 19.2995 16.8356 18.7461 16.4531C18.2008 16.0706 17.5498 15.8794 16.793 15.8794C16.0687 15.8794 15.4258 16.0747 14.8643 16.4653C14.3109 16.856 13.8755 17.4053 13.5581 18.1133C13.2489 18.8213 13.0942 19.6554 13.0942 20.6157V20.6279C13.0942 21.5882 13.2529 22.4224 13.5703 23.1304C13.8877 23.8384 14.3231 24.3877 14.8765 24.7783C15.4299 25.1689 16.0687 25.3643 16.793 25.3643Z" fill="black"/>
</g>
<defs>
<filter id="filter0_d_2002_923" x="0" y="0" width="33.3" height="43" filterUnits="userSpaceOnUse" color-interpolation-filters="sRGB">
<feFlood flood-opacity="0" result="BackgroundImageFix"/>
<feColorMatrix in="SourceAlpha" type="matrix" values="0 0 0 0 0 0 0 0 0 0 0 0 0 0 0 0 0 0 127 0" result="hardAlpha"/>
<feOffset dy="1"/>
<feComposite in2="hardAlpha" operator="out"/>
<feColorMatrix type="matrix" values="0 0 0 0 0.537255 0 0 0 0 0.541176 0 0 0 0 0.552941 0 0 0 1 0"/>
<feBlend mode="normal" in2="BackgroundImageFix" result="effect1_dropShadow_2002_923"/>
<feBlend mode="normal" in="SourceGraphic" in2="effect1_dropShadow_2002_923" result="shape"/>
</filter>
</defs>
</svg>
