<svg width="34" height="43" viewBox="0 0 34 43" fill="none" xmlns="http://www.w3.org/2000/svg">
<g filter="url(#filter0_d_2002_911)">
<path d="M0 7.36C0 4.78376 0 3.49564 0.50137 2.51164C0.942388 1.6461 1.6461 0.942388 2.51164 0.50137C3.49564 0 4.78376 0 7.36 0H25.94C28.5162 0 29.8044 0 30.7884 0.50137C31.6539 0.942388 32.3576 1.6461 32.7986 2.51164C33.3 3.49564 33.3 4.78376 33.3 7.36V34.64C33.3 37.2162 33.3 38.5044 32.7986 39.4884C32.3576 40.3539 31.6539 41.0576 30.7884 41.4986C29.8044 42 28.5162 42 25.94 42H7.36C4.78376 42 3.49564 42 2.51164 41.4986C1.6461 41.0576 0.942388 40.3539 0.50137 39.4884C0 38.5044 0 37.2162 0 34.64V7.36Z" fill="#FCFCFE" shape-rendering="crispEdges"/>
<path d="M13.9854 27V14.2437H16.1094V16.3677H16.1704C16.3901 15.6353 16.7645 15.0575 17.2935 14.6343C17.8306 14.2111 18.4694 13.9995 19.21 13.9995C19.3971 13.9995 19.568 14.0117 19.7227 14.0361C19.8773 14.0524 19.9993 14.0687 20.0889 14.085V16.1479C19.9912 16.1154 19.8366 16.0869 19.625 16.0625C19.4215 16.0381 19.1896 16.0259 18.9292 16.0259C18.3677 16.0259 17.8713 16.152 17.4399 16.4043C17.0168 16.6484 16.6872 17.0024 16.4512 17.4663C16.2233 17.922 16.1094 18.4714 16.1094 19.1143V27H13.9854Z" fill="black"/>
</g>
<defs>
<filter id="filter0_d_2002_911" x="0" y="0" width="33.3" height="43" filterUnits="userSpaceOnUse" color-interpolation-filters="sRGB">
<feFlood flood-opacity="0" result="BackgroundImageFix"/>
<feColorMatrix in="SourceAlpha" type="matrix" values="0 0 0 0 0 0 0 0 0 0 0 0 0 0 0 0 0 0 127 0" result="hardAlpha"/>
<feOffset dy="1"/>
<feComposite in2="hardAlpha" operator="out"/>
<feColorMatrix type="matrix" values="0 0 0 0 0.537255 0 0 0 0 0.541176 0 0 0 0 0.552941 0 0 0 1 0"/>
<feBlend mode="normal" in2="BackgroundImageFix" result="effect1_dropShadow_2002_911"/>
<feBlend mode="normal" in="SourceGraphic" in2="effect1_dropShadow_2002_911" result="shape"/>
</filter>
</defs>
</svg>
