<svg width="34" height="43" viewBox="0 0 34 43" fill="none" xmlns="http://www.w3.org/2000/svg">
<g filter="url(#filter0_d_2002_875)">
<path d="M0 7.36C0 4.78376 0 3.49564 0.50137 2.51164C0.942388 1.6461 1.6461 0.942388 2.51164 0.50137C3.49564 0 4.78376 0 7.36 0H25.9257C28.502 0 29.7901 0 30.7741 0.50137C31.6396 0.942388 32.3433 1.6461 32.7843 2.51164C33.2857 3.49564 33.2857 4.78376 33.2857 7.36V34.64C33.2857 37.2162 33.2857 38.5044 32.7843 39.4884C32.3433 40.3539 31.6396 41.0576 30.7741 41.4986C29.7901 42 28.502 42 25.9257 42H7.36C4.78376 42 3.49564 42 2.51164 41.4986C1.6461 41.0576 0.942388 40.3539 0.50137 39.4884C0 38.5044 0 37.2162 0 34.64V7.36Z" fill="#FCFCFE" shape-rendering="crispEdges"/>
<path d="M17.269 27.2441C16.6668 27.2441 16.1094 27.1465 15.5967 26.9512C15.084 26.7559 14.6283 26.4832 14.2295 26.1333C13.8307 25.7752 13.4971 25.3521 13.2285 24.8638H13.1675V27H11.0435V9.27539H13.1675V16.3555H13.2285C13.4971 15.8753 13.8307 15.4603 14.2295 15.1104C14.6364 14.7523 15.1003 14.4797 15.6211 14.2925C16.1501 14.0972 16.7116 13.9995 17.3057 13.9995C18.3799 13.9995 19.3158 14.2721 20.1133 14.8174C20.9189 15.3626 21.5496 16.1317 22.0054 17.1245C22.4611 18.1092 22.689 19.2689 22.689 20.6035V20.6279C22.689 21.9626 22.4611 23.1263 22.0054 24.1191C21.5578 25.112 20.9271 25.881 20.1133 26.4263C19.3076 26.9715 18.3595 27.2441 17.269 27.2441ZM16.8418 25.3643C17.5986 25.3643 18.2497 25.173 18.7949 24.7905C19.3483 24.408 19.7715 23.8628 20.0645 23.1548C20.3656 22.4386 20.5161 21.5964 20.5161 20.6279V20.6035C20.5161 19.627 20.3656 18.7887 20.0645 18.0889C19.7715 17.3809 19.3483 16.8356 18.7949 16.4531C18.2497 16.0706 17.5986 15.8794 16.8418 15.8794C16.1175 15.8794 15.4787 16.0747 14.9253 16.4653C14.3719 16.856 13.9365 17.4053 13.6191 18.1133C13.3018 18.8213 13.1431 19.6514 13.1431 20.6035V20.6279C13.1431 21.5801 13.2977 22.4142 13.6069 23.1304C13.9243 23.8384 14.3597 24.3877 14.9131 24.7783C15.4746 25.1689 16.1175 25.3643 16.8418 25.3643Z" fill="black"/>
</g>
<defs>
<filter id="filter0_d_2002_875" x="0" y="0" width="33.2858" height="43" filterUnits="userSpaceOnUse" color-interpolation-filters="sRGB">
<feFlood flood-opacity="0" result="BackgroundImageFix"/>
<feColorMatrix in="SourceAlpha" type="matrix" values="0 0 0 0 0 0 0 0 0 0 0 0 0 0 0 0 0 0 127 0" result="hardAlpha"/>
<feOffset dy="1"/>
<feComposite in2="hardAlpha" operator="out"/>
<feColorMatrix type="matrix" values="0 0 0 0 0.537255 0 0 0 0 0.541176 0 0 0 0 0.552941 0 0 0 1 0"/>
<feBlend mode="normal" in2="BackgroundImageFix" result="effect1_dropShadow_2002_875"/>
<feBlend mode="normal" in="SourceGraphic" in2="effect1_dropShadow_2002_875" result="shape"/>
</filter>
</defs>
</svg>
