<svg width="34" height="43" viewBox="0 0 34 43" fill="none" xmlns="http://www.w3.org/2000/svg">
<g filter="url(#filter0_d_2002_905)">
<path d="M0 7.36C0 4.78376 0 3.49564 0.50137 2.51164C0.942388 1.6461 1.6461 0.942388 2.51164 0.50137C3.49564 0 4.78376 0 7.36 0H25.94C28.5162 0 29.8044 0 30.7884 0.50137C31.6539 0.942388 32.3576 1.6461 32.7986 2.51164C33.3 3.49564 33.3 4.78376 33.3 7.36V34.64C33.3 37.2162 33.3 38.5044 32.7986 39.4884C32.3576 40.3539 31.6539 41.0576 30.7884 41.4986C29.8044 42 28.5162 42 25.94 42H7.36C4.78376 42 3.49564 42 2.51164 41.4986C1.6461 41.0576 0.942388 40.3539 0.50137 39.4884C0 38.5044 0 37.2162 0 34.64V7.36Z" fill="#FCFCFE" shape-rendering="crispEdges"/>
<path d="M19.8813 31.2847V24.9492H19.8203C19.568 25.4131 19.2425 25.8159 18.8438 26.1577C18.445 26.4995 17.9852 26.764 17.4644 26.9512C16.9435 27.1302 16.3779 27.2197 15.7676 27.2197C14.6934 27.2197 13.7493 26.9471 12.9355 26.4019C12.1217 25.8566 11.487 25.0876 11.0312 24.0947C10.5837 23.1019 10.3599 21.9422 10.3599 20.6157V20.6035C10.3599 19.2689 10.5877 18.1092 11.0435 17.1245C11.5073 16.1398 12.1462 15.3789 12.96 14.8418C13.7819 14.2965 14.73 14.0239 15.8042 14.0239C16.4064 14.0239 16.9598 14.1257 17.4644 14.3291C17.9771 14.5244 18.4328 14.8011 18.8315 15.1592C19.2303 15.5091 19.5599 15.9201 19.8203 16.3921H19.8813V14.2437H22.0054V31.2847H19.8813ZM16.2314 25.3398C16.9639 25.3398 17.6027 25.1486 18.1479 24.7661C18.7013 24.3755 19.1286 23.8262 19.4297 23.1182C19.7389 22.402 19.8936 21.5679 19.8936 20.6157V20.6035C19.8936 19.6432 19.7389 18.8132 19.4297 18.1133C19.1286 17.4134 18.7013 16.8722 18.1479 16.4897C17.6027 16.0991 16.9639 15.9038 16.2314 15.9038C15.4746 15.9038 14.8195 16.0951 14.2661 16.4775C13.7127 16.86 13.2855 17.4012 12.9844 18.1011C12.6833 18.8009 12.5327 19.6351 12.5327 20.6035V20.6157C12.5327 21.5923 12.6833 22.4346 12.9844 23.1426C13.2855 23.8506 13.7127 24.3958 14.2661 24.7783C14.8195 25.1527 15.4746 25.3398 16.2314 25.3398Z" fill="black"/>
</g>
<defs>
<filter id="filter0_d_2002_905" x="0" y="0" width="33.3" height="43" filterUnits="userSpaceOnUse" color-interpolation-filters="sRGB">
<feFlood flood-opacity="0" result="BackgroundImageFix"/>
<feColorMatrix in="SourceAlpha" type="matrix" values="0 0 0 0 0 0 0 0 0 0 0 0 0 0 0 0 0 0 127 0" result="hardAlpha"/>
<feOffset dy="1"/>
<feComposite in2="hardAlpha" operator="out"/>
<feColorMatrix type="matrix" values="0 0 0 0 0.537255 0 0 0 0 0.541176 0 0 0 0 0.552941 0 0 0 1 0"/>
<feBlend mode="normal" in2="BackgroundImageFix" result="effect1_dropShadow_2002_905"/>
<feBlend mode="normal" in="SourceGraphic" in2="effect1_dropShadow_2002_905" result="shape"/>
</filter>
</defs>
</svg>
