<svg width="34" height="43" viewBox="0 0 34 43" fill="none" xmlns="http://www.w3.org/2000/svg">
<g filter="url(#filter0_d_2002_898)">
<path d="M0 7.36C0 4.78376 0 3.49564 0.50137 2.51164C0.942388 1.6461 1.6461 0.942388 2.51164 0.50137C3.49564 0 4.78376 0 7.36 0H25.8622C28.4385 0 29.7266 0 30.7106 0.50137C31.5761 0.942388 32.2798 1.6461 32.7209 2.51164C33.2222 3.49564 33.2222 4.78376 33.2222 7.36V34.64C33.2222 37.2162 33.2222 38.5044 32.7209 39.4884C32.2798 40.3539 31.5761 41.0576 30.7106 41.4986C29.7266 42 28.4385 42 25.8622 42H7.36C4.78376 42 3.49564 42 2.51164 41.4986C1.6461 41.0576 0.942388 40.3539 0.50137 39.4884C0 38.5044 0 37.2162 0 34.64V7.36Z" fill="#FCFCFE" shape-rendering="crispEdges"/>
<path d="M13.6069 31.3213C13.5418 31.3213 13.4767 31.3213 13.4116 31.3213C13.3384 31.3213 13.2692 31.3172 13.2041 31.3091V29.4414C13.2611 29.4414 13.318 29.4414 13.375 29.4414C13.4238 29.4414 13.4767 29.4414 13.5337 29.4414C14.2254 29.4414 14.7137 29.3071 14.9985 29.0386C15.2834 28.7782 15.4258 28.2899 15.4258 27.5737V14.2437H17.5498V27.5493C17.5498 28.8433 17.2324 29.7954 16.5977 30.4058C15.9629 31.0161 14.966 31.3213 13.6069 31.3213ZM16.4878 12.0342C16.1134 12.0342 15.792 11.904 15.5234 11.6436C15.263 11.3831 15.1328 11.0658 15.1328 10.6914C15.1328 10.3089 15.263 9.98747 15.5234 9.72705C15.792 9.46663 16.1134 9.33643 16.4878 9.33643C16.8621 9.33643 17.1795 9.46663 17.4399 9.72705C17.7004 9.98747 17.8306 10.3089 17.8306 10.6914C17.8306 11.0658 17.7004 11.3831 17.4399 11.6436C17.1795 11.904 16.8621 12.0342 16.4878 12.0342Z" fill="black"/>
</g>
<defs>
<filter id="filter0_d_2002_898" x="0" y="0" width="33.2222" height="43" filterUnits="userSpaceOnUse" color-interpolation-filters="sRGB">
<feFlood flood-opacity="0" result="BackgroundImageFix"/>
<feColorMatrix in="SourceAlpha" type="matrix" values="0 0 0 0 0 0 0 0 0 0 0 0 0 0 0 0 0 0 127 0" result="hardAlpha"/>
<feOffset dy="1"/>
<feComposite in2="hardAlpha" operator="out"/>
<feColorMatrix type="matrix" values="0 0 0 0 0.537255 0 0 0 0 0.541176 0 0 0 0 0.552941 0 0 0 1 0"/>
<feBlend mode="normal" in2="BackgroundImageFix" result="effect1_dropShadow_2002_898"/>
<feBlend mode="normal" in="SourceGraphic" in2="effect1_dropShadow_2002_898" result="shape"/>
</filter>
</defs>
</svg>
