<svg width="34" height="43" viewBox="0 0 34 43" fill="none" xmlns="http://www.w3.org/2000/svg">
<g filter="url(#filter0_d_2002_888)">
<path d="M0 7.36C0 4.78376 0 3.49564 0.50137 2.51164C0.942388 1.6461 1.6461 0.942388 2.51164 0.50137C3.49564 0 4.78376 0 7.36 0H25.8622C28.4385 0 29.7266 0 30.7106 0.50137C31.5761 0.942388 32.2798 1.6461 32.7209 2.51164C33.2222 3.49564 33.2222 4.78376 33.2222 7.36V34.64C33.2222 37.2162 33.2222 38.5044 32.7209 39.4884C32.2798 40.3539 31.5761 41.0576 30.7106 41.4986C29.7266 42 28.4385 42 25.8622 42H7.36C4.78376 42 3.49564 42 2.51164 41.4986C1.6461 41.0576 0.942388 40.3539 0.50137 39.4884C0 38.5044 0 37.2162 0 34.64V7.36Z" fill="#FCFCFE" shape-rendering="crispEdges"/>
<path d="M16.5488 27.2441C15.556 27.2441 14.6934 27.0895 13.9609 26.7803C13.2367 26.4629 12.6629 26.0234 12.2397 25.4619C11.8166 24.8923 11.5602 24.229 11.4707 23.4722L11.4585 23.3745H13.5947L13.6191 23.4844C13.7575 24.111 14.0667 24.5993 14.5469 24.9492C15.0352 25.2992 15.7065 25.4741 16.561 25.4741C17.147 25.4741 17.6434 25.3968 18.0503 25.2422C18.4653 25.0876 18.7868 24.8678 19.0146 24.583C19.2425 24.2982 19.3564 23.9645 19.3564 23.582V23.5698C19.3564 23.1141 19.21 22.7479 18.917 22.4712C18.6322 22.1864 18.1195 21.9504 17.3789 21.7632L15.3647 21.2749C14.5672 21.0796 13.904 20.8273 13.375 20.5181C12.8542 20.2007 12.4635 19.8141 12.2031 19.3584C11.9427 18.9027 11.8125 18.3696 11.8125 17.7593V17.7471C11.8125 17.0146 12.0119 16.3677 12.4106 15.8062C12.8094 15.2446 13.3628 14.8052 14.0708 14.4878C14.7788 14.1623 15.5885 13.9995 16.5 13.9995C17.4277 13.9995 18.2375 14.1623 18.9292 14.4878C19.6209 14.8133 20.1662 15.2568 20.5649 15.8184C20.9637 16.3717 21.1916 17.0065 21.2485 17.7227L21.2607 17.8569H19.2222V17.7837C19.1326 17.1733 18.8519 16.6851 18.3799 16.3188C17.916 15.9526 17.2894 15.7695 16.5 15.7695C15.9873 15.7695 15.5397 15.8468 15.1572 16.0015C14.7829 16.1561 14.494 16.3758 14.2905 16.6606C14.0871 16.9455 13.9854 17.2751 13.9854 17.6494V17.6616C13.9854 17.9465 14.0545 18.2069 14.1929 18.4429C14.3312 18.6707 14.5469 18.8701 14.8398 19.041C15.141 19.2119 15.5234 19.3543 15.9873 19.4683L18.0137 19.9565C19.2913 20.2658 20.1947 20.693 20.7236 21.2383C21.2607 21.7835 21.5293 22.5119 21.5293 23.4233V23.4355C21.5293 24.1842 21.3096 24.8434 20.8701 25.4131C20.4388 25.9827 19.8488 26.4303 19.1001 26.7559C18.3514 27.0814 17.501 27.2441 16.5488 27.2441Z" fill="black"/>
</g>
<defs>
<filter id="filter0_d_2002_888" x="0" y="0" width="33.2222" height="43" filterUnits="userSpaceOnUse" color-interpolation-filters="sRGB">
<feFlood flood-opacity="0" result="BackgroundImageFix"/>
<feColorMatrix in="SourceAlpha" type="matrix" values="0 0 0 0 0 0 0 0 0 0 0 0 0 0 0 0 0 0 127 0" result="hardAlpha"/>
<feOffset dy="1"/>
<feComposite in2="hardAlpha" operator="out"/>
<feColorMatrix type="matrix" values="0 0 0 0 0.537255 0 0 0 0 0.541176 0 0 0 0 0.552941 0 0 0 1 0"/>
<feBlend mode="normal" in2="BackgroundImageFix" result="effect1_dropShadow_2002_888"/>
<feBlend mode="normal" in="SourceGraphic" in2="effect1_dropShadow_2002_888" result="shape"/>
</filter>
</defs>
</svg>
