<svg width="34" height="43" viewBox="0 0 34 43" fill="none" xmlns="http://www.w3.org/2000/svg">
<g filter="url(#filter0_d_2002_913)">
<path d="M0 7.36C0 4.78376 0 3.49564 0.50137 2.51164C0.942388 1.6461 1.6461 0.942388 2.51164 0.50137C3.49564 0 4.78376 0 7.36 0H25.94C28.5162 0 29.8044 0 30.7884 0.50137C31.6539 0.942388 32.3576 1.6461 32.7986 2.51164C33.3 3.49564 33.3 4.78376 33.3 7.36V34.64C33.3 37.2162 33.3 38.5044 32.7986 39.4884C32.3576 40.3539 31.6539 41.0576 30.7884 41.4986C29.8044 42 28.5162 42 25.94 42H7.36C4.78376 42 3.49564 42 2.51164 41.4986C1.6461 41.0576 0.942388 40.3539 0.50137 39.4884C0 38.5044 0 37.2162 0 34.64V7.36Z" fill="#FCFCFE" shape-rendering="crispEdges"/>
<path d="M18.2944 27.2197C17.1063 27.2197 16.2192 26.9471 15.6333 26.4019C15.0555 25.8485 14.7666 24.9614 14.7666 23.7407V16.0015H12.8745V14.2437H14.7666V10.8135H16.9639V14.2437H19.4419V16.0015H16.9639V23.6553C16.9639 24.347 17.1104 24.819 17.4033 25.0713C17.6963 25.3236 18.1357 25.4497 18.7217 25.4497C18.86 25.4497 18.9862 25.4456 19.1001 25.4375C19.2222 25.4212 19.3361 25.409 19.4419 25.4009V27.1343C19.3035 27.1506 19.1286 27.1668 18.917 27.1831C18.7135 27.2075 18.506 27.2197 18.2944 27.2197Z" fill="black"/>
</g>
<defs>
<filter id="filter0_d_2002_913" x="0" y="0" width="33.3" height="43" filterUnits="userSpaceOnUse" color-interpolation-filters="sRGB">
<feFlood flood-opacity="0" result="BackgroundImageFix"/>
<feColorMatrix in="SourceAlpha" type="matrix" values="0 0 0 0 0 0 0 0 0 0 0 0 0 0 0 0 0 0 127 0" result="hardAlpha"/>
<feOffset dy="1"/>
<feComposite in2="hardAlpha" operator="out"/>
<feColorMatrix type="matrix" values="0 0 0 0 0.537255 0 0 0 0 0.541176 0 0 0 0 0.552941 0 0 0 1 0"/>
<feBlend mode="normal" in2="BackgroundImageFix" result="effect1_dropShadow_2002_913"/>
<feBlend mode="normal" in="SourceGraphic" in2="effect1_dropShadow_2002_913" result="shape"/>
</filter>
</defs>
</svg>
