<svg width="34" height="43" viewBox="0 0 34 43" fill="none" xmlns="http://www.w3.org/2000/svg">
<g filter="url(#filter0_d_2002_879)">
<path d="M0 7.36C0 4.78376 0 3.49564 0.50137 2.51164C0.942388 1.6461 1.6461 0.942388 2.51164 0.50137C3.49564 0 4.78376 0 7.36 0H25.9257C28.502 0 29.7901 0 30.7741 0.50137C31.6396 0.942388 32.3433 1.6461 32.7843 2.51164C33.2857 3.49564 33.2857 4.78376 33.2857 7.36V34.64C33.2857 37.2162 33.2857 38.5044 32.7843 39.4884C32.3433 40.3539 31.6396 41.0576 30.7741 41.4986C29.7901 42 28.502 42 25.9257 42H7.36C4.78376 42 3.49564 42 2.51164 41.4986C1.6461 41.0576 0.942388 40.3539 0.50137 39.4884C0 38.5044 0 37.2162 0 34.64V7.36Z" fill="#FCFCFE" shape-rendering="crispEdges"/>
<path d="M7.80859 27V14.2437H9.93262V16.1113H9.99365C10.2785 15.4766 10.7261 14.9679 11.3364 14.5854C11.9468 14.1948 12.6629 13.9995 13.4849 13.9995C14.0627 13.9995 14.5876 14.0972 15.0596 14.2925C15.5316 14.4797 15.9385 14.7563 16.2803 15.1226C16.6221 15.4806 16.8825 15.9119 17.0615 16.4165H17.1348C17.3708 15.9119 17.6841 15.4806 18.0747 15.1226C18.4735 14.7645 18.9292 14.4878 19.4419 14.2925C19.9627 14.0972 20.5202 13.9995 21.1143 13.9995C21.9606 13.9995 22.693 14.1745 23.3115 14.5244C23.93 14.8662 24.4102 15.3504 24.752 15.9771C25.0938 16.5955 25.2646 17.332 25.2646 18.1865V27H23.1406V18.6748C23.1406 18.0807 23.0348 17.5762 22.8232 17.1611C22.6198 16.7461 22.3187 16.4287 21.9199 16.209C21.5293 15.9893 21.0492 15.8794 20.4795 15.8794C19.918 15.8794 19.4175 16.0096 18.978 16.27C18.5467 16.5304 18.209 16.8885 17.9648 17.3442C17.7207 17.7918 17.5986 18.3045 17.5986 18.8823V27H15.4746V18.4307C15.4746 17.918 15.3647 17.4704 15.145 17.0879C14.9253 16.7054 14.6201 16.4084 14.2295 16.1968C13.8389 15.9852 13.3791 15.8794 12.8501 15.8794C12.2886 15.8794 11.7881 16.0177 11.3486 16.2944C10.9092 16.5711 10.5633 16.9455 10.311 17.4175C10.0588 17.8813 9.93262 18.4144 9.93262 19.0166V27H7.80859Z" fill="black"/>
</g>
<defs>
<filter id="filter0_d_2002_879" x="0" y="0" width="33.2858" height="43" filterUnits="userSpaceOnUse" color-interpolation-filters="sRGB">
<feFlood flood-opacity="0" result="BackgroundImageFix"/>
<feColorMatrix in="SourceAlpha" type="matrix" values="0 0 0 0 0 0 0 0 0 0 0 0 0 0 0 0 0 0 127 0" result="hardAlpha"/>
<feOffset dy="1"/>
<feComposite in2="hardAlpha" operator="out"/>
<feColorMatrix type="matrix" values="0 0 0 0 0.537255 0 0 0 0 0.541176 0 0 0 0 0.552941 0 0 0 1 0"/>
<feBlend mode="normal" in2="BackgroundImageFix" result="effect1_dropShadow_2002_879"/>
<feBlend mode="normal" in="SourceGraphic" in2="effect1_dropShadow_2002_879" result="shape"/>
</filter>
</defs>
</svg>
