<svg width="34" height="43" viewBox="0 0 34 43" fill="none" xmlns="http://www.w3.org/2000/svg">
<g filter="url(#filter0_d_2002_917)">
<path d="M0 7.36C0 4.78376 0 3.49564 0.50137 2.51164C0.942388 1.6461 1.6461 0.942388 2.51164 0.50137C3.49564 0 4.78376 0 7.36 0H25.94C28.5162 0 29.8044 0 30.7884 0.50137C31.6539 0.942388 32.3576 1.6461 32.7986 2.51164C33.3 3.49564 33.3 4.78376 33.3 7.36V34.64C33.3 37.2162 33.3 38.5044 32.7986 39.4884C32.3576 40.3539 31.6539 41.0576 30.7884 41.4986C29.8044 42 28.5162 42 25.94 42H7.36C4.78376 42 3.49564 42 2.51164 41.4986C1.6461 41.0576 0.942388 40.3539 0.50137 39.4884C0 38.5044 0 37.2162 0 34.64V7.36Z" fill="#FCFCFE" shape-rendering="crispEdges"/>
<path d="M15.6089 27.2441C14.673 27.2441 13.8755 27.0529 13.2163 26.6704C12.5653 26.2879 12.0648 25.7427 11.7148 25.0347C11.373 24.3267 11.2021 23.4884 11.2021 22.52V14.2437H13.3262V22.1172C13.3262 23.1751 13.5662 23.9808 14.0464 24.5342C14.5265 25.0876 15.259 25.3643 16.2437 25.3643C16.7645 25.3643 17.2284 25.2788 17.6353 25.1079C18.0422 24.937 18.3921 24.6969 18.6851 24.3877C18.978 24.0703 19.2018 23.6878 19.3564 23.2402C19.5111 22.7926 19.5884 22.2962 19.5884 21.751V14.2437H21.7124V27H19.5884V25.1689H19.5151C19.2954 25.5677 19.0024 25.9258 18.6362 26.2432C18.2782 26.5524 17.8428 26.7965 17.3301 26.9756C16.8255 27.1546 16.2518 27.2441 15.6089 27.2441Z" fill="black"/>
</g>
<defs>
<filter id="filter0_d_2002_917" x="0" y="0" width="33.3" height="43" filterUnits="userSpaceOnUse" color-interpolation-filters="sRGB">
<feFlood flood-opacity="0" result="BackgroundImageFix"/>
<feColorMatrix in="SourceAlpha" type="matrix" values="0 0 0 0 0 0 0 0 0 0 0 0 0 0 0 0 0 0 127 0" result="hardAlpha"/>
<feOffset dy="1"/>
<feComposite in2="hardAlpha" operator="out"/>
<feColorMatrix type="matrix" values="0 0 0 0 0.537255 0 0 0 0 0.541176 0 0 0 0 0.552941 0 0 0 1 0"/>
<feBlend mode="normal" in2="BackgroundImageFix" result="effect1_dropShadow_2002_917"/>
<feBlend mode="normal" in="SourceGraphic" in2="effect1_dropShadow_2002_917" result="shape"/>
</filter>
</defs>
</svg>
