<svg width="34" height="43" viewBox="0 0 34 43" fill="none" xmlns="http://www.w3.org/2000/svg">
<g filter="url(#filter0_d_2002_894)">
<path d="M0 7.36C0 4.78376 0 3.49564 0.50137 2.51164C0.942388 1.6461 1.6461 0.942388 2.51164 0.50137C3.49564 0 4.78376 0 7.36 0H25.8622C28.4385 0 29.7266 0 30.7106 0.50137C31.5761 0.942388 32.2798 1.6461 32.7209 2.51164C33.2222 3.49564 33.2222 4.78376 33.2222 7.36V34.64C33.2222 37.2162 33.2222 38.5044 32.7209 39.4884C32.2798 40.3539 31.5761 41.0576 30.7106 41.4986C29.7266 42 28.4385 42 25.8622 42H7.36C4.78376 42 3.49564 42 2.51164 41.4986C1.6461 41.0576 0.942388 40.3539 0.50137 39.4884C0 38.5044 0 37.2162 0 34.64V7.36Z" fill="#FCFCFE" shape-rendering="crispEdges"/>
<path d="M16.3657 31.5288C15.3241 31.5288 14.4126 31.3783 13.6313 31.0771C12.8582 30.7842 12.2316 30.3813 11.7515 29.8687C11.2795 29.356 10.9743 28.7822 10.8359 28.1475L10.8237 28.0498H12.96L13.0088 28.1475C13.2041 28.6032 13.5907 28.9653 14.1685 29.2339C14.7463 29.5106 15.4705 29.6489 16.3413 29.6489C17.4725 29.6489 18.3433 29.3641 18.9536 28.7944C19.5721 28.2329 19.8813 27.4598 19.8813 26.4751V24.7051H19.8203C19.5599 25.1852 19.2303 25.5962 18.8315 25.938C18.4328 26.2798 17.973 26.5443 17.4521 26.7314C16.9395 26.9186 16.3779 27.0122 15.7676 27.0122C14.6934 27.0122 13.7493 26.7437 12.9355 26.2065C12.1217 25.6613 11.487 24.9004 11.0312 23.9238C10.5837 22.9473 10.3599 21.8039 10.3599 20.4937V20.4814C10.3599 19.1794 10.5877 18.0441 11.0435 17.0757C11.5073 16.0991 12.1462 15.3423 12.96 14.8052C13.7819 14.2681 14.734 13.9995 15.8164 13.9995C16.4186 13.9995 16.972 14.1012 17.4766 14.3047C17.9893 14.5081 18.4409 14.7889 18.8315 15.147C19.2303 15.505 19.5599 15.9201 19.8203 16.3921H19.8813V14.2437H22.0054V26.6704C22.0054 27.6551 21.7734 28.5096 21.3096 29.2339C20.8538 29.9663 20.2028 30.5319 19.3564 30.9307C18.5182 31.3294 17.5213 31.5288 16.3657 31.5288ZM16.2314 25.1323C16.9639 25.1323 17.6027 24.9411 18.1479 24.5586C18.7013 24.168 19.1286 23.6268 19.4297 22.9351C19.7389 22.2352 19.8936 21.4214 19.8936 20.4937V20.4814C19.8936 19.5537 19.7389 18.748 19.4297 18.0645C19.1286 17.3727 18.7013 16.8356 18.1479 16.4531C17.5946 16.0706 16.9557 15.8794 16.2314 15.8794C15.4746 15.8794 14.8154 16.0706 14.2539 16.4531C13.7005 16.8275 13.2733 17.3605 12.9722 18.0522C12.6792 18.744 12.5327 19.5537 12.5327 20.4814V20.4937C12.5327 21.4458 12.6792 22.2677 12.9722 22.9595C13.2733 23.6512 13.7005 24.1883 14.2539 24.5708C14.8154 24.9451 15.4746 25.1323 16.2314 25.1323Z" fill="black"/>
</g>
<defs>
<filter id="filter0_d_2002_894" x="0" y="0" width="33.2222" height="43" filterUnits="userSpaceOnUse" color-interpolation-filters="sRGB">
<feFlood flood-opacity="0" result="BackgroundImageFix"/>
<feColorMatrix in="SourceAlpha" type="matrix" values="0 0 0 0 0 0 0 0 0 0 0 0 0 0 0 0 0 0 127 0" result="hardAlpha"/>
<feOffset dy="1"/>
<feComposite in2="hardAlpha" operator="out"/>
<feColorMatrix type="matrix" values="0 0 0 0 0.537255 0 0 0 0 0.541176 0 0 0 0 0.552941 0 0 0 1 0"/>
<feBlend mode="normal" in2="BackgroundImageFix" result="effect1_dropShadow_2002_894"/>
<feBlend mode="normal" in="SourceGraphic" in2="effect1_dropShadow_2002_894" result="shape"/>
</filter>
</defs>
</svg>
