<svg width="34" height="43" viewBox="0 0 34 43" fill="none" xmlns="http://www.w3.org/2000/svg">
<g filter="url(#filter0_d_2002_886)">
<path d="M0 7.36C0 4.78376 0 3.49564 0.50137 2.51164C0.942388 1.6461 1.6461 0.942388 2.51164 0.50137C3.49564 0 4.78376 0 7.36 0H25.8622C28.4385 0 29.7266 0 30.7106 0.50137C31.5761 0.942388 32.2798 1.6461 32.7209 2.51164C33.2222 3.49564 33.2222 4.78376 33.2222 7.36V34.64C33.2222 37.2162 33.2222 38.5044 32.7209 39.4884C32.2798 40.3539 31.5761 41.0576 30.7106 41.4986C29.7266 42 28.4385 42 25.8622 42H7.36C4.78376 42 3.49564 42 2.51164 41.4986C1.6461 41.0576 0.942388 40.3539 0.50137 39.4884C0 38.5044 0 37.2162 0 34.64V7.36Z" fill="#FCFCFE" shape-rendering="crispEdges"/>
<path d="M15.3037 27.2441C14.4655 27.2441 13.7249 27.0854 13.082 26.7681C12.4473 26.4507 11.9508 26.0031 11.5928 25.4253C11.2347 24.8475 11.0557 24.172 11.0557 23.3989V23.3745C11.0557 22.6421 11.2347 22.0114 11.5928 21.4824C11.959 20.9453 12.488 20.5221 13.1797 20.2129C13.8714 19.9036 14.7056 19.7205 15.6821 19.6636L20.394 19.395V21.043L15.9263 21.3115C15.0555 21.3685 14.3882 21.576 13.9243 21.9341C13.4604 22.2922 13.2285 22.7723 13.2285 23.3745V23.3989C13.2285 24.0093 13.4604 24.4976 13.9243 24.8638C14.3882 25.2218 15.0026 25.4009 15.7676 25.4009C16.443 25.4009 17.0493 25.2625 17.5864 24.9858C18.1235 24.701 18.5467 24.3145 18.856 23.8262C19.1733 23.3298 19.332 22.7764 19.332 22.166V18.3696C19.332 17.5884 19.0879 16.978 18.5996 16.5386C18.1195 16.0991 17.4277 15.8794 16.5244 15.8794C15.7188 15.8794 15.0636 16.0544 14.5591 16.4043C14.0627 16.7461 13.7493 17.1978 13.6191 17.7593L13.5947 17.8569H11.5317L11.5439 17.7227C11.6172 17.0309 11.8613 16.4043 12.2764 15.8428C12.6995 15.2731 13.2733 14.8255 13.9976 14.5C14.7218 14.1663 15.5763 13.9995 16.561 13.9995C17.5701 13.9995 18.4409 14.1704 19.1733 14.5122C19.9058 14.854 20.4673 15.3382 20.8579 15.9648C21.2567 16.5915 21.4561 17.332 21.4561 18.1865V27H19.332V24.9492H19.271C19.0187 25.4131 18.6891 25.82 18.2822 26.1699C17.8835 26.5117 17.4277 26.7762 16.915 26.9634C16.4105 27.1506 15.8734 27.2441 15.3037 27.2441Z" fill="black"/>
</g>
<defs>
<filter id="filter0_d_2002_886" x="0" y="0" width="33.2222" height="43" filterUnits="userSpaceOnUse" color-interpolation-filters="sRGB">
<feFlood flood-opacity="0" result="BackgroundImageFix"/>
<feColorMatrix in="SourceAlpha" type="matrix" values="0 0 0 0 0 0 0 0 0 0 0 0 0 0 0 0 0 0 127 0" result="hardAlpha"/>
<feOffset dy="1"/>
<feComposite in2="hardAlpha" operator="out"/>
<feColorMatrix type="matrix" values="0 0 0 0 0.537255 0 0 0 0 0.541176 0 0 0 0 0.552941 0 0 0 1 0"/>
<feBlend mode="normal" in2="BackgroundImageFix" result="effect1_dropShadow_2002_886"/>
<feBlend mode="normal" in="SourceGraphic" in2="effect1_dropShadow_2002_886" result="shape"/>
</filter>
</defs>
</svg>
