<svg width="34" height="43" viewBox="0 0 34 43" fill="none" xmlns="http://www.w3.org/2000/svg">
<g filter="url(#filter0_d_2002_909)">
<path d="M0 7.36C0 4.78376 0 3.49564 0.50137 2.51164C0.942388 1.6461 1.6461 0.942388 2.51164 0.50137C3.49564 0 4.78376 0 7.36 0H25.94C28.5162 0 29.8044 0 30.7884 0.50137C31.6539 0.942388 32.3576 1.6461 32.7986 2.51164C33.3 3.49564 33.3 4.78376 33.3 7.36V34.64C33.3 37.2162 33.3 38.5044 32.7986 39.4884C32.3576 40.3539 31.6539 41.0576 30.7884 41.4986C29.8044 42 28.5162 42 25.94 42H7.36C4.78376 42 3.49564 42 2.51164 41.4986C1.6461 41.0576 0.942388 40.3539 0.50137 39.4884C0 38.5044 0 37.2162 0 34.64V7.36Z" fill="#FCFCFE" shape-rendering="crispEdges"/>
<path d="M16.6953 27.2441C15.4827 27.2441 14.437 26.9756 13.5581 26.4385C12.6792 25.8932 12.0037 25.1283 11.5317 24.1436C11.0597 23.1589 10.8237 21.9992 10.8237 20.6646V20.6523C10.8237 19.3421 11.0597 18.1865 11.5317 17.1855C12.0119 16.1846 12.6792 15.4033 13.5337 14.8418C14.3963 14.2803 15.4054 13.9995 16.561 13.9995C17.7248 13.9995 18.7257 14.2681 19.564 14.8052C20.4022 15.3423 21.0451 16.0951 21.4927 17.0635C21.9403 18.0238 22.1641 19.1387 22.1641 20.4082V21.2017H11.8979V19.5293H21.1143L20.04 21.0796V20.2495C20.04 19.2567 19.8895 18.4388 19.5884 17.7959C19.2954 17.153 18.8844 16.6729 18.3555 16.3555C17.8346 16.0381 17.2324 15.8794 16.5488 15.8794C15.8734 15.8794 15.263 16.0462 14.7178 16.3799C14.1807 16.7135 13.7575 17.2059 13.4482 17.8569C13.139 18.508 12.9844 19.3055 12.9844 20.2495V21.0796C12.9844 21.9748 13.1349 22.7438 13.436 23.3867C13.7453 24.0215 14.1807 24.5098 14.7422 24.8516C15.3118 25.1934 15.9792 25.3643 16.7441 25.3643C17.2894 25.3643 17.7736 25.2829 18.1968 25.1201C18.6281 24.9574 18.9862 24.7376 19.271 24.4609C19.5558 24.1761 19.7593 23.8587 19.8813 23.5088L19.918 23.3989H22.0054L21.981 23.5088C21.8752 24.0215 21.6717 24.5057 21.3706 24.9614C21.0776 25.409 20.6992 25.8078 20.2354 26.1577C19.7796 26.4995 19.2507 26.7681 18.6484 26.9634C18.0544 27.1506 17.4033 27.2441 16.6953 27.2441Z" fill="black"/>
</g>
<defs>
<filter id="filter0_d_2002_909" x="0" y="0" width="33.3" height="43" filterUnits="userSpaceOnUse" color-interpolation-filters="sRGB">
<feFlood flood-opacity="0" result="BackgroundImageFix"/>
<feColorMatrix in="SourceAlpha" type="matrix" values="0 0 0 0 0 0 0 0 0 0 0 0 0 0 0 0 0 0 127 0" result="hardAlpha"/>
<feOffset dy="1"/>
<feComposite in2="hardAlpha" operator="out"/>
<feColorMatrix type="matrix" values="0 0 0 0 0.537255 0 0 0 0 0.541176 0 0 0 0 0.552941 0 0 0 1 0"/>
<feBlend mode="normal" in2="BackgroundImageFix" result="effect1_dropShadow_2002_909"/>
<feBlend mode="normal" in="SourceGraphic" in2="effect1_dropShadow_2002_909" result="shape"/>
</filter>
</defs>
</svg>
