<svg width="34" height="43" viewBox="0 0 34 43" fill="none" xmlns="http://www.w3.org/2000/svg">
<g filter="url(#filter0_d_2002_871)">
<path d="M0 7.36C0 4.78376 0 3.49564 0.50137 2.51164C0.942388 1.6461 1.6461 0.942388 2.51164 0.50137C3.49564 0 4.78376 0 7.36 0H25.9257C28.502 0 29.7901 0 30.7741 0.50137C31.6396 0.942388 32.3433 1.6461 32.7843 2.51164C33.2857 3.49564 33.2857 4.78376 33.2857 7.36V34.64C33.2857 37.2162 33.2857 38.5044 32.7843 39.4884C32.3433 40.3539 31.6396 41.0576 30.7741 41.4986C29.7901 42 28.502 42 25.9257 42H7.36C4.78376 42 3.49564 42 2.51164 41.4986C1.6461 41.0576 0.942388 40.3539 0.50137 39.4884C0 38.5044 0 37.2162 0 34.64V7.36Z" fill="#FCFCFE" shape-rendering="crispEdges"/>
<path d="M16.8784 27.2441C15.674 27.2441 14.6283 26.9715 13.7412 26.4263C12.8623 25.881 12.1787 25.112 11.6904 24.1191C11.2103 23.1263 10.9702 21.9544 10.9702 20.6035V20.5913C10.9702 19.2485 11.2144 18.0848 11.7026 17.1001C12.1909 16.1154 12.8745 15.3545 13.7534 14.8174C14.6405 14.2721 15.674 13.9995 16.854 13.9995C17.9119 13.9995 18.8193 14.203 19.5762 14.6099C20.3411 15.0168 20.9434 15.5457 21.3828 16.1968C21.8223 16.8397 22.0868 17.5273 22.1763 18.2598L22.1885 18.3574H20.1133L20.0889 18.2598C19.9342 17.625 19.5884 17.0716 19.0513 16.5996C18.5223 16.1195 17.7899 15.8794 16.854 15.8794C16.1134 15.8794 15.4624 16.0747 14.9009 16.4653C14.3475 16.8478 13.9162 17.3931 13.6069 18.1011C13.2977 18.8091 13.1431 19.6473 13.1431 20.6157V20.6279C13.1431 21.6126 13.2977 22.459 13.6069 23.167C13.9243 23.875 14.3638 24.4202 14.9253 24.8027C15.4868 25.1771 16.1379 25.3643 16.8784 25.3643C17.7492 25.3643 18.4572 25.1486 19.0024 24.7173C19.5477 24.2778 19.9139 23.7 20.1011 22.9839L20.1255 22.8984H22.2129L22.2007 22.9839C22.0786 23.7896 21.7816 24.5138 21.3096 25.1567C20.8376 25.7996 20.2231 26.3083 19.4663 26.6826C18.7176 27.057 17.855 27.2441 16.8784 27.2441Z" fill="black"/>
</g>
<defs>
<filter id="filter0_d_2002_871" x="0" y="0" width="33.2858" height="43" filterUnits="userSpaceOnUse" color-interpolation-filters="sRGB">
<feFlood flood-opacity="0" result="BackgroundImageFix"/>
<feColorMatrix in="SourceAlpha" type="matrix" values="0 0 0 0 0 0 0 0 0 0 0 0 0 0 0 0 0 0 127 0" result="hardAlpha"/>
<feOffset dy="1"/>
<feComposite in2="hardAlpha" operator="out"/>
<feColorMatrix type="matrix" values="0 0 0 0 0.537255 0 0 0 0 0.541176 0 0 0 0 0.552941 0 0 0 1 0"/>
<feBlend mode="normal" in2="BackgroundImageFix" result="effect1_dropShadow_2002_871"/>
<feBlend mode="normal" in="SourceGraphic" in2="effect1_dropShadow_2002_871" result="shape"/>
</filter>
</defs>
</svg>
