<svg width="34" height="43" viewBox="0 0 34 43" fill="none" xmlns="http://www.w3.org/2000/svg">
<g filter="url(#filter0_d_2002_915)">
<path d="M0 7.36C0 4.78376 0 3.49564 0.50137 2.51164C0.942388 1.6461 1.6461 0.942388 2.51164 0.50137C3.49564 0 4.78376 0 7.36 0H25.94C28.5162 0 29.8044 0 30.7884 0.50137C31.6539 0.942388 32.3576 1.6461 32.7986 2.51164C33.3 3.49564 33.3 4.78376 33.3 7.36V34.64C33.3 37.2162 33.3 38.5044 32.7986 39.4884C32.3576 40.3539 31.6539 41.0576 30.7884 41.4986C29.8044 42 28.5162 42 25.94 42H7.36C4.78376 42 3.49564 42 2.51164 41.4986C1.6461 41.0576 0.942388 40.3539 0.50137 39.4884C0 38.5044 0 37.2162 0 34.64V7.36Z" fill="#FCFCFE" shape-rendering="crispEdges"/>
<path d="M12.9966 31.3213C12.8013 31.3213 12.6019 31.3091 12.3984 31.2847C12.195 31.2684 12.0241 31.248 11.8857 31.2236V29.4902C11.9753 29.5065 12.0811 29.5228 12.2031 29.5391C12.3333 29.5553 12.4635 29.5635 12.5938 29.5635C13.2611 29.5635 13.7941 29.4373 14.1929 29.1851C14.5916 28.9409 14.9172 28.4608 15.1694 27.7446L15.4258 27.0122L10.6895 14.2437H12.96L16.6709 25.4497L16.1704 24.8516H16.854L16.3535 25.4497L20.0767 14.2437H22.3105L17.3301 27.7935C17.0208 28.6235 16.675 29.2949 16.2925 29.8076C15.9181 30.3285 15.4665 30.7109 14.9375 30.9551C14.4085 31.1992 13.7616 31.3213 12.9966 31.3213Z" fill="black"/>
</g>
<defs>
<filter id="filter0_d_2002_915" x="0" y="0" width="33.3" height="43" filterUnits="userSpaceOnUse" color-interpolation-filters="sRGB">
<feFlood flood-opacity="0" result="BackgroundImageFix"/>
<feColorMatrix in="SourceAlpha" type="matrix" values="0 0 0 0 0 0 0 0 0 0 0 0 0 0 0 0 0 0 127 0" result="hardAlpha"/>
<feOffset dy="1"/>
<feComposite in2="hardAlpha" operator="out"/>
<feColorMatrix type="matrix" values="0 0 0 0 0.537255 0 0 0 0 0.541176 0 0 0 0 0.552941 0 0 0 1 0"/>
<feBlend mode="normal" in2="BackgroundImageFix" result="effect1_dropShadow_2002_915"/>
<feBlend mode="normal" in="SourceGraphic" in2="effect1_dropShadow_2002_915" result="shape"/>
</filter>
</defs>
</svg>
