<svg width="34" height="43" viewBox="0 0 34 43" fill="none" xmlns="http://www.w3.org/2000/svg">
<g filter="url(#filter0_d_2002_921)">
<path d="M0 7.36C0 4.78376 0 3.49564 0.50137 2.51164C0.942388 1.6461 1.6461 0.942388 2.51164 0.50137C3.49564 0 4.78376 0 7.36 0H25.94C28.5162 0 29.8044 0 30.7884 0.50137C31.6539 0.942388 32.3576 1.6461 32.7986 2.51164C33.3 3.49564 33.3 4.78376 33.3 7.36V34.64C33.3 37.2162 33.3 38.5044 32.7986 39.4884C32.3576 40.3539 31.6539 41.0576 30.7884 41.4986C29.8044 42 28.5162 42 25.94 42H7.36C4.78376 42 3.49564 42 2.51164 41.4986C1.6461 41.0576 0.942388 40.3539 0.50137 39.4884C0 38.5044 0 37.2162 0 34.64V7.36Z" fill="#FCFCFE" shape-rendering="crispEdges"/>
<path d="M16.5 27.2441C15.32 27.2441 14.2865 26.9756 13.3994 26.4385C12.5124 25.8932 11.8206 25.1283 11.3242 24.1436C10.8359 23.1507 10.5918 21.9788 10.5918 20.6279V20.6035C10.5918 19.2445 10.8359 18.0726 11.3242 17.0879C11.8206 16.0951 12.5124 15.3341 13.3994 14.8052C14.2865 14.2681 15.3159 13.9995 16.4878 13.9995C17.6759 13.9995 18.7095 14.2681 19.5884 14.8052C20.4754 15.3341 21.1631 16.0951 21.6514 17.0879C22.1478 18.0726 22.396 19.2445 22.396 20.6035V20.6279C22.396 21.9788 22.1478 23.1507 21.6514 24.1436C21.1631 25.1283 20.4795 25.8932 19.6006 26.4385C18.7217 26.9756 17.6882 27.2441 16.5 27.2441ZM16.5122 25.3643C17.2772 25.3643 17.9323 25.1771 18.4775 24.8027C19.0309 24.4284 19.4582 23.8872 19.7593 23.1792C20.0685 22.4712 20.2231 21.6208 20.2231 20.6279V20.6035C20.2231 19.6025 20.0685 18.7521 19.7593 18.0522C19.4582 17.3442 19.0269 16.8071 18.4653 16.4409C17.9119 16.0666 17.2528 15.8794 16.4878 15.8794C15.7472 15.8794 15.0962 16.0666 14.5347 16.4409C13.9731 16.8153 13.5378 17.3524 13.2285 18.0522C12.9193 18.7521 12.7646 19.6025 12.7646 20.6035V20.6279C12.7646 21.6208 12.9193 22.4712 13.2285 23.1792C13.5378 23.8872 13.9731 24.4284 14.5347 24.8027C15.0962 25.1771 15.7554 25.3643 16.5122 25.3643Z" fill="black"/>
</g>
<defs>
<filter id="filter0_d_2002_921" x="0" y="0" width="33.3" height="43" filterUnits="userSpaceOnUse" color-interpolation-filters="sRGB">
<feFlood flood-opacity="0" result="BackgroundImageFix"/>
<feColorMatrix in="SourceAlpha" type="matrix" values="0 0 0 0 0 0 0 0 0 0 0 0 0 0 0 0 0 0 127 0" result="hardAlpha"/>
<feOffset dy="1"/>
<feComposite in2="hardAlpha" operator="out"/>
<feColorMatrix type="matrix" values="0 0 0 0 0.537255 0 0 0 0 0.541176 0 0 0 0 0.552941 0 0 0 1 0"/>
<feBlend mode="normal" in2="BackgroundImageFix" result="effect1_dropShadow_2002_921"/>
<feBlend mode="normal" in="SourceGraphic" in2="effect1_dropShadow_2002_921" result="shape"/>
</filter>
</defs>
</svg>
