<svg width="92" height="43" viewBox="0 0 92 43" fill="none" xmlns="http://www.w3.org/2000/svg">
<g filter="url(#filter0_d_2002_864)">
<path d="M0 7.36C0 4.78376 0 3.49564 0.50137 2.51164C0.942388 1.6461 1.6461 0.942388 2.51164 0.50137C3.49564 0 4.78376 0 7.36 0H84.64C87.2162 0 88.5044 0 89.4884 0.50137C90.3539 0.942388 91.0576 1.6461 91.4986 2.51164C92 3.49564 92 4.78376 92 7.36V34.64C92 37.2162 92 38.5044 91.4986 39.4884C91.0576 40.3539 90.3539 41.0576 89.4884 41.4986C88.5044 42 87.2162 42 84.64 42H7.36C4.78376 42 3.49564 42 2.51164 41.4986C1.6461 41.0576 0.942388 40.3539 0.50137 39.4884C0 38.5044 0 37.2162 0 34.64V7.36Z" fill="#ABB0BA" shape-rendering="crispEdges"/>
<path d="M30.4741 27L34.6303 15.7266H35.7084V17.5469H35.2631L31.9506 27H30.4741ZM32.3569 23.7734L32.7944 22.5781H37.8881L38.3256 23.7734H32.3569ZM38.7006 27L35.3881 17.5469V15.7266H36.0209L40.1772 27H38.7006ZM42.5469 27V25.7578H46.0312C46.8802 25.7578 47.5234 25.5885 47.9609 25.25C48.3984 24.9115 48.6172 24.4193 48.6172 23.7734V23.7578C48.6172 23.3255 48.5156 22.9635 48.3125 22.6719C48.1094 22.3802 47.8047 22.1615 47.3984 22.0156C46.9974 21.8698 46.4974 21.7969 45.8984 21.7969H42.5469V20.5859H45.5C46.3542 20.5859 46.9948 20.4349 47.4219 20.1328C47.8542 19.8307 48.0703 19.3828 48.0703 18.7891V18.7734C48.0703 18.2005 47.875 17.7578 47.4844 17.4453C47.099 17.1276 46.5573 16.9688 45.8594 16.9688H42.5469V15.7266H46.1562C46.849 15.7266 47.4427 15.8411 47.9375 16.0703C48.4375 16.2995 48.8203 16.625 49.0859 17.0469C49.3568 17.4635 49.4922 17.9583 49.4922 18.5312V18.5469C49.4922 18.9375 49.4036 19.3047 49.2266 19.6484C49.0547 19.9922 48.8229 20.2812 48.5312 20.5156C48.2396 20.75 47.9115 20.901 47.5469 20.9688V21.0938C48.0625 21.1562 48.5078 21.3099 48.8828 21.5547C49.2578 21.7995 49.5469 22.1172 49.75 22.5078C49.9583 22.8932 50.0625 23.3333 50.0625 23.8281V23.8438C50.0625 24.5 49.9089 25.0651 49.6016 25.5391C49.2995 26.0078 48.8646 26.3698 48.2969 26.625C47.7292 26.875 47.0443 27 46.2422 27H42.5469ZM41.8438 27V15.7266H43.25V27H41.8438ZM56.5884 27.2656C55.5676 27.2656 54.6848 27.026 53.94 26.5469C53.1952 26.0677 52.6197 25.388 52.2134 24.5078C51.8124 23.6276 51.6119 22.5833 51.6119 21.375V21.3594C51.6119 20.1458 51.8124 19.099 52.2134 18.2188C52.6197 17.3385 53.1926 16.6589 53.9322 16.1797C54.677 15.7005 55.5598 15.4609 56.5806 15.4609C57.3723 15.4609 58.091 15.6172 58.7369 15.9297C59.3879 16.237 59.9244 16.6667 60.3462 17.2188C60.7681 17.7656 61.0337 18.3984 61.1431 19.1172L61.1353 19.1328H59.7212L59.7134 19.1172C59.5884 18.6328 59.3775 18.2161 59.0806 17.8672C58.7837 17.513 58.4218 17.2396 57.9947 17.0469C57.5728 16.8542 57.1015 16.7578 56.5806 16.7578C55.8619 16.7578 55.2369 16.9453 54.7056 17.3203C54.1796 17.6953 53.7733 18.2266 53.4869 18.9141C53.2004 19.6016 53.0572 20.4167 53.0572 21.3594V21.375C53.0572 22.3125 53.2004 23.125 53.4869 23.8125C53.7733 24.5 54.1796 25.0312 54.7056 25.4062C55.2369 25.7812 55.8645 25.9688 56.5884 25.9688C57.1145 25.9688 57.591 25.8854 58.0181 25.7188C58.4452 25.5469 58.8046 25.3047 59.0962 24.9922C59.3879 24.6745 59.591 24.2995 59.7056 23.8672L59.7212 23.8516H61.1431V23.8672C61.0181 24.5547 60.7473 25.1536 60.3306 25.6641C59.914 26.1693 59.3853 26.5625 58.7447 26.8438C58.1093 27.125 57.3905 27.2656 56.5884 27.2656Z" fill="black"/>
</g>
<defs>
<filter id="filter0_d_2002_864" x="0" y="0" width="92" height="43" filterUnits="userSpaceOnUse" color-interpolation-filters="sRGB">
<feFlood flood-opacity="0" result="BackgroundImageFix"/>
<feColorMatrix in="SourceAlpha" type="matrix" values="0 0 0 0 0 0 0 0 0 0 0 0 0 0 0 0 0 0 127 0" result="hardAlpha"/>
<feOffset dy="1"/>
<feComposite in2="hardAlpha" operator="out"/>
<feColorMatrix type="matrix" values="0 0 0 0 0.537255 0 0 0 0 0.541176 0 0 0 0 0.552941 0 0 0 1 0"/>
<feBlend mode="normal" in2="BackgroundImageFix" result="effect1_dropShadow_2002_864"/>
<feBlend mode="normal" in="SourceGraphic" in2="effect1_dropShadow_2002_864" result="shape"/>
</filter>
</defs>
</svg>
