<svg width="92" height="43" viewBox="0 0 92 43" fill="none" xmlns="http://www.w3.org/2000/svg">
<g filter="url(#filter0_d_2002_862)">
<path d="M0 7.36C0 4.78376 0 3.49564 0.50137 2.51164C0.942388 1.6461 1.6461 0.942388 2.51164 0.50137C3.49564 0 4.78376 0 7.36 0H84.64C87.2162 0 88.5044 0 89.4884 0.50137C90.3539 0.942388 91.0576 1.6461 91.4986 2.51164C92 3.49564 92 4.78376 92 7.36V34.64C92 37.2162 92 38.5044 91.4986 39.4884C91.0576 40.3539 90.3539 41.0576 89.4884 41.4986C88.5044 42 87.2162 42 84.64 42H7.36C4.78376 42 3.49564 42 2.51164 41.4986C1.6461 41.0576 0.942388 40.3539 0.50137 39.4884C0 38.5044 0 37.2162 0 34.64V7.36Z" fill="#ABB0BA" shape-rendering="crispEdges"/>
<path d="M25.1656 27V18.5781H26.525V19.8281H26.65C26.8115 19.3854 27.0849 19.0417 27.4703 18.7969C27.8557 18.5521 28.3323 18.4297 28.9 18.4297C29.0302 18.4297 29.1578 18.4375 29.2828 18.4531C29.413 18.4635 29.512 18.474 29.5797 18.4844V19.8047C29.4391 19.7786 29.301 19.7604 29.1656 19.75C29.0354 19.7344 28.8948 19.7266 28.7437 19.7266C28.3115 19.7266 27.9286 19.8125 27.5953 19.9844C27.262 20.1562 26.999 20.3958 26.8062 20.7031C26.6187 21.0104 26.525 21.3698 26.525 21.7812V27H25.1656ZM34.1525 27.1484C33.3504 27.1484 32.6603 26.9714 32.0822 26.6172C31.5093 26.263 31.0666 25.763 30.7541 25.1172C30.4468 24.4661 30.2931 23.7005 30.2931 22.8203V22.8125C30.2931 21.9427 30.4468 21.1797 30.7541 20.5234C31.0666 19.8672 31.5067 19.3542 32.0744 18.9844C32.6421 18.6146 33.3061 18.4297 34.0666 18.4297C34.8322 18.4297 35.4884 18.6068 36.0353 18.9609C36.5874 19.3151 37.0093 19.8099 37.3009 20.4453C37.5978 21.0755 37.7463 21.8099 37.7463 22.6484V23.1797H30.9963V22.0938H37.0509L36.3791 23.0859V22.5469C36.3791 21.8854 36.2801 21.3411 36.0822 20.9141C35.8843 20.487 35.6108 20.1693 35.2619 19.9609C34.9129 19.7474 34.5119 19.6406 34.0588 19.6406C33.6056 19.6406 33.1994 19.7526 32.84 19.9766C32.4858 20.1953 32.2046 20.5208 31.9963 20.9531C31.7879 21.3854 31.6838 21.9167 31.6838 22.5469V23.0859C31.6838 23.6849 31.7853 24.1979 31.9884 24.625C32.1916 25.0469 32.4806 25.3724 32.8556 25.6016C33.2306 25.8255 33.6733 25.9375 34.1838 25.9375C34.564 25.9375 34.8947 25.8854 35.1759 25.7812C35.4572 25.6771 35.689 25.5443 35.8713 25.3828C36.0535 25.2214 36.1811 25.0573 36.2541 24.8906L36.2853 24.8203H37.6447L37.6291 24.8828C37.5561 25.1693 37.4259 25.4479 37.2384 25.7188C37.0561 25.9844 36.8192 26.2266 36.5275 26.4453C36.2358 26.6589 35.8895 26.8307 35.4884 26.9609C35.0926 27.0859 34.6473 27.1484 34.1525 27.1484ZM42.5378 27.0625C41.6732 27.0625 41.0456 26.888 40.655 26.5391C40.2696 26.1901 40.0769 25.6146 40.0769 24.8125V19.7031H38.7487V18.5781H40.0769V16.3984H41.4831V18.5781H43.3269V19.7031H41.4831V24.4688C41.4831 24.9635 41.5769 25.3203 41.7644 25.5391C41.9519 25.7526 42.2644 25.8594 42.7019 25.8594C42.8217 25.8594 42.9232 25.8568 43.0066 25.8516C43.0951 25.8464 43.2019 25.8385 43.3269 25.8281V26.9844C43.1967 27.0052 43.0665 27.0234 42.9362 27.0391C42.806 27.0547 42.6732 27.0625 42.5378 27.0625ZM47.8684 27.1484C47.233 27.1484 46.6992 27.0286 46.2669 26.7891C45.8346 26.5443 45.5091 26.1901 45.2903 25.7266C45.0768 25.2578 44.97 24.6927 44.97 24.0312V18.5781H46.3294V23.7031C46.3294 24.4583 46.4752 25.0208 46.7669 25.3906C47.0638 25.7604 47.5481 25.9453 48.22 25.9453C48.5898 25.9453 48.9153 25.8906 49.1966 25.7812C49.483 25.6719 49.7226 25.5156 49.9153 25.3125C50.108 25.1042 50.2513 24.8542 50.345 24.5625C50.444 24.2656 50.4934 23.9323 50.4934 23.5625V18.5781H51.8528V27H50.4934V25.7422H50.3684C50.233 26.0391 50.0481 26.2943 49.8138 26.5078C49.5794 26.7161 49.2981 26.875 48.97 26.9844C48.6471 27.0938 48.2799 27.1484 47.8684 27.1484ZM54.0819 27V18.5781H55.4412V19.8281H55.5662C55.7277 19.3854 56.0011 19.0417 56.3866 18.7969C56.772 18.5521 57.2485 18.4297 57.8162 18.4297C57.9465 18.4297 58.0741 18.4375 58.1991 18.4531C58.3293 18.4635 58.4282 18.474 58.4959 18.4844V19.8047C58.3553 19.7786 58.2173 19.7604 58.0819 19.75C57.9517 19.7344 57.811 19.7266 57.66 19.7266C57.2277 19.7266 56.8449 19.8125 56.5116 19.9844C56.1782 20.1562 55.9152 20.3958 55.7225 20.7031C55.535 21.0104 55.4412 21.3698 55.4412 21.7812V27H54.0819ZM60.0219 27V18.5781H61.3812V19.8438H61.5062C61.7198 19.3958 62.0271 19.0495 62.4281 18.8047C62.8292 18.5547 63.3396 18.4297 63.9594 18.4297C64.9073 18.4297 65.6339 18.7005 66.1391 19.2422C66.6495 19.7786 66.9047 20.5469 66.9047 21.5469V27H65.5453V21.875C65.5453 21.1146 65.3839 20.5521 65.0609 20.1875C64.7432 19.8177 64.2484 19.6328 63.5766 19.6328C63.1286 19.6328 62.7406 19.7292 62.4125 19.9219C62.0844 20.1146 61.8292 20.388 61.6469 20.7422C61.4698 21.0964 61.3812 21.5208 61.3812 22.0156V27H60.0219Z" fill="black"/>
</g>
<defs>
<filter id="filter0_d_2002_862" x="0" y="0" width="92" height="43" filterUnits="userSpaceOnUse" color-interpolation-filters="sRGB">
<feFlood flood-opacity="0" result="BackgroundImageFix"/>
<feColorMatrix in="SourceAlpha" type="matrix" values="0 0 0 0 0 0 0 0 0 0 0 0 0 0 0 0 0 0 127 0" result="hardAlpha"/>
<feOffset dy="1"/>
<feComposite in2="hardAlpha" operator="out"/>
<feColorMatrix type="matrix" values="0 0 0 0 0.537255 0 0 0 0 0.541176 0 0 0 0 0.552941 0 0 0 1 0"/>
<feBlend mode="normal" in2="BackgroundImageFix" result="effect1_dropShadow_2002_862"/>
<feBlend mode="normal" in="SourceGraphic" in2="effect1_dropShadow_2002_862" result="shape"/>
</filter>
</defs>
</svg>
