<svg width="191" height="43" viewBox="0 0 191 43" fill="none" xmlns="http://www.w3.org/2000/svg">
<g filter="url(#filter0_d_2002_858)">
<g filter="url(#filter1_d_2002_858)">
<path d="M0 7.36C0 4.78376 0 3.49564 0.50137 2.51164C0.942388 1.6461 1.6461 0.942388 2.51164 0.50137C3.49564 0 4.78376 0 7.36 0H183.64C186.216 0 187.504 0 188.488 0.50137C189.354 0.942388 190.058 1.6461 190.499 2.51164C191 3.49564 191 4.78376 191 7.36V34.64C191 37.2162 191 38.5044 190.499 39.4884C190.058 40.3539 189.354 41.0576 188.488 41.4986C187.504 42 186.216 42 183.64 42H7.36C4.78376 42 3.49564 42 2.51164 41.4986C1.6461 41.0576 0.942388 40.3539 0.50137 39.4884C0 38.5044 0 37.2162 0 34.64V7.36Z" fill="#FCFCFE" shape-rendering="crispEdges"/>
<path d="M77.745 27.1484C77.12 27.1484 76.5679 27.0547 76.0888 26.8672C75.6096 26.6745 75.2242 26.4062 74.9325 26.0625C74.646 25.7188 74.4768 25.3151 74.4247 24.8516H75.8153C75.9299 25.2005 76.1539 25.4818 76.4872 25.6953C76.8205 25.9089 77.2554 26.0156 77.7919 26.0156C78.1721 26.0156 78.5054 25.9609 78.7919 25.8516C79.0835 25.737 79.3127 25.5833 79.4794 25.3906C79.646 25.1927 79.7294 24.9661 79.7294 24.7109V24.6953C79.7294 24.4089 79.6148 24.1667 79.3856 23.9688C79.1565 23.7656 78.7815 23.6016 78.2606 23.4766L76.9559 23.1641C76.4299 23.0391 75.9976 22.8776 75.6591 22.6797C75.3205 22.4766 75.0705 22.2292 74.9091 21.9375C74.7476 21.6406 74.6669 21.2917 74.6669 20.8906V20.8828C74.6669 20.4141 74.8023 19.9948 75.0731 19.625C75.3492 19.2552 75.7242 18.9635 76.1981 18.75C76.6721 18.5365 77.2059 18.4297 77.7997 18.4297C78.3882 18.4297 78.9091 18.5234 79.3622 18.7109C79.8205 18.8932 80.1877 19.1536 80.4638 19.4922C80.745 19.8307 80.9169 20.2292 80.9794 20.6875H79.6434C79.5549 20.3542 79.3518 20.0833 79.0341 19.875C78.7164 19.6667 78.3023 19.5625 77.7919 19.5625C77.4585 19.5625 77.1617 19.6172 76.9013 19.7266C76.6408 19.8307 76.4351 19.9766 76.2841 20.1641C76.133 20.3516 76.0575 20.5703 76.0575 20.8203V20.8359C76.0575 21.0234 76.107 21.1901 76.2059 21.3359C76.3049 21.4818 76.4585 21.6094 76.6669 21.7188C76.8752 21.8281 77.1434 21.9245 77.4716 22.0078L78.7684 22.3203C79.5601 22.513 80.1486 22.7891 80.5341 23.1484C80.9247 23.5078 81.12 23.9896 81.12 24.5938V24.6094C81.12 25.1094 80.9716 25.5521 80.6747 25.9375C80.3778 26.3177 79.9742 26.6146 79.4638 26.8281C78.9585 27.0417 78.3856 27.1484 77.745 27.1484ZM82.9194 29.8125V18.5781H84.2788V19.9219H84.4038C84.5756 19.6094 84.7918 19.3438 85.0522 19.125C85.3126 18.901 85.6095 18.7292 85.9428 18.6094C86.2762 18.4896 86.6381 18.4297 87.0288 18.4297C87.7423 18.4297 88.3621 18.612 88.8881 18.9766C89.4194 19.3359 89.8308 19.8411 90.1225 20.4922C90.4142 21.1432 90.56 21.9062 90.56 22.7812V22.7969C90.56 23.6771 90.4142 24.4427 90.1225 25.0938C89.8308 25.7448 89.4194 26.25 88.8881 26.6094C88.3621 26.9688 87.7423 27.1484 87.0288 27.1484C86.6433 27.1484 86.2788 27.0885 85.935 26.9688C85.5965 26.8438 85.2944 26.6719 85.0288 26.4531C84.7683 26.2344 84.56 25.974 84.4038 25.6719H84.2788V29.8125H82.9194ZM86.7163 25.9453C87.2319 25.9453 87.672 25.8203 88.0366 25.5703C88.4012 25.3151 88.6798 24.9531 88.8725 24.4844C89.0704 24.0104 89.1694 23.4479 89.1694 22.7969V22.7812C89.1694 22.125 89.0704 21.5625 88.8725 21.0938C88.6798 20.625 88.4012 20.2656 88.0366 20.0156C87.672 19.7604 87.2319 19.6328 86.7163 19.6328C86.2058 19.6328 85.7657 19.7604 85.3959 20.0156C85.0262 20.2708 84.7423 20.6328 84.5444 21.1016C84.3465 21.5703 84.2475 22.1302 84.2475 22.7812V22.7969C84.2475 23.4427 84.3465 24.0026 84.5444 24.4766C84.7423 24.9453 85.0262 25.3073 85.3959 25.5625C85.7657 25.8177 86.2058 25.9453 86.7163 25.9453ZM94.6875 27.1484C94.1562 27.1484 93.6771 27.0469 93.25 26.8438C92.8281 26.6406 92.4922 26.3516 92.2422 25.9766C91.9974 25.6016 91.875 25.1589 91.875 24.6484V24.6328C91.875 24.1328 91.9948 23.7057 92.2344 23.3516C92.474 22.9922 92.8229 22.7109 93.2812 22.5078C93.7396 22.3047 94.2943 22.1849 94.9453 22.1484L98.0391 21.9609V23.0469L95.1094 23.2344C94.4688 23.2708 94 23.4036 93.7031 23.6328C93.4115 23.862 93.2656 24.1849 93.2656 24.6016V24.6172C93.2656 25.0443 93.4271 25.3776 93.75 25.6172C94.0729 25.8516 94.4792 25.9688 94.9688 25.9688C95.4323 25.9688 95.8438 25.8776 96.2031 25.6953C96.5625 25.5078 96.8438 25.2552 97.0469 24.9375C97.2552 24.6198 97.3594 24.2604 97.3594 23.8594V21.2344C97.3594 20.7135 97.2005 20.3177 96.8828 20.0469C96.5703 19.7708 96.099 19.6328 95.4688 19.6328C94.9635 19.6328 94.5495 19.724 94.2266 19.9062C93.9036 20.0833 93.6875 20.3359 93.5781 20.6641L93.5703 20.6875H92.2109L92.2188 20.6406C92.2917 20.1979 92.474 19.8125 92.7656 19.4844C93.0625 19.151 93.4453 18.8932 93.9141 18.7109C94.3828 18.5234 94.9167 18.4297 95.5156 18.4297C96.2031 18.4297 96.7839 18.5417 97.2578 18.7656C97.737 18.9896 98.099 19.3125 98.3438 19.7344C98.5938 20.151 98.7188 20.651 98.7188 21.2344V27H97.3594V25.7578H97.2344C97.0573 26.0547 96.8411 26.3073 96.5859 26.5156C96.3359 26.724 96.0521 26.8828 95.7344 26.9922C95.4167 27.0964 95.0677 27.1484 94.6875 27.1484ZM104.338 27.1484C103.552 27.1484 102.87 26.9688 102.292 26.6094C101.713 26.25 101.266 25.7422 100.948 25.0859C100.63 24.4297 100.471 23.6562 100.471 22.7656V22.75C100.471 21.875 100.628 21.1146 100.94 20.4688C101.258 19.8229 101.706 19.3229 102.284 18.9688C102.862 18.6094 103.544 18.4297 104.331 18.4297C105.013 18.4297 105.601 18.5495 106.096 18.7891C106.591 19.0286 106.987 19.3516 107.284 19.7578C107.581 20.1589 107.771 20.6094 107.854 21.1094L107.862 21.1562H106.51L106.503 21.1328C106.398 20.7161 106.161 20.362 105.792 20.0703C105.422 19.7786 104.935 19.6328 104.331 19.6328C103.825 19.6328 103.388 19.7604 103.018 20.0156C102.648 20.2708 102.362 20.6328 102.159 21.1016C101.961 21.5651 101.862 22.1146 101.862 22.75V22.7656C101.862 23.4115 101.963 23.974 102.167 24.4531C102.37 24.9271 102.656 25.2943 103.026 25.5547C103.396 25.8151 103.831 25.9453 104.331 25.9453C104.898 25.9453 105.362 25.8229 105.721 25.5781C106.081 25.3333 106.338 24.9766 106.495 24.5078L106.51 24.4609L107.854 24.4531L107.838 24.5391C107.724 25.0443 107.521 25.4948 107.229 25.8906C106.937 26.2812 106.552 26.5885 106.073 26.8125C105.594 27.0365 105.016 27.1484 104.338 27.1484ZM112.974 27.1484C112.172 27.1484 111.482 26.9714 110.903 26.6172C110.331 26.263 109.888 25.763 109.575 25.1172C109.268 24.4661 109.114 23.7005 109.114 22.8203V22.8125C109.114 21.9427 109.268 21.1797 109.575 20.5234C109.888 19.8672 110.328 19.3542 110.896 18.9844C111.463 18.6146 112.127 18.4297 112.888 18.4297C113.653 18.4297 114.31 18.6068 114.857 18.9609C115.409 19.3151 115.831 19.8099 116.122 20.4453C116.419 21.0755 116.568 21.8099 116.568 22.6484V23.1797H109.818V22.0938H115.872L115.2 23.0859V22.5469C115.2 21.8854 115.101 21.3411 114.903 20.9141C114.706 20.487 114.432 20.1693 114.083 19.9609C113.734 19.7474 113.333 19.6406 112.88 19.6406C112.427 19.6406 112.021 19.7526 111.661 19.9766C111.307 20.1953 111.026 20.5208 110.818 20.9531C110.609 21.3854 110.505 21.9167 110.505 22.5469V23.0859C110.505 23.6849 110.607 24.1979 110.81 24.625C111.013 25.0469 111.302 25.3724 111.677 25.6016C112.052 25.8255 112.495 25.9375 113.005 25.9375C113.385 25.9375 113.716 25.8854 113.997 25.7812C114.278 25.6771 114.51 25.5443 114.693 25.3828C114.875 25.2214 115.002 25.0573 115.075 24.8906L115.107 24.8203H116.466L116.45 24.8828C116.377 25.1693 116.247 25.4479 116.06 25.7188C115.877 25.9844 115.64 26.2266 115.349 26.4453C115.057 26.6589 114.711 26.8307 114.31 26.9609C113.914 27.0859 113.469 27.1484 112.974 27.1484Z" fill="black"/>
</g>
</g>
<defs>
<filter id="filter0_d_2002_858" x="0" y="0" width="191" height="43" filterUnits="userSpaceOnUse" color-interpolation-filters="sRGB">
<feFlood flood-opacity="0" result="BackgroundImageFix"/>
<feColorMatrix in="SourceAlpha" type="matrix" values="0 0 0 0 0 0 0 0 0 0 0 0 0 0 0 0 0 0 127 0" result="hardAlpha"/>
<feOffset dy="1"/>
<feComposite in2="hardAlpha" operator="out"/>
<feColorMatrix type="matrix" values="0 0 0 0 0.537255 0 0 0 0 0.541176 0 0 0 0 0.552941 0 0 0 1 0"/>
<feBlend mode="normal" in2="BackgroundImageFix" result="effect1_dropShadow_2002_858"/>
<feBlend mode="normal" in="SourceGraphic" in2="effect1_dropShadow_2002_858" result="shape"/>
</filter>
<filter id="filter1_d_2002_858" x="0" y="0" width="191" height="43" filterUnits="userSpaceOnUse" color-interpolation-filters="sRGB">
<feFlood flood-opacity="0" result="BackgroundImageFix"/>
<feColorMatrix in="SourceAlpha" type="matrix" values="0 0 0 0 0 0 0 0 0 0 0 0 0 0 0 0 0 0 127 0" result="hardAlpha"/>
<feOffset dy="1"/>
<feComposite in2="hardAlpha" operator="out"/>
<feColorMatrix type="matrix" values="0 0 0 0 0.537255 0 0 0 0 0.541176 0 0 0 0 0.552941 0 0 0 1 0"/>
<feBlend mode="normal" in2="BackgroundImageFix" result="effect1_dropShadow_2002_858"/>
<feBlend mode="normal" in="SourceGraphic" in2="effect1_dropShadow_2002_858" result="shape"/>
</filter>
</defs>
</svg>
