<svg width="1003" height="80" viewBox="0 0 1003 80" fill="none" xmlns="http://www.w3.org/2000/svg">
<rect width="1003" height="80" rx="20" fill="#ACCFFF" fill-opacity="0.1"/>
<path d="M23.276 41.5V39.916C25.004 38.54 26.508 37.276 27.788 36.124C29.084 34.972 30.084 33.86 30.788 32.788C31.492 31.716 31.844 30.62 31.844 29.5C31.844 28.492 31.556 27.7 30.98 27.124C30.42 26.532 29.66 26.236 28.7 26.236C27.964 26.236 27.34 26.396 26.828 26.716C26.316 27.036 25.932 27.46 25.676 27.988C25.42 28.516 25.292 29.084 25.292 29.692H23.3C23.316 28.588 23.556 27.644 24.02 26.86C24.5 26.06 25.14 25.452 25.94 25.036C26.756 24.62 27.676 24.412 28.7 24.412C30.348 24.412 31.628 24.868 32.54 25.78C33.452 26.692 33.908 27.916 33.908 29.452C33.908 30.46 33.692 31.428 33.26 32.356C32.828 33.268 32.252 34.148 31.532 34.996C30.812 35.844 30.004 36.66 29.108 37.444C28.212 38.228 27.308 38.98 26.396 39.7H34.364V41.5H23.276ZM42.8026 41.788C41.7786 41.788 40.8666 41.588 40.0666 41.188C39.2826 40.772 38.6506 40.22 38.1706 39.532C37.7066 38.828 37.4346 38.044 37.3546 37.18H39.2986C39.4426 38.028 39.8186 38.708 40.4266 39.22C41.0506 39.716 41.8426 39.964 42.8026 39.964C44.0666 39.964 45.0986 39.396 45.8986 38.26C46.6986 37.108 47.1546 35.316 47.2666 32.884H47.1226C46.6906 33.636 46.1386 34.252 45.4666 34.732C44.7946 35.212 43.8506 35.452 42.6346 35.452C41.6266 35.452 40.7226 35.22 39.9226 34.756C39.1226 34.292 38.4826 33.652 38.0026 32.836C37.5386 32.02 37.3066 31.092 37.3066 30.052C37.3066 29.028 37.5306 28.092 37.9786 27.244C38.4426 26.38 39.0906 25.692 39.9226 25.18C40.7706 24.668 41.7546 24.412 42.8746 24.412C44.9866 24.412 46.5626 25.132 47.6026 26.572C48.6426 28.012 49.1626 29.972 49.1626 32.452C49.1626 34.292 48.9146 35.916 48.4186 37.324C47.9226 38.716 47.2026 39.812 46.2586 40.612C45.3146 41.396 44.1626 41.788 42.8026 41.788ZM43.0186 33.628C44.1386 33.628 45.0346 33.276 45.7066 32.572C46.3786 31.868 46.7146 30.988 46.7146 29.932C46.7146 28.876 46.3786 27.996 45.7066 27.292C45.0346 26.588 44.1386 26.236 43.0186 26.236C41.8986 26.236 41.0026 26.588 40.3306 27.292C39.6746 27.996 39.3466 28.876 39.3466 29.932C39.3466 31.004 39.6746 31.892 40.3306 32.596C41.0026 33.284 41.8986 33.628 43.0186 33.628Z" fill="black" fill-opacity="0.8"/>
<path d="M68.416 38.5L72.544 27.3H74.4L78.496 38.5H76.704L75.744 35.764H71.168L70.208 38.5H68.416ZM71.648 34.42H75.264L73.456 29.316L71.648 34.42ZM80.0579 38.5V27.3H83.9779C84.8525 27.3 85.5779 27.4493 86.1539 27.748C86.7299 28.036 87.1565 28.436 87.4339 28.948C87.7219 29.4493 87.8659 30.02 87.8659 30.66C87.8659 31.268 87.7272 31.828 87.4499 32.34C87.1832 32.8413 86.7619 33.2413 86.1859 33.54C85.6099 33.8387 84.8739 33.988 83.9779 33.988H81.7539V38.5H80.0579ZM81.7539 32.596H83.8979C84.6979 32.596 85.2685 32.4253 85.6099 32.084C85.9619 31.732 86.1379 31.2573 86.1379 30.66C86.1379 30.0413 85.9619 29.5613 85.6099 29.22C85.2685 28.868 84.6979 28.692 83.8979 28.692H81.7539V32.596ZM89.5423 38.5V27.3H93.3983C94.2836 27.3 95.0089 27.4493 95.5743 27.748C96.1503 28.0467 96.5769 28.452 96.8542 28.964C97.1316 29.4653 97.2703 30.0253 97.2703 30.644C97.2703 31.3373 97.0836 31.9667 96.7103 32.532C96.3476 33.0973 95.7769 33.5027 94.9983 33.748L97.3823 38.5H95.4143L93.2383 33.988H91.2383V38.5H89.5423ZM91.2383 32.708H93.3023C94.0703 32.708 94.6303 32.5213 94.9823 32.148C95.3449 31.7747 95.5263 31.2893 95.5263 30.692C95.5263 30.0947 95.3503 29.62 94.9983 29.268C94.6463 28.9053 94.0756 28.724 93.2863 28.724H91.2383V32.708ZM98.2686 40.388L99.1966 36.612H100.877L99.4046 40.388H98.2686ZM106.574 38.5V27.3H108.574L112.366 34.756L116.142 27.3H118.142V38.5H116.446V30.228L113.022 36.9H111.71L108.27 30.244V38.5H106.574ZM125.585 38.692C124.476 38.692 123.505 38.4467 122.673 37.956C121.841 37.4653 121.191 36.788 120.721 35.924C120.252 35.0493 120.017 34.0413 120.017 32.9C120.017 31.7587 120.252 30.756 120.721 29.892C121.191 29.0173 121.841 28.3347 122.673 27.844C123.505 27.3533 124.476 27.108 125.585 27.108C126.695 27.108 127.665 27.3533 128.497 27.844C129.329 28.3347 129.975 29.0173 130.433 29.892C130.903 30.756 131.137 31.7587 131.137 32.9C131.137 34.0413 130.903 35.0493 130.433 35.924C129.975 36.788 129.329 37.4653 128.497 37.956C127.665 38.4467 126.695 38.692 125.585 38.692ZM125.585 37.172C126.353 37.172 127.02 37.0013 127.585 36.66C128.161 36.3187 128.609 35.828 128.929 35.188C129.249 34.548 129.409 33.7853 129.409 32.9C129.409 32.0147 129.249 31.252 128.929 30.612C128.609 29.972 128.161 29.4813 127.585 29.14C127.02 28.7987 126.353 28.628 125.585 28.628C124.817 28.628 124.145 28.7987 123.569 29.14C122.993 29.4813 122.545 29.972 122.225 30.612C121.916 31.252 121.761 32.0147 121.761 32.9C121.761 33.7853 121.916 34.548 122.225 35.188C122.545 35.828 122.993 36.3187 123.569 36.66C124.145 37.0013 124.817 37.172 125.585 37.172ZM133.027 38.5V27.3H134.723L140.339 35.732V27.3H142.035V38.5H140.339L134.723 30.068V38.5H133.027Z" fill="black" fill-opacity="0.8"/>
<rect x="164" y="12" width="827" height="56" rx="12" fill="#F7C06D" fill-opacity="0.2"/>
<rect x="180" y="30" width="20" height="20" rx="6" fill="#F7C06D"/>
<path d="M221.957 33.9091V47H220.372V35.571H220.295L217.099 37.6932V36.0824L220.372 33.9091H221.957ZM226.131 47L231.987 35.4176V35.3153H225.237V33.9091H233.623V35.392L227.793 47H226.131ZM236.515 45.3253C236.2 45.3253 235.929 45.2124 235.703 44.9865C235.478 44.7607 235.365 44.4901 235.365 44.1747C235.365 43.8594 235.478 43.5888 235.703 43.3629C235.929 43.1371 236.2 43.0241 236.515 43.0241C236.831 43.0241 237.101 43.1371 237.327 43.3629C237.553 43.5888 237.666 43.8594 237.666 44.1747C237.666 44.3835 237.613 44.5753 237.506 44.75C237.404 44.9247 237.265 45.0653 237.091 45.1719C236.92 45.2741 236.728 45.3253 236.515 45.3253ZM236.515 38.7031C236.2 38.7031 235.929 38.5902 235.703 38.3643C235.478 38.1385 235.365 37.8679 235.365 37.5526C235.365 37.2372 235.478 36.9666 235.703 36.7408C235.929 36.5149 236.2 36.402 236.515 36.402C236.831 36.402 237.101 36.5149 237.327 36.7408C237.553 36.9666 237.666 37.2372 237.666 37.5526C237.666 37.7614 237.613 37.9531 237.506 38.1278C237.404 38.3026 237.265 38.4432 237.091 38.5497C236.92 38.652 236.728 38.7031 236.515 38.7031ZM244.617 47.179C243.654 47.179 242.834 46.9169 242.156 46.3928C241.479 45.8643 240.961 45.0994 240.603 44.098C240.245 43.0923 240.066 41.8778 240.066 40.4545C240.066 39.0398 240.245 37.8317 240.603 36.8303C240.965 35.8246 241.485 35.0575 242.163 34.5291C242.844 33.9964 243.663 33.7301 244.617 33.7301C245.572 33.7301 246.388 33.9964 247.065 34.5291C247.747 35.0575 248.267 35.8246 248.625 36.8303C248.987 37.8317 249.168 39.0398 249.168 40.4545C249.168 41.8778 248.989 43.0923 248.631 44.098C248.273 45.0994 247.756 45.8643 247.078 46.3928C246.401 46.9169 245.58 47.179 244.617 47.179ZM244.617 45.7727C245.572 45.7727 246.313 45.3125 246.842 44.392C247.37 43.4716 247.634 42.1591 247.634 40.4545C247.634 39.321 247.513 38.3558 247.27 37.5589C247.031 36.7621 246.686 36.1548 246.234 35.7372C245.787 35.3196 245.248 35.1108 244.617 35.1108C243.671 35.1108 242.932 35.5774 242.399 36.5107C241.866 37.4396 241.6 38.7543 241.6 40.4545C241.6 41.5881 241.719 42.5511 241.958 43.3438C242.197 44.1364 242.54 44.7393 242.987 45.1527C243.439 45.5661 243.982 45.7727 244.617 45.7727ZM255.867 47.179C254.904 47.179 254.084 46.9169 253.406 46.3928C252.729 45.8643 252.211 45.0994 251.853 44.098C251.495 43.0923 251.316 41.8778 251.316 40.4545C251.316 39.0398 251.495 37.8317 251.853 36.8303C252.215 35.8246 252.735 35.0575 253.413 34.5291C254.094 33.9964 254.913 33.7301 255.867 33.7301C256.822 33.7301 257.638 33.9964 258.315 34.5291C258.997 35.0575 259.517 35.8246 259.875 36.8303C260.237 37.8317 260.418 39.0398 260.418 40.4545C260.418 41.8778 260.239 43.0923 259.881 44.098C259.523 45.0994 259.006 45.8643 258.328 46.3928C257.651 46.9169 256.83 47.179 255.867 47.179ZM255.867 45.7727C256.822 45.7727 257.563 45.3125 258.092 44.392C258.62 43.4716 258.884 42.1591 258.884 40.4545C258.884 39.321 258.763 38.3558 258.52 37.5589C258.281 36.7621 257.936 36.1548 257.484 35.7372C257.037 35.3196 256.498 35.1108 255.867 35.1108C254.921 35.1108 254.182 35.5774 253.649 36.5107C253.116 37.4396 252.85 38.7543 252.85 40.4545C252.85 41.5881 252.969 42.5511 253.208 43.3438C253.447 44.1364 253.79 44.7393 254.237 45.1527C254.689 45.5661 255.232 45.7727 255.867 45.7727ZM273.56 39.7514V41.1577H267.833V39.7514H273.56ZM285.854 33.9091V47H284.269V35.571H284.192L280.996 37.6932V36.0824L284.269 33.9091H285.854ZM290.028 47L295.883 35.4176V35.3153H289.133V33.9091H297.519V35.392L291.69 47H290.028ZM300.412 45.3253C300.096 45.3253 299.826 45.2124 299.6 44.9865C299.374 44.7607 299.261 44.4901 299.261 44.1747C299.261 43.8594 299.374 43.5888 299.6 43.3629C299.826 43.1371 300.096 43.0241 300.412 43.0241C300.727 43.0241 300.998 43.1371 301.224 43.3629C301.449 43.5888 301.562 43.8594 301.562 44.1747C301.562 44.3835 301.509 44.5753 301.403 44.75C301.3 44.9247 301.162 45.0653 300.987 45.1719C300.817 45.2741 300.625 45.3253 300.412 45.3253ZM300.412 38.7031C300.096 38.7031 299.826 38.5902 299.6 38.3643C299.374 38.1385 299.261 37.8679 299.261 37.5526C299.261 37.2372 299.374 36.9666 299.6 36.7408C299.826 36.5149 300.096 36.402 300.412 36.402C300.727 36.402 300.998 36.5149 301.224 36.7408C301.449 36.9666 301.562 37.2372 301.562 37.5526C301.562 37.7614 301.509 37.9531 301.403 38.1278C301.3 38.3026 301.162 38.4432 300.987 38.5497C300.817 38.652 300.625 38.7031 300.412 38.7031ZM308.667 47.179C307.823 47.179 307.071 47.0341 306.411 46.7443C305.754 46.4545 305.232 46.0518 304.845 45.5362C304.461 45.0163 304.252 44.4134 304.218 43.7273H305.829C305.863 44.1491 306.008 44.5135 306.264 44.8203C306.519 45.1229 306.854 45.3572 307.267 45.5234C307.681 45.6896 308.139 45.7727 308.642 45.7727C309.204 45.7727 309.703 45.6747 310.137 45.4787C310.572 45.2827 310.913 45.0099 311.16 44.6605C311.407 44.3111 311.531 43.9062 311.531 43.446C311.531 42.9645 311.411 42.5405 311.173 42.174C310.934 41.8033 310.585 41.5135 310.124 41.3047C309.664 41.0959 309.102 40.9915 308.437 40.9915H307.389V39.5852H308.437C308.957 39.5852 309.413 39.4915 309.805 39.304C310.201 39.1165 310.51 38.8523 310.732 38.5114C310.958 38.1705 311.07 37.7699 311.07 37.3097C311.07 36.8665 310.972 36.4808 310.776 36.1527C310.58 35.8246 310.303 35.5689 309.945 35.3857C309.592 35.2024 309.174 35.1108 308.693 35.1108C308.241 35.1108 307.815 35.1939 307.414 35.3601C307.018 35.522 306.694 35.7585 306.443 36.0696C306.191 36.3764 306.055 36.7472 306.034 37.1818H304.499C304.525 36.4957 304.732 35.8949 305.119 35.3793C305.507 34.8594 306.014 34.4545 306.641 34.1648C307.271 33.875 307.964 33.7301 308.718 33.7301C309.528 33.7301 310.222 33.8942 310.802 34.2223C311.382 34.5462 311.827 34.9744 312.138 35.5071C312.449 36.0398 312.605 36.6151 312.605 37.233C312.605 37.9702 312.411 38.5987 312.023 39.1186C311.639 39.6385 311.117 39.9986 310.457 40.1989V40.3011C311.284 40.4375 311.929 40.7891 312.394 41.3558C312.858 41.9183 313.09 42.6151 313.09 43.446C313.09 44.1577 312.896 44.7969 312.509 45.3636C312.125 45.9261 311.601 46.3693 310.936 46.6932C310.271 47.017 309.515 47.179 308.667 47.179ZM319.975 47.179C319.012 47.179 318.191 46.9169 317.514 46.3928C316.836 45.8643 316.318 45.0994 315.96 44.098C315.602 43.0923 315.423 41.8778 315.423 40.4545C315.423 39.0398 315.602 37.8317 315.96 36.8303C316.323 35.8246 316.843 35.0575 317.52 34.5291C318.202 33.9964 319.02 33.7301 319.975 33.7301C320.929 33.7301 321.745 33.9964 322.423 34.5291C323.105 35.0575 323.624 35.8246 323.982 36.8303C324.345 37.8317 324.526 39.0398 324.526 40.4545C324.526 41.8778 324.347 43.0923 323.989 44.098C323.631 45.0994 323.113 45.8643 322.436 46.3928C321.758 46.9169 320.938 47.179 319.975 47.179ZM319.975 45.7727C320.929 45.7727 321.671 45.3125 322.199 44.392C322.727 43.4716 322.992 42.1591 322.992 40.4545C322.992 39.321 322.87 38.3558 322.627 37.5589C322.389 36.7621 322.044 36.1548 321.592 35.7372C321.144 35.3196 320.605 35.1108 319.975 35.1108C319.029 35.1108 318.289 35.5774 317.757 36.5107C317.224 37.4396 316.958 38.7543 316.958 40.4545C316.958 41.5881 317.077 42.5511 317.316 43.3438C317.554 44.1364 317.897 44.7393 318.345 45.1527C318.796 45.5661 319.34 45.7727 319.975 45.7727Z" fill="black" fill-opacity="0.6"/>
<path d="M384.122 47H382.46L387.267 33.9091H388.903L393.71 47H392.048L388.136 35.9801H388.034L384.122 47ZM384.736 41.8864H391.435V43.2926H384.736V41.8864ZM397.053 41.0938V47H395.545V37.1818H397.002V38.7159H397.13C397.36 38.2173 397.71 37.8168 398.178 37.5142C398.647 37.2074 399.252 37.054 399.994 37.054C400.658 37.054 401.24 37.1903 401.739 37.4631C402.237 37.7315 402.625 38.1406 402.902 38.6903C403.179 39.2358 403.317 39.9261 403.317 40.7614V47H401.809V40.8636C401.809 40.0923 401.609 39.4915 401.208 39.0611C400.808 38.6264 400.258 38.4091 399.559 38.4091C399.077 38.4091 398.647 38.5135 398.268 38.7223C397.893 38.9311 397.597 39.2358 397.379 39.6364C397.162 40.0369 397.053 40.5227 397.053 41.0938ZM410.344 37.1818V38.4602H405.256V37.1818H410.344ZM406.739 34.8295H408.247V44.1875C408.247 44.6136 408.309 44.9332 408.433 45.1463C408.561 45.3551 408.722 45.4957 408.919 45.5682C409.119 45.6364 409.33 45.6705 409.551 45.6705C409.718 45.6705 409.854 45.6619 409.96 45.6449C410.067 45.6236 410.152 45.6065 410.216 45.5938L410.523 46.9489C410.421 46.9872 410.278 47.0256 410.095 47.0639C409.911 47.1065 409.679 47.1278 409.398 47.1278C408.972 47.1278 408.554 47.0362 408.145 46.853C407.74 46.6697 407.404 46.3906 407.135 46.0156C406.871 45.6406 406.739 45.1676 406.739 44.5966V34.8295ZM414.333 41.0938V47H412.824V33.9091H414.333V38.7159H414.46C414.691 38.2088 415.036 37.8061 415.496 37.5078C415.96 37.2053 416.578 37.054 417.35 37.054C418.019 37.054 418.605 37.1882 419.107 37.4567C419.61 37.7209 420 38.1278 420.277 38.6776C420.558 39.223 420.699 39.9176 420.699 40.7614V47H419.191V40.8636C419.191 40.0838 418.988 39.4808 418.583 39.0547C418.183 38.6243 417.627 38.4091 416.915 38.4091C416.421 38.4091 415.977 38.5135 415.585 38.7223C415.198 38.9311 414.891 39.2358 414.665 39.6364C414.443 40.0369 414.333 40.5227 414.333 41.0938ZM426.348 47.2301C425.726 47.2301 425.161 47.1129 424.654 46.8786C424.147 46.6399 423.744 46.2969 423.446 45.8494C423.148 45.3977 422.999 44.8523 422.999 44.2131C422.999 43.6506 423.109 43.1946 423.331 42.8452C423.553 42.4915 423.849 42.2145 424.219 42.0142C424.59 41.8139 424.999 41.6648 425.447 41.5668C425.898 41.4645 426.352 41.3835 426.808 41.3239C427.405 41.2472 427.888 41.1896 428.259 41.1513C428.634 41.1087 428.907 41.0384 429.077 40.9403C429.252 40.8423 429.339 40.6719 429.339 40.429V40.3778C429.339 39.7472 429.167 39.2571 428.822 38.9077C428.481 38.5582 427.963 38.3835 427.268 38.3835C426.548 38.3835 425.984 38.5412 425.575 38.8565C425.165 39.1719 424.878 39.5085 424.712 39.8665L423.28 39.3551C423.536 38.7585 423.876 38.294 424.303 37.9616C424.733 37.625 425.202 37.3906 425.709 37.2585C426.22 37.1222 426.723 37.054 427.217 37.054C427.533 37.054 427.895 37.0923 428.304 37.169C428.717 37.2415 429.116 37.3928 429.499 37.6229C429.887 37.853 430.209 38.2003 430.464 38.6648C430.72 39.1293 430.848 39.7514 430.848 40.5312V47H429.339V45.6705H429.263C429.161 45.8835 428.99 46.1115 428.751 46.3544C428.513 46.5973 428.195 46.804 427.799 46.9744C427.403 47.1449 426.919 47.2301 426.348 47.2301ZM426.578 45.875C427.175 45.875 427.678 45.7578 428.087 45.5234C428.5 45.2891 428.811 44.9865 429.02 44.6158C429.233 44.245 429.339 43.8551 429.339 43.446V42.0653C429.276 42.142 429.135 42.2124 428.918 42.2763C428.705 42.3359 428.457 42.3892 428.176 42.4361C427.899 42.4787 427.629 42.517 427.364 42.5511C427.104 42.581 426.893 42.6065 426.732 42.6278C426.339 42.679 425.973 42.7621 425.632 42.8771C425.295 42.9879 425.023 43.1562 424.814 43.3821C424.609 43.6037 424.507 43.9062 424.507 44.2898C424.507 44.8139 424.701 45.2102 425.089 45.4787C425.481 45.7429 425.977 45.875 426.578 45.875ZM435.11 41.0938V47H433.601V37.1818H435.059V38.7159H435.187C435.417 38.2173 435.766 37.8168 436.235 37.5142C436.704 37.2074 437.309 37.054 438.05 37.054C438.715 37.054 439.297 37.1903 439.795 37.4631C440.294 37.7315 440.682 38.1406 440.959 38.6903C441.236 39.2358 441.374 39.9261 441.374 40.7614V47H439.866V40.8636C439.866 40.0923 439.665 39.4915 439.265 39.0611C438.864 38.6264 438.314 38.4091 437.616 38.4091C437.134 38.4091 436.704 38.5135 436.324 38.7223C435.949 38.9311 435.653 39.2358 435.436 39.6364C435.219 40.0369 435.11 40.5227 435.11 41.0938ZM447.02 47.2301C446.398 47.2301 445.833 47.1129 445.326 46.8786C444.819 46.6399 444.416 46.2969 444.118 45.8494C443.82 45.3977 443.67 44.8523 443.67 44.2131C443.67 43.6506 443.781 43.1946 444.003 42.8452C444.224 42.4915 444.521 42.2145 444.891 42.0142C445.262 41.8139 445.671 41.6648 446.119 41.5668C446.57 41.4645 447.024 41.3835 447.48 41.3239C448.077 41.2472 448.56 41.1896 448.931 41.1513C449.306 41.1087 449.579 41.0384 449.749 40.9403C449.924 40.8423 450.011 40.6719 450.011 40.429V40.3778C450.011 39.7472 449.839 39.2571 449.494 38.9077C449.153 38.5582 448.635 38.3835 447.94 38.3835C447.22 38.3835 446.656 38.5412 446.246 38.8565C445.837 39.1719 445.55 39.5085 445.384 39.8665L443.952 39.3551C444.207 38.7585 444.548 38.294 444.974 37.9616C445.405 37.625 445.874 37.3906 446.381 37.2585C446.892 37.1222 447.395 37.054 447.889 37.054C448.205 37.054 448.567 37.0923 448.976 37.169C449.389 37.2415 449.788 37.3928 450.171 37.6229C450.559 37.853 450.881 38.2003 451.136 38.6648C451.392 39.1293 451.52 39.7514 451.52 40.5312V47H450.011V45.6705H449.935C449.832 45.8835 449.662 46.1115 449.423 46.3544C449.185 46.5973 448.867 46.804 448.471 46.9744C448.075 47.1449 447.591 47.2301 447.02 47.2301ZM447.25 45.875C447.847 45.875 448.349 45.7578 448.759 45.5234C449.172 45.2891 449.483 44.9865 449.692 44.6158C449.905 44.245 450.011 43.8551 450.011 43.446V42.0653C449.947 42.142 449.807 42.2124 449.589 42.2763C449.376 42.3359 449.129 42.3892 448.848 42.4361C448.571 42.4787 448.3 42.517 448.036 42.5511C447.776 42.581 447.565 42.6065 447.403 42.6278C447.011 42.679 446.645 42.7621 446.304 42.8771C445.967 42.9879 445.695 43.1562 445.486 43.3821C445.281 43.6037 445.179 43.9062 445.179 44.2898C445.179 44.8139 445.373 45.2102 445.761 45.4787C446.153 45.7429 446.649 45.875 447.25 45.875ZM459.54 33.9091H461.432L465.881 44.7756H466.035L470.483 33.9091H472.376V47H470.893V37.054H470.765L466.674 47H465.242L461.151 37.054H461.023V47H459.54V33.9091ZM479.466 47.2045C478.52 47.2045 477.704 46.9957 477.018 46.5781C476.336 46.1562 475.81 45.5682 475.439 44.8139C475.072 44.0554 474.889 43.1733 474.889 42.1676C474.889 41.1619 475.072 40.2756 475.439 39.5085C475.81 38.7372 476.325 38.1364 476.986 37.706C477.651 37.2713 478.426 37.054 479.312 37.054C479.824 37.054 480.329 37.1392 480.827 37.3097C481.326 37.4801 481.78 37.7571 482.189 38.1406C482.598 38.5199 482.924 39.0227 483.167 39.6491C483.41 40.2756 483.531 41.0469 483.531 41.9631V42.6023H475.963V41.2983H481.997C481.997 40.7443 481.886 40.25 481.665 39.8153C481.447 39.3807 481.136 39.0376 480.732 38.7862C480.331 38.5348 479.858 38.4091 479.312 38.4091C478.712 38.4091 478.192 38.5582 477.753 38.8565C477.318 39.1506 476.984 39.5341 476.749 40.0071C476.515 40.4801 476.398 40.9872 476.398 41.5284V42.3977C476.398 43.1392 476.526 43.7678 476.781 44.2834C477.041 44.7947 477.401 45.1847 477.862 45.4531C478.322 45.7173 478.857 45.8494 479.466 45.8494C479.862 45.8494 480.22 45.794 480.54 45.6832C480.864 45.5682 481.143 45.3977 481.377 45.1719C481.612 44.9418 481.793 44.6562 481.92 44.3153L483.378 44.7244C483.224 45.2188 482.967 45.6534 482.604 46.0284C482.242 46.3991 481.795 46.6889 481.262 46.8977C480.729 47.1023 480.131 47.2045 479.466 47.2045ZM489.942 47.2045C488.996 47.2045 488.18 46.9957 487.494 46.5781C486.812 46.1562 486.286 45.5682 485.915 44.8139C485.549 44.0554 485.366 43.1733 485.366 42.1676C485.366 41.1619 485.549 40.2756 485.915 39.5085C486.286 38.7372 486.802 38.1364 487.462 37.706C488.127 37.2713 488.903 37.054 489.789 37.054C490.3 37.054 490.805 37.1392 491.304 37.3097C491.803 37.4801 492.256 37.7571 492.665 38.1406C493.075 38.5199 493.401 39.0227 493.643 39.6491C493.886 40.2756 494.008 41.0469 494.008 41.9631V42.6023H486.44V41.2983H492.474C492.474 40.7443 492.363 40.25 492.141 39.8153C491.924 39.3807 491.613 39.0376 491.208 38.7862C490.808 38.5348 490.335 38.4091 489.789 38.4091C489.188 38.4091 488.668 38.5582 488.229 38.8565C487.795 39.1506 487.46 39.5341 487.226 40.0071C486.991 40.4801 486.874 40.9872 486.874 41.5284V42.3977C486.874 43.1392 487.002 43.7678 487.258 44.2834C487.518 44.7947 487.878 45.1847 488.338 45.4531C488.798 45.7173 489.333 45.8494 489.942 45.8494C490.339 45.8494 490.697 45.794 491.016 45.6832C491.34 45.5682 491.619 45.3977 491.854 45.1719C492.088 44.9418 492.269 44.6562 492.397 44.3153L493.854 44.7244C493.701 45.2188 493.443 45.6534 493.081 46.0284C492.719 46.3991 492.271 46.6889 491.739 46.8977C491.206 47.1023 490.607 47.2045 489.942 47.2045ZM500.572 37.1818V38.4602H495.484V37.1818H500.572ZM496.967 34.8295H498.476V44.1875C498.476 44.6136 498.538 44.9332 498.661 45.1463C498.789 45.3551 498.951 45.4957 499.147 45.5682C499.347 45.6364 499.558 45.6705 499.78 45.6705C499.946 45.6705 500.082 45.6619 500.189 45.6449C500.295 45.6236 500.381 45.6065 500.445 45.5938L500.751 46.9489C500.649 46.9872 500.506 47.0256 500.323 47.0639C500.14 47.1065 499.908 47.1278 499.626 47.1278C499.2 47.1278 498.783 47.0362 498.374 46.853C497.969 46.6697 497.632 46.3906 497.364 46.0156C497.099 45.6406 496.967 45.1676 496.967 44.5966V34.8295ZM502.842 47V37.1818H504.35V47H502.842ZM503.609 35.5455C503.315 35.5455 503.061 35.4453 502.848 35.245C502.639 35.0447 502.535 34.804 502.535 34.5227C502.535 34.2415 502.639 34.0007 502.848 33.8004C503.061 33.6001 503.315 33.5 503.609 33.5C503.903 33.5 504.154 33.6001 504.363 33.8004C504.576 34.0007 504.683 34.2415 504.683 34.5227C504.683 34.804 504.576 35.0447 504.363 35.245C504.154 35.4453 503.903 35.5455 503.609 35.5455ZM508.622 41.0938V47H507.113V37.1818H508.57V38.7159H508.698C508.928 38.2173 509.278 37.8168 509.747 37.5142C510.215 37.2074 510.82 37.054 511.562 37.054C512.227 37.054 512.808 37.1903 513.307 37.4631C513.806 37.7315 514.193 38.1406 514.47 38.6903C514.747 39.2358 514.886 39.9261 514.886 40.7614V47H513.377V40.8636C513.377 40.0923 513.177 39.4915 512.776 39.0611C512.376 38.6264 511.826 38.4091 511.127 38.4091C510.646 38.4091 510.215 38.5135 509.836 38.7223C509.461 38.9311 509.165 39.2358 508.948 39.6364C508.73 40.0369 508.622 40.5227 508.622 41.0938ZM521.605 50.8864C520.877 50.8864 520.25 50.7926 519.726 50.6051C519.202 50.4219 518.765 50.179 518.416 49.8764C518.071 49.5781 517.796 49.2585 517.591 48.9176L518.793 48.0739C518.929 48.2528 519.102 48.4574 519.311 48.6875C519.52 48.9219 519.805 49.1243 520.167 49.2947C520.534 49.4695 521.013 49.5568 521.605 49.5568C522.398 49.5568 523.052 49.3651 523.568 48.9815C524.083 48.598 524.341 47.9972 524.341 47.179V45.1847H524.213C524.103 45.3636 523.945 45.5852 523.74 45.8494C523.54 46.1094 523.25 46.3416 522.871 46.5462C522.496 46.7464 521.989 46.8466 521.35 46.8466C520.557 46.8466 519.846 46.6591 519.215 46.2841C518.588 45.9091 518.092 45.3636 517.725 44.6477C517.363 43.9318 517.182 43.0625 517.182 42.0398C517.182 41.0341 517.359 40.1584 517.713 39.4126C518.066 38.6626 518.559 38.0831 519.189 37.674C519.82 37.2607 520.549 37.054 521.375 37.054C522.015 37.054 522.522 37.1605 522.897 37.3736C523.276 37.5824 523.566 37.821 523.766 38.0895C523.971 38.3537 524.128 38.571 524.239 38.7415H524.392V37.1818H525.85V47.2812C525.85 48.125 525.658 48.8111 525.275 49.3395C524.895 49.8722 524.384 50.2621 523.74 50.5092C523.101 50.7607 522.39 50.8864 521.605 50.8864ZM521.554 45.4915C522.159 45.4915 522.671 45.353 523.088 45.076C523.506 44.799 523.824 44.4006 524.041 43.8807C524.258 43.3608 524.367 42.7386 524.367 42.0142C524.367 41.3068 524.26 40.6825 524.047 40.1413C523.834 39.6001 523.519 39.1761 523.101 38.8693C522.684 38.5625 522.168 38.4091 521.554 38.4091C520.915 38.4091 520.382 38.571 519.956 38.8949C519.534 39.2187 519.217 39.6534 519.004 40.1989C518.795 40.7443 518.691 41.3494 518.691 42.0142C518.691 42.696 518.797 43.299 519.01 43.8232C519.228 44.343 519.547 44.7521 519.969 45.0504C520.395 45.3445 520.924 45.4915 521.554 45.4915ZM535.873 29.6903V51.2188H534.594V29.6903H535.873ZM546.415 33.9091V47H544.829V33.9091H546.415ZM550.897 41.0938V47H549.388V37.1818H550.846V38.7159H550.974C551.204 38.2173 551.553 37.8168 552.022 37.5142C552.491 37.2074 553.096 37.054 553.837 37.054C554.502 37.054 555.084 37.1903 555.582 37.4631C556.081 37.7315 556.469 38.1406 556.746 38.6903C557.023 39.2358 557.161 39.9261 557.161 40.7614V47H555.653V40.8636C555.653 40.0923 555.452 39.4915 555.052 39.0611C554.651 38.6264 554.102 38.4091 553.403 38.4091C552.921 38.4091 552.491 38.5135 552.112 38.7223C551.737 38.9311 551.44 39.2358 551.223 39.6364C551.006 40.0369 550.897 40.5227 550.897 41.0938ZM564.188 37.1818V38.4602H559.1V37.1818H564.188ZM560.583 34.8295H562.091V44.1875C562.091 44.6136 562.153 44.9332 562.276 45.1463C562.404 45.3551 562.566 45.4957 562.762 45.5682C562.963 45.6364 563.173 45.6705 563.395 45.6705C563.561 45.6705 563.698 45.6619 563.804 45.6449C563.911 45.6236 563.996 45.6065 564.06 45.5938L564.367 46.9489C564.264 46.9872 564.122 47.0256 563.938 47.0639C563.755 47.1065 563.523 47.1278 563.242 47.1278C562.816 47.1278 562.398 47.0362 561.989 46.853C561.584 46.6697 561.247 46.3906 560.979 46.0156C560.715 45.6406 560.583 45.1676 560.583 44.5966V34.8295ZM566.457 47V37.1818H567.914V38.6648H568.017C568.195 38.179 568.519 37.7848 568.988 37.4822C569.457 37.1797 569.985 37.0284 570.573 37.0284C570.684 37.0284 570.823 37.0305 570.989 37.0348C571.155 37.0391 571.281 37.0455 571.366 37.054V38.5881C571.315 38.5753 571.198 38.5561 571.014 38.5305C570.835 38.5007 570.646 38.4858 570.445 38.4858C569.968 38.4858 569.542 38.5859 569.167 38.7862C568.796 38.9822 568.502 39.255 568.285 39.6044C568.072 39.9496 567.965 40.3437 567.965 40.7869V47H566.457ZM576.844 47.2045C575.958 47.2045 575.18 46.9936 574.511 46.5717C573.846 46.1499 573.326 45.5597 572.951 44.8011C572.58 44.0426 572.395 43.1562 572.395 42.142C572.395 41.1193 572.58 40.2266 572.951 39.4638C573.326 38.701 573.846 38.1087 574.511 37.6868C575.18 37.2649 575.958 37.054 576.844 37.054C577.73 37.054 578.506 37.2649 579.171 37.6868C579.84 38.1087 580.36 38.701 580.73 39.4638C581.105 40.2266 581.293 41.1193 581.293 42.142C581.293 43.1562 581.105 44.0426 580.73 44.8011C580.36 45.5597 579.84 46.1499 579.171 46.5717C578.506 46.9936 577.73 47.2045 576.844 47.2045ZM576.844 45.8494C577.517 45.8494 578.071 45.6768 578.506 45.3317C578.941 44.9865 579.262 44.5327 579.471 43.9702C579.68 43.4077 579.784 42.7983 579.784 42.142C579.784 41.4858 579.68 40.8743 579.471 40.3075C579.262 39.7408 578.941 39.2827 578.506 38.9332C578.071 38.5838 577.517 38.4091 576.844 38.4091C576.171 38.4091 575.617 38.5838 575.182 38.9332C574.747 39.2827 574.426 39.7408 574.217 40.3075C574.008 40.8743 573.904 41.4858 573.904 42.142C573.904 42.7983 574.008 43.4077 574.217 43.9702C574.426 44.5327 574.747 44.9865 575.182 45.3317C575.617 45.6768 576.171 45.8494 576.844 45.8494ZM587.303 47.2045C586.485 47.2045 585.762 46.9979 585.136 46.5845C584.51 46.1669 584.02 45.5788 583.666 44.8203C583.312 44.0575 583.135 43.1562 583.135 42.1165C583.135 41.0852 583.312 40.1903 583.666 39.4318C584.02 38.6733 584.512 38.0874 585.142 37.674C585.773 37.2607 586.502 37.054 587.328 37.054C587.968 37.054 588.473 37.1605 588.843 37.3736C589.218 37.5824 589.504 37.821 589.7 38.0895C589.9 38.3537 590.056 38.571 590.167 38.7415H590.294V33.9091H591.803V47H590.346V45.4915H590.167C590.056 45.6705 589.898 45.8963 589.694 46.169C589.489 46.4375 589.197 46.6783 588.818 46.8913C588.439 47.1001 587.934 47.2045 587.303 47.2045ZM587.507 45.8494C588.113 45.8494 588.624 45.6918 589.042 45.3764C589.459 45.0568 589.777 44.6158 589.994 44.0533C590.211 43.4865 590.32 42.8324 590.32 42.0909C590.32 41.358 590.213 40.7166 590 40.1669C589.787 39.6129 589.472 39.1825 589.054 38.8757C588.637 38.5646 588.121 38.4091 587.507 38.4091C586.868 38.4091 586.336 38.5732 585.909 38.9013C585.488 39.2251 585.17 39.6662 584.957 40.2244C584.748 40.7784 584.644 41.4006 584.644 42.0909C584.644 42.7898 584.75 43.4247 584.963 43.9957C585.181 44.5625 585.5 45.0142 585.922 45.3509C586.348 45.6832 586.877 45.8494 587.507 45.8494ZM600.963 42.9858V37.1818H602.471V47H600.963V45.3381H600.86C600.63 45.8366 600.272 46.2607 599.787 46.6101C599.301 46.9553 598.687 47.1278 597.946 47.1278C597.332 47.1278 596.787 46.9936 596.309 46.7251C595.832 46.4524 595.457 46.0433 595.184 45.4979C594.912 44.9482 594.775 44.2557 594.775 43.4205V37.1818H596.284V43.3182C596.284 44.0341 596.484 44.6051 596.885 45.0312C597.289 45.4574 597.805 45.6705 598.431 45.6705C598.806 45.6705 599.188 45.5746 599.576 45.3828C599.968 45.1911 600.296 44.897 600.56 44.5007C600.828 44.1044 600.963 43.5994 600.963 42.9858ZM609.223 47.2045C608.302 47.2045 607.51 46.9872 606.845 46.5526C606.18 46.1179 605.669 45.5192 605.311 44.7564C604.953 43.9936 604.774 43.1222 604.774 42.142C604.774 41.1449 604.957 40.2649 605.324 39.5021C605.694 38.7351 606.21 38.1364 606.871 37.706C607.535 37.2713 608.311 37.054 609.197 37.054C609.888 37.054 610.51 37.1818 611.064 37.4375C611.618 37.6932 612.072 38.0511 612.425 38.5114C612.779 38.9716 612.998 39.5085 613.084 40.1222H611.575C611.46 39.6747 611.204 39.2784 610.808 38.9332C610.416 38.5838 609.888 38.4091 609.223 38.4091C608.635 38.4091 608.119 38.5625 607.676 38.8693C607.237 39.1719 606.894 39.6001 606.647 40.1541C606.404 40.7038 606.282 41.3494 606.282 42.0909C606.282 42.8494 606.402 43.5099 606.64 44.0724C606.883 44.6349 607.224 45.0717 607.663 45.3828C608.106 45.6939 608.626 45.8494 609.223 45.8494C609.615 45.8494 609.971 45.7812 610.29 45.6449C610.61 45.5085 610.881 45.3125 611.102 45.0568C611.324 44.8011 611.481 44.4943 611.575 44.1364H613.084C612.998 44.7159 612.787 45.2379 612.451 45.7024C612.118 46.1626 611.677 46.5291 611.128 46.8018C610.582 47.0703 609.947 47.2045 609.223 47.2045ZM619.559 37.1818V38.4602H614.471V37.1818H619.559ZM615.954 34.8295H617.462V44.1875C617.462 44.6136 617.524 44.9332 617.648 45.1463C617.775 45.3551 617.937 45.4957 618.133 45.5682C618.334 45.6364 618.545 45.6705 618.766 45.6705C618.932 45.6705 619.069 45.6619 619.175 45.6449C619.282 45.6236 619.367 45.6065 619.431 45.5938L619.738 46.9489C619.635 46.9872 619.493 47.0256 619.309 47.0639C619.126 47.1065 618.894 47.1278 618.613 47.1278C618.187 47.1278 617.769 47.0362 617.36 46.853C616.955 46.6697 616.618 46.3906 616.35 46.0156C616.086 45.6406 615.954 45.1676 615.954 44.5966V34.8295ZM621.828 47V37.1818H623.336V47H621.828ZM622.595 35.5455C622.301 35.5455 622.047 35.4453 621.834 35.245C621.626 35.0447 621.521 34.804 621.521 34.5227C621.521 34.2415 621.626 34.0007 621.834 33.8004C622.047 33.6001 622.301 33.5 622.595 33.5C622.889 33.5 623.14 33.6001 623.349 33.8004C623.562 34.0007 623.669 34.2415 623.669 34.5227C623.669 34.804 623.562 35.0447 623.349 35.245C623.14 35.4453 622.889 35.5455 622.595 35.5455ZM630.088 47.2045C629.202 47.2045 628.424 46.9936 627.755 46.5717C627.09 46.1499 626.57 45.5597 626.195 44.8011C625.825 44.0426 625.639 43.1562 625.639 42.142C625.639 41.1193 625.825 40.2266 626.195 39.4638C626.57 38.701 627.09 38.1087 627.755 37.6868C628.424 37.2649 629.202 37.054 630.088 37.054C630.974 37.054 631.75 37.2649 632.415 37.6868C633.084 38.1087 633.604 38.701 633.974 39.4638C634.349 40.2266 634.537 41.1193 634.537 42.142C634.537 43.1562 634.349 44.0426 633.974 44.8011C633.604 45.5597 633.084 46.1499 632.415 46.5717C631.75 46.9936 630.974 47.2045 630.088 47.2045ZM630.088 45.8494C630.761 45.8494 631.315 45.6768 631.75 45.3317C632.185 44.9865 632.506 44.5327 632.715 43.9702C632.924 43.4077 633.028 42.7983 633.028 42.142C633.028 41.4858 632.924 40.8743 632.715 40.3075C632.506 39.7408 632.185 39.2827 631.75 38.9332C631.315 38.5838 630.761 38.4091 630.088 38.4091C629.415 38.4091 628.861 38.5838 628.426 38.9332C627.991 39.2827 627.67 39.7408 627.461 40.3075C627.252 40.8743 627.148 41.4858 627.148 42.142C627.148 42.7983 627.252 43.4077 627.461 43.9702C627.67 44.5327 627.991 44.9865 628.426 45.3317C628.861 45.6768 629.415 45.8494 630.088 45.8494ZM638.348 41.0938V47H636.84V37.1818H638.297V38.7159H638.425C638.655 38.2173 639.004 37.8168 639.473 37.5142C639.942 37.2074 640.547 37.054 641.289 37.054C641.953 37.054 642.535 37.1903 643.034 37.4631C643.532 37.7315 643.92 38.1406 644.197 38.6903C644.474 39.2358 644.612 39.9261 644.612 40.7614V47H643.104V40.8636C643.104 40.0923 642.904 39.4915 642.503 39.0611C642.102 38.6264 641.553 38.4091 640.854 38.4091C640.372 38.4091 639.942 38.5135 639.563 38.7223C639.188 38.9311 638.892 39.2358 638.674 39.6364C638.457 40.0369 638.348 40.5227 638.348 41.0938Z" fill="black"/>
<mask id="mask0_2002_262" style="mask-type:alpha" maskUnits="userSpaceOnUse" x="951" y="28" width="24" height="24">
<rect x="951" y="28" width="24" height="24" fill="#D9D9D9"/>
</mask>
<g mask="url(#mask0_2002_262)">
<path d="M963 42.95C962.867 42.95 962.742 42.9292 962.625 42.8875C962.508 42.8458 962.4 42.775 962.3 42.675L957.7 38.075C957.517 37.8917 957.425 37.6583 957.425 37.375C957.425 37.0917 957.517 36.8583 957.7 36.675C957.883 36.4917 958.117 36.4 958.4 36.4C958.683 36.4 958.917 36.4917 959.1 36.675L963 40.575L966.9 36.675C967.083 36.4917 967.317 36.4 967.6 36.4C967.883 36.4 968.117 36.4917 968.3 36.675C968.483 36.8583 968.575 37.0917 968.575 37.375C968.575 37.6583 968.483 37.8917 968.3 38.075L963.7 42.675C963.6 42.775 963.492 42.8458 963.375 42.8875C963.258 42.9292 963.133 42.95 963 42.95Z" fill="black" fill-opacity="0.8"/>
</g>
</svg>
