<svg width="44" height="43" viewBox="0 0 44 43" fill="none" xmlns="http://www.w3.org/2000/svg">
<g filter="url(#filter0_d_2002_883)">
<path d="M0 7.36C0 4.78376 0 3.49564 0.50137 2.51164C0.942388 1.6461 1.6461 0.942388 2.51164 0.50137C3.49564 0 4.78376 0 7.36 0H36.64C39.2162 0 40.5044 0 41.4884 0.50137C42.3539 0.942388 43.0576 1.6461 43.4986 2.51164C44 3.49564 44 4.78376 44 7.36V34.64C44 37.2162 44 38.5044 43.4986 39.4884C43.0576 40.3539 42.3539 41.0576 41.4884 41.4986C40.5044 42 39.2162 42 36.64 42H7.36C4.78376 42 3.49564 42 2.51164 41.4986C1.6461 41.0576 0.942388 40.3539 0.50137 39.4884C0 38.5044 0 37.2162 0 34.64V7.36Z" fill="#ABB0BA" shape-rendering="crispEdges"/>
<path d="M19.4824 29.9531C18.7988 29.9531 18.278 29.7643 17.9199 29.3867C17.5618 29.0156 17.3828 28.5078 17.3828 27.8633V23.4883H13.4082C13.0111 23.4883 12.6758 23.3776 12.4023 23.1562C12.1289 22.9284 11.9922 22.6289 11.9922 22.2578C11.9922 22.0299 12.041 21.8281 12.1387 21.6523C12.2428 21.4766 12.3893 21.2943 12.5781 21.1055L21.2891 12.4238C21.4779 12.2285 21.6699 12.082 21.8652 11.9844C22.0671 11.8802 22.2754 11.8281 22.4902 11.8281C22.7116 11.8281 22.9199 11.8802 23.1152 11.9844C23.3171 12.082 23.5124 12.2285 23.7012 12.4238L32.4121 21.1055C32.5879 21.2812 32.7279 21.4603 32.832 21.6426C32.9427 21.8249 32.998 22.0299 32.998 22.2578C32.998 22.6289 32.8581 22.9284 32.5781 23.1562C32.3047 23.3776 31.9694 23.4883 31.5723 23.4883H27.6074V27.8633C27.6074 28.5078 27.4284 29.0156 27.0703 29.3867C26.7122 29.7643 26.1914 29.9531 25.5078 29.9531H19.4824ZM19.6387 28.4395H25.3516C25.5273 28.4395 25.6738 28.3809 25.791 28.2637C25.9147 28.1465 25.9766 28 25.9766 27.8242V22.3457C25.9766 22.1243 26.084 22.0137 26.2988 22.0137H30.8008C30.8724 22.0137 30.9082 21.9876 30.9082 21.9355C30.9082 21.8965 30.8887 21.8574 30.8496 21.8184L22.6953 13.7129C22.6628 13.6738 22.6302 13.6478 22.5977 13.6348C22.5651 13.6217 22.5293 13.6152 22.4902 13.6152C22.4577 13.6152 22.4251 13.6217 22.3926 13.6348C22.36 13.6478 22.3242 13.6738 22.2852 13.7129L14.1309 21.8184C14.0918 21.8574 14.0723 21.8965 14.0723 21.9355C14.0723 21.9876 14.1081 22.0137 14.1797 22.0137H18.6914C18.9062 22.0137 19.0137 22.1243 19.0137 22.3457V27.8242C19.0137 28.0065 19.0723 28.153 19.1895 28.2637C19.3066 28.3809 19.4564 28.4395 19.6387 28.4395Z" fill="black"/>
</g>
<defs>
<filter id="filter0_d_2002_883" x="0" y="0" width="44" height="43" filterUnits="userSpaceOnUse" color-interpolation-filters="sRGB">
<feFlood flood-opacity="0" result="BackgroundImageFix"/>
<feColorMatrix in="SourceAlpha" type="matrix" values="0 0 0 0 0 0 0 0 0 0 0 0 0 0 0 0 0 0 127 0" result="hardAlpha"/>
<feOffset dy="1"/>
<feComposite in2="hardAlpha" operator="out"/>
<feColorMatrix type="matrix" values="0 0 0 0 0.537255 0 0 0 0 0.541176 0 0 0 0 0.552941 0 0 0 1 0"/>
<feBlend mode="normal" in2="BackgroundImageFix" result="effect1_dropShadow_2002_883"/>
<feBlend mode="normal" in="SourceGraphic" in2="effect1_dropShadow_2002_883" result="shape"/>
</filter>
</defs>
</svg>
